<svg fill="none" height="680" viewBox="0 0 740 680" width="740" xmlns="http://www.w3.org/2000/svg"><g clip-rule="evenodd" fill-rule="evenodd"><path d="m53.8113 519.875c16.3063-83.974 181.3067-36.135 289.4787-62.096 108.172-25.96 236.149-146.864 320.847-87.639 84.697 59.224-5.42 202.387-199.679 234.694-194.26 32.307-426.953-.986-410.6467-84.959z" fill="#f2f2f2"/><g opacity=".5"><path d="m96.9081 127.672c-1.573 1.571-.962 7.152-.995 9.218-.0506 3.215.1495 6.402.4183 9.606.1802 2.146 1.1955 22.618 4.0216 21.046 1.593-.886.594-6.808.591-8.682-.006-4.164-.18-8.318-.457-12.474-.258-3.857-.42-7.67-.272-11.535.036-.943.919-11.412-3.3069-7.179z" fill="#89c5cc"/><path d="m165.409 125.149c-13.513.107-27.021.774-40.528 1.182-6.5.197-12.995.447-19.487.807-2.213.123-6.9578-.586-8.801.593-4.0917 2.617 2.5071 3.229 4.266 3.165 26.731-.969 53.47-2.246 80.223-2.306 13.124-.029 26.241.344 39.366.261 5.017-.032 10.572-2.194 11.839 3.646 1.43 6.589-.213 13.926-.66 20.548-.298 4.42-.192 8.749.007 13.166.128 2.829-.205 6.017.296 8.794.481 2.674 2.403 4.277 4.165 1.282 1.053-1.79.529-6.209.599-8.282.094-2.792.006-5.584.006-8.377-.001-6.817.961-13.607.834-20.422-.082-4.395-.315-12.362-5.858-13.418-6.104-1.163-13.607.006-19.854-.065-15.478-.177-30.93-.695-46.413-.574z" fill="#89c5cc"/><path d="m128.174 167.786c-5.096 0-10.192.031-15.287.115-4.37.072-11.24-.838-15.3073.725-2.7843 1.07-3.5239 4.179 0 5.007 3.8433.903 9.6363-.574 13.6573-.645 20.164-.356 40.522-.82 60.657.456 18.868 1.194 38.099 2.353 56.995 1.092 1.589-.106 9.698-.429 5.998-3.468-2.159-1.774-10.907-.608-13.713-.693-9.894-.298-19.798-.364-29.689-.739-9.762-.371-19.481-1.468-29.247-1.74-11.345-.316-22.715-.11-34.064-.11z" fill="#89c5cc"/><path d="m123.076 138.804c7.942.347 15.799 11.865 7.763 17.431-7.538 5.224-21.667-.501-17.475-10.629-.602 1.464.762-1.591.779-1.611.797-.939 2.229-1.979 3.211-2.719 1.125-.848 2.296-1.78 3.651-2.205.89-.279.751.77 2.071-.267zm-3.868-4.154c-3.717 1.451-5.414 3.088-7.968 6.051-1.768 2.05-4.021 3.129-4.001 5.899.004.613.792 1.287.928 1.878.188.816-.03 1.862.119 2.729 1.538 8.949 12.216 11.967 20.031 10.277 6.809-1.472 11.901-8.007 10.323-15.114-1.587-7.154-12.196-14.551-19.432-11.72z" fill="#89c5cc"/><path d="m115.896 147.143c0 3.219 5.086 3.219 5.086 0 0-3.183-5.086-3.32-5.086 0z" fill="#89c5cc"/><path d="m122.259 146.491c0 2.558 4.04 2.558 4.04 0 0-2.529-4.04-2.637-4.04 0z" fill="#89c5cc"/><path d="m123.51 151.767c-1.294.497-2.935-.534-3.998.145-1.881 1.205.005 2.294 1.013 2.778 4.541 2.179 5.349-3.829 2.985-2.923z" fill="#89c5cc"/><path d="m192.85 144.632c-.135.057-.617.261 0 0zm-19.772-2.89c-3.398.767-6.267 3.941-9.959 3.516-2.83-.325-4.745-3.056-7.539-3.452-3.573-.508-13.297 7.642-8.184 9.041 2.983.816 4.637-4.635 7.273-4.925 2.084-.229 4.919 2.328 7.079 2.692 4.03.679 6.798-1.541 10.336-2.973 3.844-1.555 6.031-.154 9.375 1.575 2.639 1.364 5.124 2.253 8.144 1.69 2.834-.528 6.394-3.443 9.247-3.144 2.794.293 4.788 3.209 7.662 3.48 1.184.111 2.948.515 2.749-1.314-.159-1.463-1.792-1.215-2.814-1.748-2.628-1.368-5.086-3.792-8.258-3.585-2.385.156-4.557 1.832-6.756 2.634-7.2 2.626-11.247-5.081-18.355-3.487z" fill="#89c5cc"/><path d="m179.093 188.111c-13.889.128-27.825.334-41.674 1.447-3.284.264-36.811 3.43-36.747 3.658.117.421 4.43 1.066 4.403 1.165-.291-.72-.955-1.019-1.993-.894 31.798 0 63.494-2.847 95.334-2.335 8 .128 16.03.075 24.025.327 1.996.063 6.941 1.493 8.508.592 4.114-2.365-3.359-2.638-4.597-2.738-15.669-1.253-31.547-1.379-47.259-1.222z" fill="#69a1ac"/><path d="m96.5557 194.859c-2.0763 2.082-.1644 9.571-.0826 12.386.1183 4.069.0208 8.167.3779 12.226.4076 4.636 1.04 9.576 2.2564 14.074.67 2.478 3.0216 6.416 3.9536 1.913.665-3.216-.345-7.482-.697-10.758-.47-4.383-.584-8.708-.601-13.113-.016-3.837-.09-7.691-.405-11.516-.163-1.987-1.162-8.833-4.8023-5.212z" fill="#69a1ac"/><path d="m148.794 232.998c-9.856.169-19.733.402-29.572 1.017-4.033.253-8.062.629-12.08 1.055-.82.087-9.8951.455-5.84 3.804 1.83 1.513 9.359-.578 11.846-.796 4.182-.367 8.363-.605 12.558-.782 9.718-.413 19.466-.777 29.194-.609 17.767.309 35.419.446 53.19.05 2.525-.056 22.306.472 22.978-2.154.541-2.117-6.533-1.146-7.822-1.108-4.732.142-9.464.109-14.197.085-20.051-.103-40.219-.901-60.255-.562z" fill="#69a1ac"/><path d="m227.719 191.347c.313 8.775 1.807 17.54 2.285 26.342.218 4.023.475 8.043.672 12.068.064 1.298-.459 4.427 1.076 5.174 2.106 1.024 2.39-1.04 2.784-2.436 1.139-4.033.369-9.272.265-13.414-.1-4.011-.107-8.03-.403-12.034-.303-4.091-1.126-8.104-1.508-12.18-.162-1.724.403-4.593-1.427-5.663-1.582-.925-3.812.241-3.744 2.143z" fill="#69a1ac"/><path d="m130.845 205.944c.038.029.075.058.112.087-.037-.029-.075-.058-.112-.087zm-8.376-2.6c3.124.892 5.689.56 8.672 2.833 2.473 1.885 5.01 4.644 5.831 7.692 1.895 7.042-4.53 10.902-10.554 10.978-6.17.077-15.302-1.354-14.986-9.262.242-6.076 4.679-12.005 11.037-12.241zm.22-3.98c-8.099.403-14.632 9.499-14.561 17.154.084 9.279 10.598 11.67 18.066 11.734 8.429.072 16.835-5.748 14.576-15.227-1.81-7.594-10.292-14.066-18.081-13.661z" fill="#69a1ac"/><path d="m114.542 211.822c0 2.588 4.089 2.588 4.089 0 0-2.557-4.089-2.667-4.089 0z" fill="#69a1ac"/><path d="m123.117 210.687c0 2.608 4.121 2.608 4.121 0 0-2.578-4.121-2.689-4.121 0z" fill="#69a1ac"/><path d="m118.39 216.589c-2.661 2.656 6.687 7.313 8.891 3.618 1.811-3.036-2.132-2.029-3.529-2.193-1.519-.179-4.122-2.662-5.362-1.425z" fill="#69a1ac"/><path d="m193.125 210.74c-.257.108-.257.108 0 0zm-35.103-4.324c-2.694.505-11.536 3.488-11.655 6.684-.218 5.81 8.441-.141 10.321-.905 5.108-2.076 7.792 2.159 12.924 2.382 4.456.194 8.554-3.62 12.752-3.169 4.399.473 6.515 5.152 11.593 2.668 2.686-1.314 2.618-3.341-.397-3.532-1.823-.115-3.075.638-4.976-.146-2.972-1.226-4.168-3.222-7.725-2.905-2.683.24-5.109 1.752-7.728 2.338-5.999 1.34-9.326-4.499-15.109-3.415z" fill="#69a1ac"/><path d="m213.818 213.263c-.186.078-.186.078 0 0zm.679-2.419c.03.013.233.295 0 0zm-3.088-1.847c-.116.09-.116.09 0 0zm.067-.023c.599.359 5.414 3.651 1.917 4.427-1.776.393-3.245-3.179-1.917-4.427zm-1.594-3.647c-7.713 3.517.587 16.102 6.64 10.988 2.547-2.151 2.882-6.5.404-8.742-1.484-1.343-5.029-3.167-7.044-2.246z" fill="#69a1ac"/><g fill="#89c5cc"><path d="m137.477 254.921c-9.625.003-19.334-.199-28.945.371-1.618.096-7.78-.212-8.6133 1.479-1.5247 3.093 4.8153 1.558 5.7363 1.465 19.138-1.916 39.129-.813 58.33-.267 15.704.446 31.323.723 47.008 1.533 4.123.212 8.242.447 12.363.696 1.342.081 4.722.971 5.005-1.174.262-1.985-3.954-1.537-5.007-1.592-8.375-.441-16.744-.903-25.116-1.374-20.153-1.136-40.577-1.141-60.761-1.137z"/><path d="m99.6095 258.36c-1.7977 1.787-.955 8.611-1.0052 10.866-.0877 3.945-.2739 7.887-.3575 11.83-.0868 4.122.0339 8.263.2777 12.379.1021 1.728 1.5205 10.08 3.7535 5.3.998-2.136-.024-8.085-.009-10.505.028-4.404.265-8.79.484-13.189.189-3.781.196-7.566.361-11.348.052-1.206.195-9.044-3.5045-5.333z"/><path d="m229.98 293.595c-9.366.96-18.883.507-28.285 1.216-8.104.611-16.199.861-24.323 1.033-18.397.388-36.824.767-55.167 2.3-4.181.349-8.356.72-12.548.907-2.096.093-10.8922-.861-11.5473 1.349-1.1157 3.764 8.2913 2.274 10.3203 2.215 4.462-.128 8.902-.451 13.352-.79 18.703-1.425 37.478-1.851 56.221-2.443 10.194-.322 20.317-1.068 30.488-1.746 5.069-.338 10.153-.349 15.222-.677 1.326-.086 6.021.083 6.975-.984.656-.733.822-2.522-.708-2.38z"/><path d="m226.805 259c.321 8.983.829 17.958 1.132 26.94.092 2.701-.725 7.542.78 9.924 2.418 3.831 4.306-.223 4.749-2.61 1.398-7.533-.105-15.854-.496-23.434-.148-2.891.75-9.327-.648-11.915-1.331-2.465-5.636-2.218-5.517 1.095z"/><path d="m211.08 271.794c3.588.972 4.112 8.773.063 9.351-6.027.858-3.391-7.743-.063-9.351zm-1.006-3.103c-1.094-.034-3.621-.336-4.296.555-.564.746.006 2.319-.06 3.029-.237 2.538-2.301 4.004-1.378 7.001.626 2.034 2.303 3.945 4.347 4.651 10.785 3.728 10.654-17.111 1.387-15.236z"/><path d="m112.702 270.091c-.027.034-.054.068-.08.103.026-.035.053-.069.08-.103zm8.471-4.507c-.042-.361-.084-.722-.127-1.083 5.848 2.76 10.501 7.895 8.559 14.787-1.481 5.258-6.834 7.123-11.821 5.825-5.52-1.438-8.158-5.988-6.67-11.575.687-2.578 2.796-6.042 5.522-6.871 1.268-.386 4.075.598 4.537-1.083zm-3.419-2.183c-1.48.1-2.919.716-4.127 1.559 1.131-.956 2.637-1.525 4.127-1.559zm.042-3.396c-3.654.112-6.048 2.324-8.216 4.98-.68.834-2.98 3.045-2.695 4.168.225.889.814 2.187 2.055 1.197-6.498 12.95 10.288 23.996 20.535 14.99 9.564-8.404.076-25.729-11.679-25.335z"/><path d="m114.476 272.035c0 1.724 2.677 1.724 2.677 0 0-1.725-2.677-1.725-2.677 0z"/><path d="m119.044 272.329c0 1.752 2.721 1.752 2.721 0 0-1.753-2.721-1.753-2.721 0z"/><path d="m121.118 278.484c-1.273.103-5.931-.329-6.749.785-1.366 1.863.815 1.928 1.886 2.129.965.181 5.158.079 5.749-.778.523-.757.401-2.246-.886-2.136z"/><path d="m177.241 273.653c-.219.09-.219.09 0 0zm-17.601-1.287c-2.868.211-5.296 1.86-8.038 2.518-2.926.703-4.193-.589-6.854-1.435-2.768-.88-4.737-.532-6.962 1.358-1.26 1.071-4.026 3.537-3.238 5.44 1.804 4.355 5.888-2.731 7.809-3.061 2.996-.514 5.662 2.106 9.118 1.357 3.131-.679 5.909-2.829 9.179-2.852 2.735-.02 5.312 1.477 8.012 1.839 4.122.553 6.828-.911 10.638-1.997 3.304-.942 5.62.3 8.728 1.345 1.42.477 6.159 2.213 5.287-.935-.247-.889-6.492-2.479-7.46-2.785-3.414-1.078-5.576-.658-8.829.582-2.712 1.035-4.994 1.539-7.902.97-3.204-.628-6.118-2.6-9.488-2.344z"/></g></g><g opacity=".5"><path d="m291.575 128.012c.463-9.957 1.099-19.899 1.434-29.8616.167-4.9367.297-9.8739.423-14.8116.027-1.0995.056-2.1985.081-3.298.081-3.7352-.362-4.0408 3.397-4.3723 16.769-1.4802 33.605-1.9708 50.394-3.31 20.249-1.6152 40.603-2.7304 60.909-3.2303 9.023-.2226 18.085-.6835 27.11-.403 1.999.0622 5.924-.4581 6.712 1.0963.34.6714-.374 2.9821-.464 3.757-.283 2.4206-.547 4.8495-.71 7.2822-.96 14.3474-.388 29.0563 2.39 43.1863-6.517-3.675-14.751-6.836-22.347-6.209-7.744.64-13.537 5.114-19.736 9.233-3.506 2.329-4.687 2.941-8.185.685-3.015-1.945-5.867-4.168-8.711-6.351-4.389-3.368-8.531-7.019-12.787-10.55-7.825-6.492-18.607-15.7327-29.415-13.0121-7.722 1.9439-14.852 6.1881-21.554 10.3411-9.958 6.171-18.971 13.728-28.941 19.828zm134.204-63.7083c-38.473 0-76.658 3.7297-115.023 5.7473-4.007.2105-8 .5208-11.992.9061-2.661.2569-9.168-.8217-10.912 1.4519-1.164 1.5168-.164 1.7445 0 3.1857.206 1.8164.084 3.9685.031 5.8911-.128 4.6325-.263 9.2646-.368 13.8976-.397 17.5096-.646 35.0166.063 52.5216.155 3.818 1.546 9.104.785 12.814-.551 2.686-2.393 4.32 1.855 4.816 4.18.489 9.291-.754 13.475-1.151 4.208-.401 8.415-.836 12.628-1.183 18.317-1.509 36.812-1.281 55.178-1.783 18.53-.506 37.068-.538 55.605-.549 7.756-.004 16.619.432 24.187-1.702 2.662-.752 3.093-1.122 2.436-3.763-.124-.502-.928-.687-1.164-1.593-.321-1.233-.156-2.732-.231-4.015-.245-4.192-.331-8.392-.528-12.586-.33-7.009-1.538-13.811-2.432-20.749-1.031-8.012-.978-16.148-.999-24.2128-.012-4.4735.103-8.9321.462-13.3931.231-2.8611 1.64-7.1329.925-9.8011-.356-1.3285-.938-2.3821-2.321-2.9539-.876-.3626-1.613-.0788-2.479-.1706-1.027-.109-1.668-.2532-2.898-.5319-5.273-1.195-10.911-1.0939-16.283-1.0939z" fill="#69a1ac"/><g fill="#89c5cc"><path d="m404.487 83.3524c-.003 2.7884-.438 6.9029.848 9.5285 1.63 3.3304 3.67 2.2894 4.21-.8403.31-1.7932.302-7.0999-.274-8.6882-.815-2.2481-4.784-3.7793-4.784 0z"/><path d="m409.165 84.4291c-2.617.0923-10.241-.5361-12.012 1.5687-3.038 3.6101 2.251 4.2496 4.521 4.0474 2.628-.2337 10.749.3366 12.509-1.7705 2.944-3.5252-2.959-3.9207-5.018-3.8456z"/><path d="m307.583 177.579c11.508 1.999 7.928 19.546-2.962 15.482-3.794-1.417-9.385-5.509-7.287-10.33 1.566-3.602 6.672-5.495 10.249-5.152zm-4.765-5.455c-7.484 1.26-12.601 9.359-10.035 16.424 2.476 6.815 11.865 11.806 18.79 9.357 6.61-2.339 9.908-11.134 7.679-17.568-2.328-6.722-9.914-9.311-16.434-8.213z"/><path d="m372.816 179.632c-2.865.238-5.341 2.244-8.224 2.599-2.696.332-4.93-.591-7.454-1.328-3.051-.891-5.849-1.282-8.967-.491-2.382.605-4.732 2.226-7.207 2.422-4.87.384-10.53-5.172-14.332 1.113-1.823 3.012.824 4.953 3.55 3.548 2.842-1.465 1.447-1.989 4.973-1.124 2.941.721 5.319 1.113 8.265.102 2.669-.915 5.012-2.59 7.913-2.779 2.841-.184 5.312 1.11 8.027 1.668 3.339.687 6.293.167 9.457-.879 3.009-.996 4.21-1.54 7.247-.652 1.922.562 6.123 2.349 7.994.909 3.236-2.489-1.096-2.853-2.802-3.207-2.747-.569-5.589-2.135-8.44-1.901z"/><path d="m438.384 177.959c.023.018.046.036.068.053-.022-.017-.046-.035-.068-.053zm-2.813-.588c4.183.269 8.706 7.889 3.164 8.16-3.901.19-8.266-6.482-3.164-8.16zm-.587-6.235c-13.226 3.693-7.18 22.341 5.578 20.187 5.795-.979 7.759-7.692 5.843-12.662-.823-2.134-2.427-3.934-4.344-5.162-1.414-.907-5.46-2.813-7.077-2.363z"/></g><path d="m373.276 210.065c11.639-.399 23.279-.799 34.93-.907 6.314-.058 12.594.052 18.899.414 2.796.16 5.591.315 8.389.433.483.021 1.15-.012 1.886-.048 1.732-.085 3.847-.189 4.842.337 5.566 2.944-5.774 3.267-7.152 3.244-3.087-.052-6.171-.204-9.255-.357-2.695-.133-5.39-.266-8.088-.333-17.307-.425-34.72.353-52.056 1.127-3.974.177-7.944.355-11.908.517-4.209.173-8.416.285-12.624.397-6.014.159-12.028.319-18.042.657-2.297.129-4.593.266-6.889.402-3.289.196-6.578.392-9.869.565-2.576.136-5.153.268-7.733.333-.464.011-1.069.076-1.73.146-1.599.171-3.523.376-4.563-.049-1.25-.511-2.262-1.226-1.574-2.741.581-1.282 2.694-1.128 4.235-1.016.421.031.799.058 1.091.052 4.924-.095 9.837-.372 14.752-.672 1.798-.111 3.595-.224 5.392-.337h.001c9.357-.588 18.705-1.176 28.085-1.336 9.664-.165 19.322-.496 28.981-.828zm60.789 76.603 3.346-.04c1.728.15 2.501 1.964 1.391 3.358-.849 1.068-4.118 1.116-6.249 1.148-.591.008-1.094.016-1.434.043-5.563.447-11.115.648-16.695.702-11.75.112-23.456.615-35.187 1.284-12.008.685-24.026.942-36.045 1.2h-.001c-8.842.189-17.685.379-26.524.738-5.062.206-10.125.36-15.189.493-.544.014-1.268.092-2.087.18-3.199.346-7.847.848-8.9-1.693-.935-2.254.364-3.292 2.264-3.764-.3-1.335-.244-3.211-.213-4.286.01-.323.017-.574.012-.715-.047-1.348-.081-2.696-.114-4.044-.038-1.527-.075-3.054-.134-4.581-.054-1.385-.103-2.772-.153-4.16-.196-5.472-.392-10.958-.814-16.408-.194-2.516-.502-5.002-.81-7.484-.491-3.963-.982-7.916-1.004-11.961-.004-.728-.041-1.638-.082-2.665-.21-5.252-.542-13.556 2.718-16.085 5.749-3.354 4.612 6.328 4.105 10.649-.083.714-.15 1.281-.166 1.62-.33 7.186.118 14.055.841 21.195.489 4.822.203 9.628-.082 14.442-.102 1.719-.204 3.44-.271 5.162-.033.852-.063 1.704-.092 2.556-.091 2.62-.181 5.239-.378 7.857-.022.283-.029.826-.038 1.52-.026 1.958-.067 5.115-.486 7.032.892-.039 1.757-.029 2.473-.021.455.005.85.009 1.152 0 1.372-.042 2.745-.082 4.117-.122 4.054-.119 8.108-.238 12.161-.39 9.568-.36 19.139-.48 28.71-.6 11.304-.142 22.609-.284 33.908-.821 18.622-.885 37.308-1.112 55.95-1.339zm3.454-70.248c-.01 12.309.942 24.28 2.054 36.54.688 7.583 1.239 15.195 1.678 22.797.02.352.017.939.013 1.675v.001c-.022 4.204-.07 13.262 4.085 11.095 3.137-1.636 1.931-11.123 1.264-16.373-.146-1.151-.267-2.099-.31-2.715-.091-1.313-.181-2.625-.271-3.938-.418-6.094-.835-12.184-1.385-18.271l-.116-1.284c-.636-7.03-1.272-14.056-1.385-21.12-.009-.584.047-1.397.11-2.316.184-2.66.429-6.201-.676-7.613-1.554-1.987-5.058-1.4-5.061 1.522z" fill="#69a1ac"/><path d="m373.808 246.595c14.867-6.726 29.906-13.53 45.366-18.375 1.117-.35 1.824.802 1.57 1.769-.261.996-2.68 1.846-4.284 2.41-.479.169-.886.312-1.141.425-2.159.965-4.324 1.917-6.489 2.87-2.217.975-4.434 1.951-6.645 2.939-4.598 2.054-9.2 4.1-13.802 6.145-4.929 2.19-9.857 4.38-14.78 6.582-.187.083-.373.167-.56.25 6.694 2.379 13.35 4.864 19.977 7.425 2.265.874 4.522 1.768 6.779 2.661 1.277.505 2.554 1.01 3.832 1.512.416.163 1.141.385 2.012.651 2.838.866 7.228 2.207 7.553 3.561.528 2.206-5.533.072-7.82-.733-.304-.107-.541-.19-.687-.237-3.374-1.079-6.709-2.28-10.041-3.482l-.461-.166c-2.642-.951-5.279-1.913-7.916-2.875-5.152-1.878-10.303-3.757-15.482-5.559-.733-.255-1.466-.509-2.199-.762-8.312 3.734-16.608 7.503-24.876 11.332-4.434 2.054-8.843 4.155-13.241 6.284-.96.465-2.148 1.183-3.439 1.964-3.095 1.87-6.779 4.096-9.313 4.041-1.359-.03-2.275-.321-2.417-1.968-.146-1.7 2.035-2.591 3.603-3.232.375-.154.715-.293.98-.425 4.7-2.351 9.43-4.642 14.172-6.904 9.42-4.493 18.928-8.807 28.47-13.035.055-.024.11-.048.164-.073-5.291-1.791-10.598-3.539-15.916-5.25-.531-.171-1.62-.473-3.051-.869-6.761-1.872-21.163-5.861-20.522-8.191.735-2.665 14.238 2.206 20.216 4.363 1.12.404 1.976.713 2.434.859 7.147 2.277 14.274 4.619 21.364 7.068 2.193-.986 4.39-1.979 6.59-2.975z" fill="#89c5cc"/><path d="m310.107 305.133c4.352.763 7.422 4.938 6.944 9.31-.645 5.906-6.532 8.614-11.971 7.843-6.171-.875-7.469-6.092-4.479-11.11.662-1.111 1.423-2.441 2.626-3.026.828-.402 1.882-.046 2.548-.371 2.335-1.136.931-2.947 4.332-2.646zm-1.981-3.858c-5.31.678-15.122 6.823-14.625 12.971.431.713 1.079 1.004 1.944.875-.208 1.332-.14 2.649.204 3.953.504 1.692 1.51 3.079 2.859 4.181 2.777 2.269 6.573 2.826 10.031 2.428 6.456-.742 11.545-5.155 11.908-11.871.354-6.555-5.368-13.415-12.321-12.537z" fill="#89c5cc"/><path d="m333.845 309.275c-2.382 1.262-6.151 3.202-7.548 5.6-1.477 2.533.052 5.304 3.162 4.106 2.469-.951 4.039-3.973 6.672-4.942 2.325-.855 3.261-.419 5.717.432 2.531.877 4.744 1.725 7.48 1.51 3.439-.271 6.417-2.265 9.783-2.718 2.834-.382 5.171.72 7.885 1.159 3.149.509 5.207-.683 8.154-1.304 2.004-.422 5.536 1.296 6.997.653 3.287-1.445-.19-3.211-2.009-3.795-3.065-.983-4.951-.116-7.866.7-3.165.885-4.533.219-7.558-.593-6.121-1.645-10.85 2.332-16.652 1.609-5.372-.67-8.586-5.399-14.217-2.417z" fill="#89c5cc"/><path d="m433.935 306.336c5.892 5.524-.727 13.383-7.224 8.969-2.286-1.554-2.322-4.05-.543-6.283 1.628-2.042 5.203-2.838 7.767-2.686zm-2.184-4.464c-5.504 1.071-10.697 3.597-11.195 9.95-.487 6.199 5.872 9.077 11.213 8.671 11.991-.913 11.124-20.774-.018-18.621z" fill="#89c5cc"/></g><path d="m562.139 96.0057c-4.403.0851-15.276 1.6866-16.892 6.8953-1.227 3.953 2.418 3.085 4.371 1.647 2.643-1.946 4.96-3.11 8.235-3.702 12.473-2.2561 24.458 5.835 36.812 6.858 4.68.388 10.327.64 14.795-.875 3.182-1.08 3.597-3.433-.034-3.791-3.085-.305-6.499.655-9.662.628-13.089-.112-24.724-7.9064-37.625-7.6603z" fill="#c1dee2" opacity=".5"/><g opacity=".5"><g fill="#89c5cc"><path d="m99.5087 343.362c-8.4242.094-16.8443.405-25.2518.937-7.9954.507-16.6704.122-24.5355 1.672-2.2333.44-5.2502 2.475-2.2806 4.714 2.0872 1.574 9.7238-.236 12.2163-.389 9.179-.565 18.3627-1.24 27.5547-1.565 8.7019-.308 17.4032-.416 26.1092-.503 1.33-.013 3.536-.439 4.86-.053 1.902.554 1.45.705 1.593 3.119.258 4.374.187 8.764.1 13.142-.084 4.237-.241 8.473-.225 12.712.01 3.024-.956 9.033.561 11.66 2.184 3.78 4.45-.326 4.613-2.838.313-4.805.173-9.668.174-14.479.001-4.515.033-9.031-.126-13.544-.115-3.26.351-8.951-1.405-11.915-1.789-3.019-6.096-2.368-9.238-2.512-4.902-.225-9.813-.209-14.7193-.158z"/><path d="m45.9094 348.81c.0092 8.485-.9723 16.912-1.2472 25.387-.1261 3.896-.382 8.174.6037 11.999.9949 3.862 4.155 4.699 4.519.387.7372-8.73.5564-17.783 1.1303-26.583.2026-3.108 1.5212-8.802.2903-11.711-1.084-2.563-5.3008-3.055-5.2961.521z"/><path d="m124.906 386.208c-14.63 1.936-29.9245 1.23-44.6588 1.535-7.0691.146-14.1367.155-21.2067.229-2.4674.025-8.7334-.913-10.868.474-3.398 2.208.2888 3.912 2.5384 3.961 13.9521.305 28.0596-.336 42.009-.794 6.2674-.206 12.5551-.306 18.8061-.839 3.848-.328 8.053-.646 11.79-1.68.796-.22 2.53-.175 2.708-1.261.11-.671-.089-1.767-1.118-1.625z"/><path d="m64.0698 398.54c-4.0661.024-16.319-1.865-18.003 2.1-2.2449 5.288 6.5127 4.054 8.868 3.993 5.3494-.137 10.6951-.152 16.0459-.149 5.2502.002 10.4999-.032 15.7492-.157 1.5207-.036 5.0606.595 5.9354-1.236.6649-1.392.1396-2.49-1.0867-3.227-2.9506-1.773-10.6159-.745-14.0704-.904-4.4727-.206-8.9602-.42-13.4384-.42z"/><path d="m113.537 399.519c-2.324.138-7.025-.82-9.106.244-2.366 1.209-1.533 3.101.51 3.933 1.415.576 7.218.274 8.596-.393 1.436-.696 3.06-3.972 0-3.784z"/><path d="m139.012 349.643c-2.481.681-1.729 14.771-1.793 17.004-.175 6.12-.863 13.817 1.171 19.711 1.296 3.757 3.787 3.247 3.363-.708-.373-3.472-1.012-6.904-1.289-10.398-.626-7.907-1.478-16.341-.886-24.255.251.46 2.606 4.725 3.16 4.407-.168.099-2.716-6.027-3.726-5.761z"/><path d="m166.93 344.453c-5.023.075-10.045.164-15.066.303-3.993.111-10.266-.545-13.927 1.135-4.36 1.999-2.292 6.454 1.803 6.548 3.623.084 7.486-.733 11.141-.858 9.873-.338 19.764-.41 29.641-.495 8.934-.077 18.247.876 27.102-.466 1.313 11.663-2.239 23.375-1.031 35.172.187 1.831.103 4.418 2.435 4.835 2.943.527 3.064-2.388 3.175-4.475.319-5.959.146-11.923.583-17.89.404-5.53 1.2-11.181.527-16.72-.827-6.815-4.093-6.269-9.866-6.552-12.193-.598-24.31-.716-36.517-.537z"/><path d="m150.097 385.866c-2.559.065-6.81-.724-8.45 1.73-1.706 2.554.319 4.781 2.799 5.305 2.937.62 6.766-.23 9.814-.239 3.174-.01 6.349.026 9.523.038 13.608.053 27.275.259 40.873-.303 1.899-.079 7.289.558 8.604-1.264 1.166-1.615.35-3.064-1.186-3.887-2.52-1.351-7.697-.837-10.5-.944-3.462-.132-6.928-.175-10.392-.229-13.671-.211-27.415-.545-41.085-.207z"/><path d="m161.609 397.67c-5.093.087-10.526-.136-15.568.636-4.434.679-4.979 4.965-.207 5.466 4.385.461 9.702-.4 14.109-.683 1.565-.101 3.386.042 4.136-1.688.783-1.808-.714-3.542-2.47-3.731z"/><path d="m200.108 398.12c-2.718.068-10.658-1.101-12.004 2.004-2.241 5.168 8.507 3.205 10.569 3.129 2.598-.096 12.726 1.422 12.729-2.715.002-4.057-8.805-2.479-11.294-2.418z"/></g><path d="m45.4701 423.804c.0065 9.403-.5786 18.893.2791 28.272.3547 3.879.2939 11.31 2.5407 14.598 1.5949 2.334 3.8069 2.171 4.6781-.632.5823-1.874-.3491-5.621-.453-7.626-.1001-1.923-.217-3.846-.306-5.77-.2286-4.958-.2105-9.907-.1423-14.867.0584-4.255 1.0826-9.884.1168-13.975-.9004-3.813-6.7134-4.705-6.7134 0z" fill="#69a1ac"/><path d="m139.966 415.532c-16.313.409-32.662.044-48.9608.851-8.038.398-16.0445 1.273-24.0422 2.144-3.9293.429-7.8563.871-11.7786 1.354-1.1837.146-11.0192.527-7.3199 4.267 1.6153 1.634 6.7556-.072 8.7896-.313 3.9381-.465 7.8841-.87 11.8277-1.287 7.5044-.794 15.0181-1.546 22.5545-1.963 17.7497-.984 35.5717-.689 53.3387-1.344 4.806-.177 9.598-.304 14.406-.115 1.262.05 10.539.521 6.511-2.905-1.904-1.621-9.085-.785-11.466-.834-4.619-.095-9.242.029-13.86.145z" fill="#69a1ac"/><path d="m162.205 431.373c-.081-4.344-.161-8.688-.359-13.029-.208-4.571 6.018-5.263 7.865-1.563 1.329 2.664 1.096 7.196.895 11.081-.081 1.565-.156 3.026-.121 4.216.079 2.728.28 5.55.483 8.408.512 7.194 1.04 14.625-.304 21.416-.654 3.3-3.438 5.034-5.291 3.236-.002.003-.005.007-.007.011-.697 1.027-2.867 1.025-4.464 1.023-.44 0-.837-.001-1.148.02-4.377.298-8.673.8-13.011 1.45-8.644 1.296-17.213 2.092-25.95 2.308-5.929.147-11.866.196-17.805.246-11.3712.094-22.7486.188-34.084.966-3.8218.263-7.5856.713-11.3447 1.432-.32.061-.6753.14-1.0536.225-2.7951.621-6.8415 1.521-7.118-2.385-.3286-4.636 9.7195-5.244 14.8903-5.556.7895-.048 1.4653-.089 1.9731-.136 15.7005-1.46 31.6474-1.234 47.4149-1.01.764.01 1.527.021 2.29.032 1.231.017 2.461.037 3.691.057 6.751.112 13.493.223 20.242-.19 3.071-.188 6.182-.285 9.3-.381 4.972-.154 9.96-.309 14.823-.836-.733-2.844-.861-6.2-.982-9.363-.047-1.232-.093-2.434-.173-3.566-.428-6.029-.54-12.07-.652-18.112z" fill="#69a1ac"/><path d="m175.408 421.693c-2.204.299-4.042 2.186-3.058 4.578 1.239 3.012 4.93 1.835 7.368 1.644 7.75-.607 15.842.606 23.499-.309 2.091-.25 5.124-1.389 3.247-4.199-1.411-2.111-6.553-1.741-8.739-1.943-7.475-.692-14.852-.507-22.317.229z" fill="#c1dee2"/><path d="m188.488 434.834c-3.006.202-10.002.043-11.269 3.463-2.272 6.135 6.627 3.973 9.337 3.624 3.147-.405 10.567.68 12.243-2.372 2.997-5.458-7.675-4.897-10.311-4.715z" fill="#c1dee2"/><path d="m180.759 448.298c-1.426 1.426-1.428 3.973 0 5.4 1.748 1.747 5.558 1.384 7.855 1.511 3.204.179 12.407 1.874 13.998-1.899 2.147-5.091-6.187-4.984-8.928-5.273-3.168-.333-10.299-2.366-12.925.261z" fill="#c1dee2"/><path d="m68.437 361.159c0 5.473 8.548 5.473 8.548 0 0-5.444-8.548-5.527-8.548 0z" fill="#89c5cc"/><path d="m84.6509 361.221c0 6.257 9.7363 6.244 9.7363 0 0-6.235-9.7363-6.299-9.7363 0z" fill="#89c5cc"/><path d="m74.8422 369.54c-4.7328 1.307-.3727 5.318 1.8249 6.234 3.4925 1.456 8.2592 2.53 11.7527.346 1.3899-.869 2.5184-2.023 1.4998-3.709-1.0854-1.796-2.5713-.997-4.2237-.832-2.0933.211-3.7851.178-5.8066-.493-1.5086-.501-3.4016-1.999-5.0471-1.546z" fill="#89c5cc"/><path d="m160.69 361.505c0 3.702 5.748 3.702 5.748 0s-5.748-3.702-5.748 0z" fill="#89c5cc"/><path d="m173.402 362.062c0 4.113 6.385 4.114 6.385 0 0-4.113-6.385-4.112-6.385 0z" fill="#89c5cc"/><path d="m172.929 370.988c-3.354.433-13.056 1.416-13.599 5.551-.837 6.379 9.793 1.216 12.219.715 3.09-.638 5.85-.471 8.935-.347 1.693.067 3.946.342 3.769-2.238-.291-4.237-8.392-4.056-11.324-3.681z" fill="#89c5cc"/><path d="m88.5916 429.815c-2.4313.648-5.6119 4.851-3.9391 7.424 2.7429 4.219 3.9525-2.259 5.1005-2.883 2.0886-1.134 3.7842 3.012 5.9669.837 3.4444-3.432-4.9599-5.959-7.1283-5.378z" fill="#69a1ac"/><path d="m116.45 426.696c-2.883.026-8.97 4.109-9.401 7.122-.256 1.792.931 3.512 2.862 3.536 2.629.032 3.464-3.386 5.743-4.101 2.458-.771 2.093 1.005 4.216 1.925 1.554.674 3.497.392 4.036-1.518 1.019-3.603-4.493-7.021-7.456-6.964z" fill="#69a1ac"/><path d="m94.3793 443.954c-4.6117 2.702 2.9766 8.495 5.6072 9.22 3.9715 1.093 11.9645-.948 12.9055-5.799.375-1.931-.833-3.68-2.964-3.334-1.754.285-2.879 2.486-4.504 3.274-2.194 1.063-4.144.991-6.0077-.61-1.5184-1.305-2.3317-4.329-5.037-2.751z" fill="#69a1ac"/><path d="m97.7222 483.885c-4.1204.879-8.3088.289-12.4491 1.116-4.2218.842-6.7449 2.437-10.6673.83-.1845-.078-.3686-.155-.5526-.233-3.0359-1.308-6.2178-1.695-9.3956.389-1.8805 1.233-7.5892 5.499-6.9012 8.102 1.4911 5.643 7.9147-3.206 9.5527-4.068 3.1235-1.645 5.2651.456 8.4808 1.049 3.8519.71 6.9513-1.325 10.5797-2.136 4.2437-.948 9.0177-1.278 13.3351-1.786 1.7053-.2 8.1663 1.149 8.7493-.974 1.002-3.646-9.1124-2.632-10.7318-2.289z" fill="#c1dee2"/><path d="m127.449 495.25c.27.204.054.04 0 0zm11.54-11.585c3.527-.358 14.813-2.878 17.13.767 1.51 2.374-.886 11.137-3.17 12.27-1.827.905-6.08-.096-8.084-.167-3.729-.131-7.465-.189-11.19-.422-1.249-.078-5.268.152-6.247-.954-1.156-1.305-1.105-8.264-1.377-9.99 3.243 1.05 9.547-1.16 12.938-1.504zm7.532-3.574c-4.517.196-9.034.536-13.518 1.141-2.499.338-5.032 1.236-7.34 1.662-.744.137-1.952-.244-2.864.197-2.667 1.288-.332 9.998.311 12.324.988 3.575 3.473 4.154 6.956 4.49 4.587.445 9.268.305 13.87.249 4.435-.055 10.416.928 12.905-3.522 1.609-2.878 3.334-9.579 1.959-12.786-1.809-4.22-8.564-3.911-12.279-3.755z" fill="#c1dee2"/><path d="m197.11 497.644c-.241.31-.241.31 0 0zm.99-1.194c-.074.114-.421.48 0 0zm-10.773-.327c1.991-.375 3.983-.746 5.977-1.11-1.888 2.643-3.876 1.551-7.101 1.321.375-.071.749-.141 1.124-.211zm-9.501-.936c.505-.169 1.009-.337 1.514-.506-.015.384.067.744.248 1.079-.864-.093-1.728-.194-2.59-.3.276-.091.552-.182.828-.273zm-4.403-3.251c-.028-.693 1.015-.217 1.612-.264-1.152 1.014-1.689 1.103-1.612.264zm15.746-7.864c.151-.194.352-.184.602.029-.273.092-1.323.537-.602-.029zm10.211-1.201c.027 0 .593.765 0 0zm-.287-.251c.149.114.149.114 0 0zm-1.274-.148c2.088.352 1.929 2.802 0 0zm-24.529-.168c-.424.353-.279.011 0 0zm7.985-5.216c-3.545.206-10.051-.001-13.011 1.887-3.863 2.465-1.831 10.951-1.485 14.671.511 5.498 3.098 7.064 8.276 7.641 6.18.689 12.53.817 18.741.654 5.595-.147 8.781-2.071 9.805-7.961.314-1.802 1.111-4.59 1.086-6.317-.017-1.197-.614-1.743-.84-2.761-1.285-5.797-3.433-6.484-9.375-6.737-4.373-.186-8.907-1.302-13.197-1.077z" fill="#89c5cc"/></g><g opacity=".5"><g fill="#89c5cc"><path d="m369.032 343.913c9.012.192 19.236 5.18 17.811 15.746-1.044 7.74-7.745 14.024-15.507 14.565-8.342.582-17.162-5.82-18.295-14.314-1.275-9.553 7.179-16.188 15.991-15.997zm-4.419-4.301c-3.654.545-7.145 2.464-10.362 4.182-1.228.657-7.453 4.658-2.57 5.652-11.765 18.973 15.922 36.597 31.489 24.266 6.991-5.538 10.671-16.037 6.152-24.255-4.673-8.5-15.756-11.19-24.709-9.845z"/><path d="m362.459 355.762c0 3.544 5.501 3.544 5.501 0s-5.501-3.544-5.501 0z"/><path d="m372.658 356.329c0 3.842 5.963 3.842 5.963 0 0-3.841-5.963-3.841-5.963 0z"/><path d="m365.775 363.927c-.802 2.915 8.348 4.41 8.653 1.037.145-1.612-8.095-3.07-8.653-1.037z"/><path d="m392.6 362.126c10.529-1.263 21.385-.68 31.965-.377 2.648.077 5.296.151 7.944.195 1.684.028 5.32.836 6.789.048 6.017-3.226-5.786-4.787-7.458-4.935-10.524-.866-26.765-1.175-37.32-.766-3.122.121-3.796 6.06-1.92 5.835z"/></g><path d="m439.98 414.469c.091-11.032.486-22.139 1.334-33.138.345-4.484.76-8.961 1.103-13.445.162-2.111.912-5.069-.329-6.922-1.279-1.909-4.085-2.306-5.776-.614-2.024 2.62-1.436 7.017-1.687 10.187-.387 4.873-.855 9.743-1.087 14.627-.449 9.452-.555 19.069.205 28.509.359 4.454 1.136 8.8 2.171 13.144.471 1.978 4.219 10.786 3.431 12.001-1.221 1.884-10.246 1.172-12.204 1.224-5.023.135-10.049.223-15.074.319-4.302.082-8.604.141-12.907.179-1.708.015-11.746-.289-9.519 2.244-24.899 1.735-50.275-1.162-75.022-2.155-1.25-.051-3.296-.406-5.184-.508-.226-.911-.412-1.726-.458-2.293-.325-3.977-.41-7.968-.762-11.944-.646-7.275-1.897-14.477-2.641-21.74-.743-7.255-.668-14.532-1.1-21.805-.074-1.246-.25-11.454-2.826-13.935 1.222.463 3.191.524 4.325.432 9.18-.74 18.294-2.336 27.395-3.705 2.604-.391 8.513-.114 10.673-1.415 1.869-1.127 2.609-5.078-.643-4.758-9.075.972-18.102 2.481-27.106 3.966-2.409.397-4.811.822-7.213 1.256-1.604.29-5.838.268-7.082 1.235-1.511 1.174-1.671 1.973-1.159 2.504-.712-.196-1.565.112-2.59 1.137-1.937 2.522-.116 8.733.115 11.69.278 3.547.414 7.099.576 10.653.312 6.876 1.031 13.657 2.138 20.451 1.24 7.61 2.294 15.252 3.537 22.86.324 1.981.745 3.913 1.284 5.827-3.349 1.712-1.072 4.436 1.584 4.919.019.004.039.006.058.01.827 2.019 1.985 3.889 2.89 1.184.069-.208.101-.463.109-.75 6.86.776 14.399.294 21.152.57 14.628.598 29.346 1.495 43.989 1.04 5.797-.18 11.611-.695 17.36-1.468 3.367-.453 6.748-.994 10.062-1.745.237-.054.598-.11 1.015-.179.068-.002.137-.003.202-.004 5.074-.077 10.144-.213 15.214-.424 4.256-.177 8.531-.268 12.773-.669 2.635-.249 8.204-.203 9.822-2.853 1.471-2.409-.989-8.616-1.338-11.322-.614-4.766-.849-9.576-.81-14.377z" fill="#c1dee2"/><path d="m388.556 382.614c-4.055.347-7.804 2.251-11.896 2.275-3.435.019-6.816-1.007-10.27-.855-4.051.176-6.28 2.796-9.828 3.673-2.825.697-4.605-1.466-7.09-2.422-3.137-1.208-5.455-.584-8.144 1.243-1.976 1.342-6.584 4.355-6.548 7.071.106 8.226 9.703-3.137 11.637-3.275 2.571-.183 5.443 2.747 8.178 2.914 3.616.222 5.934-2.11 9.264-2.959 3.367-.859 7.007.193 10.383.52 3.851.372 7.222-.486 10.948-1.405 3.611-.891 6.688-.844 10.357-.096 2.476.505 8.646 3.441 9.729-.334 1.475-5.141-13.886-6.591-16.72-6.35z" fill="#89c5cc"/><path d="m389.79 398.302c-8.308.807-16.667 1.514-25.013 1.74-3.615.099-17.511-1.451-16.279 3.143 1.057 3.938 19.967 1.458 23.819 1.158 4.252-.33 8.498-.792 12.729-1.327 1.499-.19 5.12.006 6.179-1.251 1.008-1.2.511-3.657-1.435-3.463z" fill="#89c5cc"/><path d="m332.476 419.221c-.19.08-.19.08 0 0zm1.752-.024c2.071-.065 1.627-1.157 3.694-.588.953.262 1.05-.127 1.789.784 1.442 1.777.084 5.646-1.337 7.078-5.261 5.302-11.575-7.038-4.146-7.274zm0-5.202c-14.403.484-8.377 22.733 4.159 18.191 5.177-1.875 8.431-10.325 5.386-15.074-1.481-2.31-3.37-2.721-5.851-2.881-.577-.037-1.301.8-1.661.762-.855-.09-.775-1.045-2.033-.998z" fill="#89c5cc"/><path d="m368.671 419.983c-.257-.079 4.548 1.318 4.022.771 1.122 1.167-.386 3.926-1.655 4.407-3.073 1.167-4.798-3.612-2.367-5.178zm2.132-6.033c-4.51.639-7.99 2.518-8.607 7.532-.568 4.629 2.559 9.317 7.493 9.407 10.753.197 11.08-18.329 1.114-16.939z" fill="#89c5cc"/><path d="m419.893 420.186c.63 8.22-7.894.696 0 0zm-3.658-8.794c-.745 1.274-.11 2.626 1.015 3.367-10.054 2.125-7.777 17.254 2.454 15.019 5.203-1.137 6.16-6.607 5.384-11.125-.369-2.148-5.722-12.615-8.853-7.261z" fill="#89c5cc"/></g><path d="m440.021 419.286c-2.997.533-10.082 3.843-10.021 7.398.096 5.55 6.118-.512 7.458-1.327 7.195-4.379 16.515 1.295 24.008 2.503 3.435.553 10.155 1.576 13.189-.726 5.396-4.094-7.083-3.069-8.673-3.234-8.638-.892-17.232-6.173-25.961-4.614z" fill="#c1dee2" opacity=".5"/><g opacity=".5"><path d="m581.586 380.268c-.003 5.678-.29 11.474.757 17.084.316 1.699.566 4.952 2.358 5.833 1.8.885 3.545-.109 3.992-1.954.522-2.146-.623-5.359-.738-7.612-.16-3.079-.17-6.161-.172-9.243-.001-2.226.732-5.807-1.896-6.952-1.954-.852-4.301.732-4.301 2.844z" fill="#c1dee2"/><path d="m671.353 371.287c-18.813 1.889-37.896 2.281-56.777 3.266-8.728.455-19.275-.126-27.498 3.252-1.526.628-6.995 4.12-2.555 5.542 1.384.443 2.789-1.048 3.925-1.547 1.893-.831 4.084-1.088 6.102-1.413 17.156-2.755 35.101-2.275 52.434-3.563 4.441-.33 8.884-.669 13.316-1.105 3.167-.312 9.822-2.594 12.744-1.427 4.993 1.995 4.876 14.955 4.975 19.412.051 2.305-2.186 10.579 2.261 9.74 3.56-.671 2.271-9.267 1.994-11.618-.728-6.164-1.97-21.446-10.921-20.539z" fill="#c1dee2"/><path d="m678.291 403.146c-16.341 1.475-33.058.027-49.467.608-8.6.304-17.192.789-25.794 1.073-3.72.123-7.444.128-11.166.155-1.78.012-9.881 1.091-4.87 4.62 2.219 1.563 9.291.304 11.837.274 3.825-.045 7.647-.204 11.469-.354 8.852-.346 17.699-.826 26.556-1.065 8.472-.23 16.949-.279 25.421-.508 4.215-.115 8.488-.244 12.666-.859.943-.139 4.005-.25 4.66-1.301.619-.994.184-2.788-1.312-2.643z" fill="#89c5cc"/><path d="m597.979 390.877c-.088.208-.088.208 0 0zm7.076-2.151c.258.109.258.109 0 0zm-.331-.06c3.813 3.887-2.051 8.527-5.623 4.734-3.792-4.027 3.168-4.721 5.623-4.734zm-4.045-5.88c-13.135 2.337-8.485 19.843 3.784 17.313 5.386-1.11 8.466-6.536 6.612-11.748-.724-2.037-2.303-4.272-4.501-4.913-1.096-.32-2.066.183-3.11.065-.996-.112-1.549-.94-2.785-.717z" fill="#c1dee2"/><path d="m650.95 387.713c-7.921.025-15.843.361-23.763.512-2.429.045-8.673-1.042-8.683 2.788-.01 4.092 6.945 2.581 9.259 2.526 7.856-.188 15.732-.532 23.556-1.28 1.976-.189 8.819.137 8.812-2.551-.008-2.848-7.585-1.995-9.181-1.995z" fill="#c1dee2"/><g fill="#89c5cc"><path d="m669.869 414.421c-19.591.526-39.151.709-58.726 1.712-7.321.375-14.633.654-21.965.654-1.413 0-4.256-.547-5.585.342-3.607 2.412.5 4.483 2.851 4.613 16.08.892 32.394-1.329 48.465-1.83 9.408-.293 18.819-.38 28.222-.859 2.565-.131 5.131-.282 7.692-.481 1.473-.114 5.368.199 6.558-.663 5.197-3.762-5.76-3.535-7.512-3.488z"/><path d="m579.986 424c-.185 5.079-.204 10.07.461 15.121.261 1.987.381 4.243 2.711 4.748 2.116.458 3.189-1.142 3.627-2.916 1.07-4.333.129-10.569.116-15.071-.006-2.225-.008-4.716-2.758-5.219-2.098-.384-4.077 1.132-4.157 3.337z"/><path d="m690.633 436.245c-31.711 1.671-63.381 3.13-95.116 4.471-2.475.105-21.701-.104-14.979 6.6 2.076 2.071 7.425.668 10.109.537 4.035-.198 8.072-.35 12.106-.555 15.997-.815 32.035-1.034 48.02-1.948 8.797-.503 17.573-1.29 26.324-2.314 4.162-.487 9.329-.437 13.227-2.068 2.005-.839 4.17-4.928.309-4.723z"/><path d="m672.4 410.48c-2.412 2.401-1.172 7.14-.99 10.109.25 4.085.554 8.173 1.064 12.236.332 2.639.156 6.746 1.564 9.026 1.649 2.67 5.279 2.374 6.77-.205 1.319-2.281.651-7.08.617-9.608-.047-3.496-.265-6.997-.472-10.486-.174-2.915.487-7.588-1.117-10.083-1.63-2.536-5.176-3.237-7.436-.989z"/><path d="m599.917 429.119c-.283.218-.283.218 0 0zm5.632-.706c5.256 1.057-3.242 7.193-5.928 2.982-.419-.658-.638-1.467.036-2.039.614-.522 1 .402 1.581.154 1-.428 3.244-1.137 4.311-1.097zm-.725-5.038c-3.588.284-8.521.506-10.297 4.103-2.386 4.831 1.694 9.562 6.415 10.297 4.543.708 11.325-1.808 11.689-7.106.293-4.272-3.77-7.621-7.807-7.294z"/><path d="m634.781 425.93c-3.715.06-11.016-1.038-14.252.772-3.202 1.792-1.774 4.982 1.147 5.745 1.931.504 5.087-.309 7.097-.391 2.645-.108 5.291-.131 7.937-.168 4.451-.059 8.899-.009 13.35-.009 4.545 0 9.168.124 13.706-.21 5.742-.422 5.587-4.722-.028-5.259-9.539-.913-19.388-.63-28.957-.48z"/><path d="m625.292 474.08c0 2.042 1.813 0 1.8 0 .013 0-1.8-2.043-1.8 0z"/><path d="m584.297 457.637c.117 5.937.193 11.88.447 17.813.08 1.876-.457 5.539 1.817 6.495 2.531 1.065 3.318-1.589 3.609-3.387.924-5.696.019-12.2-.07-17.964-.03-1.935.389-4.629-1.809-5.594-1.793-.788-4.03.674-3.994 2.637z"/><path d="m681.935 457.73c.15.354.15.354 0 0zm.212-.06c.121.05.613.257 0 0zm-47.964-4.799c-9.115.143-18.235.251-27.344.641-3.888.167-7.82.301-11.694.668-2.744.26-9.561.367-11.341 2.61-3.672 4.629 4.116 3.366 5.794 2.99 3.052-.684 6.169-.903 9.288-1.068 6.767-.357 13.537-.548 20.313-.684 18.374-.37 36.762-.314 55.141-.396 1.779-.008 4.995-.724 6.638-.004 1.646.721 1.553 2.495 1.724 4.554.228 2.74-1.579 7.961-.202 10.266 2.136 3.575 5.242.539 5.717-2.067.655-3.601-.384-7.925-1.402-11.368-1.436-4.856-3.43-5.049-8.128-5.429-5.488-.443-10.957-.712-16.463-.763-9.345-.086-18.697-.095-28.041.05z"/><path d="m670.233 477.414c-19.769 2.296-40.101.943-59.976 1.024-4.833.02-9.671.059-14.499.293-2.55.123-8.596-.58-10.343 1.388-3.683 4.147 2.951 4.75 5.373 4.579 4.897-.348 9.806-.507 14.715-.545 17.293-.134 34.683.673 51.962-.18 7.239-.358 14.316-1.596 21.421-2.98 1.574-.306 12.349-2.355 6.205-4.81-3.632-1.451-11.043.786-14.858 1.231z"/><path d="m612.512 469.822c-.138.177-.138.177 0 0zm-.133-.031c-.047.127-.192.441 0 0zm-1.247-1.608c.029.037.147.188 0 0zm-.048-.012c.476.568.797 1.202.962 1.901-4.096 1.11-5.675-2.204-.962-1.901zm-.259-.155c.002.001.578.243 0 0zm-6.728-4.937c-2.651 3.301-4.84 7.149-1.535 10.919 2.956 3.372 8.901 3.807 12.652 1.556 3.863-2.319 3.529-7.202.834-10.389-1.735-2.052-3.141-1.995-5.659-2.33-1.714-.228-4.838-1.561-6.292.244z"/><path d="m631.5 469.189c0 4.396 18.981 2.504 22.358 2.499 2.829-.004 19.932 1.556 18.705-2.968-1.009-3.717-17.856-1.869-21.444-1.875-3.102-.004-19.619-2.133-19.619 2.344z"/></g></g><g fill="#89c5cc" opacity=".5"><path d="m383.7 510.376c9.506 1.38 19.394 5.851 19.311 16.916-.07 9.303-7.872 19.204-17.892 18.648-9.016-.499-17.507-10.36-18.636-18.81-.585-4.378.51-9.091 3.085-12.693 3.374-4.718 8.728-4.711 14.132-4.061zm-4.49-6.014c-6.876.037-11.906 2.524-16.161 7.774-1.526 1.882-3.301 3.908-4.463 6.041-1.085 1.992-.895 7.057 2.829 4.682-.917 9.806 4.814 19.323 13.052 24.347 8.955 5.463 19.077 4.398 26.53-3.258 6.822-7.008 9.223-18.845 4.232-27.512-4.988-8.662-16.546-12.167-26.019-12.074z"/><path d="m399.826 501.734c-4.402 3.226-8.421 7.474-11.759 11.783-3.263 4.211-5.42 9.47-9.34 13.143-1.979-2.156-4.298-7.979-8.247-5.669-3.277 1.917-1.167 5.214.429 7.378 4.121 5.589 8.697 7.839 13.982 2.316 4.8-5.015 7.526-11.705 12.014-17.008 1.968-2.328 5.01-4.637 6.577-7.207 1.421-2.329-.336-7.176-3.656-4.736z"/></g><g opacity=".5"><path d="m566.175 151.878c.007.44.013.853.022 1.234.206 8.304.087 17.034-.588 25.319-.233 2.861-2.314 6.486-4.688 2.543-1.044-1.734-.897-5.294-.79-7.913.029-.703.055-1.337.055-1.851-.002-2.922.151-5.874.305-8.835.301-5.787.604-11.605-.253-17.289-.017-.115-.034-.225-.049-.332-.373-2.499-.398-2.672-3.147-2.615-1.146.024-2.292.055-3.437.086-1.127.03-2.254.06-3.381.084-1.12.024-2.239.045-3.358.067-3.51.067-7.02.135-10.529.263-.585.022-1.678.159-3.056.332-2.757.345-6.657.835-9.939.832.001.014.002.028.003.042.002.025.004.051.004.077.037 1.812-.43 3.834-.899 5.866-.392 1.702-.786 3.41-.887 5.007-.241 3.799-.244 7.638-.246 11.478-.004 4.675-.007 9.35-.44 13.952-.021.225-.034.462-.047.702-.001.032-.003.064-.005.096.149-.023.293-.039.432-.048 2.366-.15 4.751-.163 7.133-.177 1.314-.007 2.626-.014 3.933-.045 2.348-.054 4.725-.051 7.111-.049 5.267.006 10.581.012 15.733-.595 1.522-.198 2.054 1.754 1.371 2.766-.611.906-2.294 1.053-3.526 1.16-.313.027-.597.052-.827.086-3.323.492-6.69.664-10.043.813-3.521.156-7.046.272-10.569.37-.839.024-1.958.137-3.199.262-3.277.331-7.402.748-9.449-.178-2.201-.996-2.149-2.101-1.251-2.957-.394-.867-.456-2.132-.505-3.122-.018-.378-.035-.716-.067-.976-.488-3.941-.783-7.832-.79-11.807-.014-7.786.002-15.873 2.156-23.41-.863-.378-1.383-.935-1.381-1.737.01-4.044 12.595-3.838 18.578-3.74 1.07.017 1.928.031 2.466.017 4.358-.114 8.717-.129 13.076-.105.921.005 1.946-.056 3.008-.118 2.259-.133 4.686-.275 6.637.178 5.126 1.19 5.249 9.354 5.323 14.267z" fill="#89c5cc"/><path d="m598.235 138.497c4.758-.252 9.521-.309 14.286-.327 5.045-.025 10.097.065 15.14.22l.117.004c2.234.067 14.654.44 8.948 3.535-.333.181-.707.331-1.116.457.242 1.433.271 2.912.232 3.625-.147 2.703-.244 5.41-.342 8.116-.065 1.834-.131 3.668-.213 5.501-.224 5.064-.438 10.129-.613 15.196-.021.622.012 1.435.049 2.342.121 2.997.283 7.014-1.344 8.499-1.429 1.303-2.405 1.042-3.063.157-4.088 1.187-12.484.801-16.706.607-1.017-.047-1.792-.083-2.206-.083-.74.001-2.115.093-3.852.21-7.229.485-20.723 1.392-20.751-2.172-.002-.343.109-.65.319-.926-.573-.584-1.088-1.442-1.419-2.513-1.188-3.844-1.3-7.991-1.388-11.977-.125-5.628-.126-11.263-.128-16.896 0-2.894-.001-5.787-.018-8.678-.773-1.038-.314-2.225.65-3.053 2.053-1.762 7.148-1.783 10.835-1.799.992-.004 1.881-.008 2.583-.045zm-7.744 43.398c4.587-.979 12.316-.664 16.456-.495 1.085.044 1.923.078 2.394.077 4.23-.017 8.46.042 12.686.211.438.017 1.086.001 1.85-.019 1.534-.038 3.535-.089 5.234.1-.023-.231-.039-.441-.048-.623-.19-3.762-.053-7.556.084-11.329.029-.802.058-1.603.084-2.402.091-2.821.211-5.64.332-8.46v-.002c.075-1.775.151-3.55.22-5.325.03-.779-.015-1.838-.065-3.028-.103-2.422-.228-5.392.206-7.674-1.565-.029-3.168-.14-4.639-.242-1.417-.098-2.71-.187-3.727-.188-1.29 0-2.58-.004-3.869-.008h-.001c-3.573-.011-7.145-.022-10.719.049-.339.007-.678.013-1.017.02-4.921.095-9.882.191-14.761.839-.286.038-.63.111-1.01.2.535 2.236.273 5.387.043 8.146-.111 1.34-.215 2.588-.216 3.594-.007 6.256.158 12.487.323 18.713.063 2.355.125 4.708.178 7.062.006.281 0 .542-.018.784z" fill="#89c5cc"/><path d="m538.284 185.123c-3.127 1.827-1.441 9.136-.357 11.663 1.781 4.157 5.395 7.409 9.295 9.566 7.882 4.36 19.244 3.202 25.205 10.762.062.078 2.122 2.118 2.591-.524.385-2.168-3.461-5.479-4.952-6.565-4.239-3.091-9.675-4.087-14.578-5.631-5.229-1.646-10.967-4.681-13.16-10.072-.776-1.909.704-11.986-4.044-9.199z" fill="#c1dee2"/><path d="m609.779 188.637c-2.866.79-.97 4.734-.975 6.708-.005 2.464-.793 5.042-2.311 7.008-3.85 4.985-11.389 5.732-17.041 7.162-4.104 1.038-13.923 3.265-14.307 8.816-.429 6.198 8.239-1.345 8.972-1.654 8.102-2.972 18.584-3.546 24.838-10.088 2.581-2.701 4.107-6.305 4.35-10.025.136-2.095.16-8.934-3.526-7.927z" fill="#c1dee2"/><path d="m550.561 243.616c-.067-11.468 10.908-18.405 20.832-21.015 11.929-3.143 23.04 5.215 24.447 17.239 1.484 12.689-8.08 22.904-20.692 23.464-11.094.492-24.516-7.451-24.587-19.688zm26.646-15.501c.645.877 1.227 2.277-.073 3.039-1.25.729-1.874-.147-2.503-1.029-.397-.557-.796-1.116-1.355-1.274-1.45-.408-3.781 1.117-4.988 2.006-.491.361-1.188 1.138-2.004 2.047-2.596 2.891-6.387 7.113-8.482 3.48-8.356 14.429 12.476 25.228 24.322 19.767 13.01-5.997 10.478-27.922-4.917-28.036z" fill="#89c5cc"/><path d="m566.289 239.777c0 2.632 4.157 2.632 4.157 0 0-2.603-4.157-2.714-4.157 0z" fill="#89c5cc"/><path d="m573.603 239.283c0 3.224 5.094 3.224 5.094 0 0-3.188-5.094-3.324-5.094 0z" fill="#89c5cc"/><path d="m568.369 246.796c-4.166 2.451 7.748 7.319 8.218 2.344.203-2.147-1.876-1.568-3.262-1.726-1.326-.151-3.698-1.35-4.956-.618z" fill="#89c5cc"/><path d="m566.562 264.181c.181 6.259.094 12.514 1.281 18.686.225 1.172.382 5.424 1.309 6.295 2.278 2.142 2.316-1.964 2.405-3.537.316-5.635-.276-11.446-.406-17.093-.029-1.216.293-3.733-.28-4.91-.911-1.868-4.398-2.422-4.309.559z" fill="#c1dee2"/><path d="m562.106 259.106c-9.133 10.251-21.71 9.496-34.38 10.394-6.695.474-13.464 1.448-18.85 5.778-2.506 2.015-4.666 4.538-6.118 7.413-.634 1.257-3.644 8.51.876 6.79 1.603-.611 3.181-5.407 4.218-6.826 1.975-2.702 4.502-4.933 7.533-6.383 5.847-2.797 12.829-2.749 19.169-3.104 6.627-.371 13.74-.718 19.832-3.6 2.866-1.355 5.554-3.046 7.86-5.225.825-.779 2.592-2.102 2.723-3.293.151-1.361-1.157-3.853-2.863-1.944z" fill="#c1dee2"/><g fill="#89c5cc"><path d="m516 290.569c-8.579.287-17.148.634-25.715 1.177-1.755.111-7.609-.244-6.118 3.354 1.195 2.883 8.334.976 10.695.836 8.927-.53 17.891-.714 26.8-1.517 2.001-.18 11.047-.109 7.311-3.655-1.777-1.688-10.518-.278-12.973-.195z"/><path d="m478.719 294.707c-2.704 3.552-1.461 12.184-1.257 16.454.198 4.137-.606 11.702 4.795 12.344-1.715-.225 1.302.104 1.793.13 1.096.059 2.198.078 3.296.09 2.537.028 5.075-.006 7.611-.057 5.745-.115 11.505-.282 17.243-.599 2.412-.134 15.496-.022 16.014-2.528.662-3.202-11.883-1.39-14.129-1.288-5.469.251-10.947.304-16.421.375-2.713.036-5.429.063-8.142.01-1.121-.022-5.557.438-6.238-.31-.581-.636-.128-6.486-.14-7.381-.04-2.917-.037-5.841.067-8.756.07-1.963 1.131-5.698.266-7.542-.841-1.793-3.292-2.405-4.758-.942z"/><path d="m522.895 294.873c.156 6.498.205 13.126 1.74 19.481.51 2.114 1.226 6.475 3.35 7.57 2.23 1.149 4.155-.491 4.301-2.701.183-2.777-1.304-6.424-1.609-9.274-.356-3.325-.563-6.653-.685-9.995-.092-2.513.671-6.281-1.724-7.901-2.152-1.456-5.443.01-5.373 2.82z"/><path d="m539.968 293.287c-2.668 2.658-1.476 11.073-1.142 14.488.244 2.501 2.982 14.806 7.084 8.389 1.814-2.838-.491-10.343-.475-13.653.011-2.108.757-4.773.397-6.798-.476-2.676-3.444-4.843-5.864-2.426z"/><path d="m558.443 291.093c8.014-.827 16.038-1.447 24.096-1.524.387-.003.794-.008 1.217-.013 5.523-.07 13.823-.176 17.54 3.972 2.025 2.259 2.942 5.752 3.742 8.797.149.567.294 1.12.441 1.645.126.45.29.962.467 1.516.835 2.614 1.964 6.151.819 8.34-.628 1.201-1.639 2.225-3.174 1.8-.358-.1-.639-.227-.86-.377.588.636.849 1.543.467 2.429-.738 1.714-3.07 1.751-4.907 1.779-.445.007-.862.014-1.219.044-6.119.51-12.266.85-18.407.904-2.923.025-5.847.001-8.771-.022-3.01-.025-6.019-.05-9.029-.02-2.184.021-4.409.229-6.634.437-2.81.262-5.62.524-8.353.412-2.044-.084-4.227-.753-3.709-3.395.423-2.157 2.453-2.345 4.272-2.514.158-.014.315-.029.469-.045 5.792-.589 11.588-.798 17.41-.777 12.231.042 24.452-.021 36.683-.085.503.041.976.234 1.366.526-.44-.534-.432-1.246-.423-2.003.005-.343.009-.696-.028-1.045-.075-.703-.144-1.403-.212-2.102-.226-2.309-.451-4.601-.891-6.924-.067-.35-.131-.736-.198-1.144-.401-2.411-.931-5.606-2.848-6.908-1.928-1.309-5.708-1.246-8.654-1.197-.796.013-1.53.025-2.151.009-7.861-.203-15.768.356-23.593 1.067-.601.055-1.203.107-1.806.16-2.977.259-5.97.52-8.904 1.052-.537.098-1.357.384-2.298.713-2.504.873-5.86 2.044-7.001.754-3.778-4.273 12.826-6.028 15.081-6.261z"/></g><path d="m643.707 281.363c.349.448.349.448 0 0zm-54.234-26.476c-4.868 2.861 4.141 11.256 6.436 12.554 5.164 2.922 12.261 3.363 18.027 4.184 7.298 1.041 15.24 1.424 22.254 3.815 2.989 1.019 4.887 2.609 6.844 5.053.992 1.239 3.379 6.576 5.553 5.312 4.378-2.544-7.418-13.222-10.017-14.37-5.908-2.61-12.892-3.341-19.209-4.354-5.874-.943-11.875-1.644-17.604-3.306-3.15-.913-5.389-2.387-7.205-5.208-1.132-1.758-2.06-5.446-5.079-3.68z" fill="#c1dee2"/><path d="m664.091 287.681c-5.612.125-11.213.557-16.813.988-3.142.242-6.283.484-9.425.672-.983.059-1.967.112-2.951.165-2.769.149-5.541.298-8.296.577-.418.042-.903.082-1.432.125-2.34.192-5.53.454-7.569 1.308-1.869-1.414-4.754-.212-4.799 2.308-.077 4.59-.035 9.099.525 13.661.13 1.059.799 6.42 2.255 9.211-.518 2.636 1.729 3.374 3.82 3.576 8.1.782 16.593.175 24.972-.423 4.261-.305 8.493-.607 12.628-.724 1.375-.039 2.768-.054 4.169-.07 4.572-.051 9.232-.103 13.658-.968.178-.035.369-.069.569-.105 1.75-.313 4.163-.746 4.347-2.672.11-1.156-.542-2.214-1.633-2.363.075-.963-.046-2.014-.135-2.786-.021-.18-.04-.345-.054-.49-.266-2.678-.933-5.339-1.592-7.966-.148-.591-.295-1.18-.438-1.766-.158-.65-.304-1.423-.462-2.257-.556-2.942-1.256-6.64-3.115-8.357-1.951-1.8-5.126-1.721-7.67-1.657-.19.005-.377.01-.559.013zm9.875 25.554c-.665-1.742-.86-4.097-1.045-6.336-.116-1.405-.229-2.765-.451-3.897-.168-.851-.305-1.747-.444-2.658-.338-2.213-.689-4.512-1.52-6.451-1.112-2.597-2.102-2.498-4.444-2.263-.435.044-.918.092-1.456.129-2.387.162-4.772.368-7.156.575-1.144.099-2.288.198-3.432.292-4.896.402-9.795.712-14.694 1.021-2.862.181-5.725.362-8.587.561-2.246.156-4.439.583-6.622 1.008-1.729.337-3.453.673-5.193.872-.025.595-.075 1.193-.123 1.761-.065.775-.125 1.497-.112 2.088.057 2.622.288 5.227.52 7.837.036.401.071.802.106 1.204.042.481.146 1.099.261 1.785.177 1.061.382 2.283.427 3.409.212-.002.423-.001.63-.001.268.001.531.002.784-.002 6.168-.108 12.332-.295 18.497-.532.787-.03 1.574-.061 2.361-.091 5.5-.214 11-.428 16.505-.492 2.187-.025 4.402.044 6.625.113 2.859.088 5.729.177 8.563.068z" fill="#89c5cc"/></g><path d="m575.065 272.244c-6.476 3.903-12.839 5.789-15.825 5.019-7.49-1.93-8.178-29.328-2.383-40.129 5.794-10.801 35.585-15.509 37.086 5.891.521 7.428-2.597 14.056-7.205 19.465l8.262 38.51h-24z" fill="#feebd5"/><path d="m588.582 267.308c3.012-13.402 11.593-22.537 10.283-28.526-1.311-5.99-6.986-7.45-6.986-7.45s-2.936-11.875-18.935-10.102c-15.999 1.774-25.763 8.418-21.546 23.038 3.876 0 8.556-1.402 15.026 1 3.08 1.143 4.406 7.09 4.406 7.09h2.924s4.257-7.057 8.395-5.187c4.138 1.871 1.881 9.088 1.881 9.088l1.441 11.049z" fill="#ec9e28"/><path d="m599 392-36.631 126.227-17.229 94.773h-17.293l17.262-221z" fill="#feebd5"/><path d="m615.462 392c-2.555 65.574-1.547 101.34-.975 107.298s3.819 45.858 25.95 115.702h-17.987c-29.308-67.003-39.539-106.904-42.9-115.702-3.362-8.798-13.289-44.564-27.783-107.298z" fill="#feebd5"/><path d="m599.786 392c-9.528 43.435-26.008 112.768-49.439 208h-25.293c-1.868-97.746 6.079-162.08 19.841-208z" fill="#121772"/><path d="m615.59 392c-2.503 65.574 3.984 130.177 24.079 209.021h-26.986c-29.362-66.003-50.406-130.287-64.789-209.021z" fill="#1e2fad"/><path d="m643 628-.915-14.751c-.04-.64-.662-1.078-1.29-.945-8.667 1.842-20.621-2.304-20.621-2.304-12.031 8.522-29.375 12.433-35.482 13.604-1.182.227-1.94 1.419-1.612 2.576l1.367 4.82h35.727 20.841z" fill="#e4e4e4"/><path d="m549 628-.915-14.751c-.04-.64-.662-1.078-1.29-.945-8.667 1.842-20.621-2.304-20.621-2.304-12.031 8.522-29.375 12.433-35.482 13.604-1.182.227-1.94 1.419-1.612 2.576l1.367 4.82h35.727 20.841z" fill="#e4e4e4"/><path d="m511.652 302.69 34.71 19.01-12.818 13.758-25.221-23.093c-13.286-3.661-19.362-6.34-18.228-8.036.957-1.429 2.499-1.38 3.92-1.334 1.107.036 2.14.069 2.765-.601 1.426-1.531-1.295-6.884-4.095-11.852-2.799-4.969.194-4.537 1.906-3.822 5.602 3.792 11.289 9.116 17.061 15.97zm-34.899 26.674 15.247 8.376-.868 15.3s-9.875-7.127-18.371-9.496c-10.832-3.02-15.214-5.326-20.508-12.071-2.832-3.609-5.235-10.863-2.54-13.225 1.034-.907 4.887 1.234 8.819 3.419 2.996 1.665 6.038 3.355 7.911 3.741 2.523.519 2.228-2.751 1.992-5.363-.17-1.875-.308-3.412.647-2.968 4.462.077 7.671 12.287 7.671 12.287z" fill="#feebd5"/><path d="m563.266 317.465c-12.158-.128-28.37-2.696-45.668-13.676l-6.794 15.15c11.932 11.841 28.71 21.571 43.38 21.159 11.561-.325 17.469-14.309 9.082-22.633z" fill="#9b4c1f"/><path d="m596.056 421.259c11.558-1.507 22.178-2.892 28.471-1.653 7.062-22.933 1.198-37.372-4.215-50.701-3.262-8.034-6.361-15.664-6.367-24.508-.02-25.755-20.699-65.397-23.742-65.397h-.873-24.113-2.761c-1.24 15.937-6.535 33.193-11.863 50.56-1.244 4.055-2.491 8.117-3.688 12.169-20.165 4.578-64.941-11.356-64.941-11.356s-11.303 23.386-10.45 33.344c26.062 13.614 48.4 19.684 66.803 20.085-.585 10.919.744 21.31 5.209 30.804 5.983 12.721 30.898 9.473 52.53 6.653z" fill="#be5e28"/><path d="m225.935 280.244c6.476 3.903 12.839 5.789 15.825 5.019 7.49-1.93 8.178-29.328 2.383-40.129-5.794-10.801-35.585-15.509-37.086 5.891-.521 7.428 2.597 14.056 7.205 19.465l-8.262 38.51h24z" fill="#fad1ab"/><path d="m227.135 253.389c2.076-3.091 4.069-5.449 6.662-6.818 10.551.167 11.786-1.725 11.786-8.1-1.704-1.219-7.717-3.273-14.451-3.85-3.435-.983-7.505-.799-11.425.841-4.839 1.373-8.937 4.33-10.747 9.866-6.548 11.301-1.578 23.065 5.12 27.083 1.783-2.112 3.339-4.159 4.727-6.119-1.115-1.089-1.807-2.61-1.807-4.292 0-3.314 2.686-6 6-6 .243 0 .484.015.72.043.149 4.143.762 18.16 2.374 23.028 1.901 5.741 12.989 7.15 16.857 7.15 3.34 0 3.227-3.163 3.145-5.43-.012-.327-.023-.635-.023-.912 0-.579-.753-.577-1.604-.576-1.105.002-2.375.005-2.375-1.263 0-1.382 1.91-2.442 3.619-3.391 1.066-.592 2.054-1.14 2.452-1.697 1.253-1.754 1.676-4.121-.216-4.121-1.033 0-2.452.596-4.158 1.313-2.576 1.082-5.809 2.441-9.365 2.441-5.876 0-7.274-18.959-7.291-19.196z" fill="#191847"/><path d="m198 392 36.255 127.227 26.452 93.773h19.293l-28.109-221z" fill="#00382f"/><path d="m188.304 392c-.838 65.574-3.698 101.34-4.578 107.298-.881 5.958-14.194 43.858-39.94 113.702h19.986c32.777-67.003 51.073-104.904 54.89-113.702s15.596-44.564 33.338-107.298z" fill="#006755"/><path d="m142 628 .915-14.751c.04-.64.662-1.078 1.29-.945 8.667 1.842 20.621-2.304 20.621-2.304 12.031 8.522 29.375 12.433 35.482 13.604 1.182.227 1.94 1.419 1.612 2.576l-1.367 4.82h-35.727-20.841z" fill="#191847"/><path d="m258 628 .915-14.751c.04-.64.662-1.078 1.29-.945 8.667 1.842 20.621-2.304 20.621-2.304 12.031 8.522 29.375 12.433 35.482 13.604 1.182.227 1.94 1.419 1.612 2.576l-1.367 4.82h-35.727-20.841z" fill="#191847"/><path d="m321.36 277.962-37.904 11.379 9.678 16.122 29.471-17.345c13.757-.819 20.257-2.176 19.5-4.07-.638-1.597-2.157-1.869-3.557-2.12-1.09-.195-2.107-.378-2.579-1.163-1.076-1.794 2.698-6.464 6.47-10.742 3.771-4.278.753-4.478-1.07-4.134-6.268 2.544-12.938 6.569-20.009 12.073zm-9.355 101.63-31.898-23.424-7.051 17.431 31.587 13.099c8.934 10.494 13.929 14.868 14.987 13.124.891-1.471.194-2.848-.448-4.117-.5-.988-.966-1.91-.623-2.759.785-1.94 6.786-1.736 12.472-1.298 5.687.437 4.03-2.093 2.658-3.343-5.804-3.474-13.032-6.379-21.684-8.713z" fill="#fad1ab"/><path d="m230.561 293.087c17.371 32.389 42.489 57.218 78.905 83.029l-13.789 15.547c-40.659-15.11-62.118-24.227-72.656-54.828-2.645-7.681-4.493-32.164-6.079-45.046z" fill="#000"/><path d="m182 401h77s-26.163-79.792-26.73-109.528c-.019-1.011-1.886-2.792-2.711-2.559-9.059 2.559-19.387-1.913-19.387-1.913-18.255 29.358-24.567 65.505-28.172 114z" fill="#f2f2f2"/><path d="m229.486 331.791c12.026 51.586 11.472 93.815-15.079 93.815h-41.056c-6.521-43.822 10.617-104.582 26.505-135.229.607-1.171 1.898-3.377 4.941-3.377h11.93c.005.016.01.032.016.047 3.589.03 7.543.161 11.824.303 22.041.732 52.774 1.752 87.356-9.35l4.077 20.373c-31.213 20.075-62.819 35.626-90.514 33.418z" fill="#000232"/></g></svg>