<svg fill="none" height="705" width="788" xmlns="http://www.w3.org/2000/svg" xmlns:xlink="http://www.w3.org/1999/xlink"><clipPath id="a"><path d="m191 120.2h73v21.6h-73z"/></clipPath><clipPath id="b"><path d="m191 178.6h73v16.8h-73z"/></clipPath><clipPath id="c"><path d="m191 228.6h73v16.8h-73z"/></clipPath><clipPath id="d"><path d="m191 278.6h73v16.8h-73z"/></clipPath><clipPath id="e"><path d="m227 146.2h73v21.6h-73z"/></clipPath><clipPath id="f"><path d="m257 204.6h73v16.8h-73z"/></clipPath><clipPath id="g"><path d="m227 254.6h73v16.8h-73z"/></clipPath><clipPath id="h"><path d="m257 304.6h73v16.8h-73z"/></clipPath><clipPath id="i"><path d="m295 185.1h167v18.8h-167z"/></clipPath><clipPath id="j"><path d="m295 237.7h167v15.6h-167z"/></clipPath><clipPath id="k"><path d="m295 284.7h167v15.6h-167z"/></clipPath><clipPath id="l"><path d="m295 425.7h167v15.6h-167z"/></clipPath><clipPath id="m"><path d="m295 378.7h167v15.6h-167z"/></clipPath><clipPath id="n"><path d="m295 331.7h167v15.6h-167z"/></clipPath><path clip-rule="evenodd" d="m690.225 195.334c-.533-.388-1.799-.525-2.387-.642-2.448-.482-4.969-.692-7.464-.692-7.693.012-15.511.767-23.076 2.074-4.804.829-10.611 3.622-15.389 2.105-8.324-2.642-16.737-2.512-24.635 1.26-7.221 3.449-12.702 10-15.901 17.078-.483 1.069-2.441 5.002-2.995 7.653a30.662 30.662 0 0 0 -.67 1.641 82.997 82.997 0 0 0 -1.59 4.777c-.208.684-.729 2.194-.11 2.486a45.5 45.5 0 0 0 -2.597 5.652c-2.125 5.652-4.449 11.852-5.196 17.842a27.931 27.931 0 0 0 -.03 6.671c.127 1.099.075 3.307.819 4.143 1.581 1.772 2.392-.709 2.214-1.891-1.36-9.006 1.267-17.464 4.38-25.93 2.014-5.474 5.322-10.483 9.028-15.018 2.999-3.672 6.216-6.563 10.327-8.997 5.028-2.977 10.403-5.383 15.728-7.797 3.503-1.588 7.01-3.134 10.61-4.502.801-.305 2.06-1.086 2.948-1.089 1.877-.006 4.538 1.379 6.351 1.894 5.964 1.696 12.004 3.867 18.168 4.733 3.954.556 7.658-.07 11.355-1.387.378-.134 1.012-.48 1.788-.974 2.745-1.056 5.342-2.385 7.603-4.303 1.302-1.104 2.485-2.532 3.563-3.839.322-.39.465-.838.47-1.264.244-.127.406-.277.443-.451.269-1.286-2.184-1.309-3.755-1.233" fill="#89c5cc" fill-rule="evenodd"/><path clip-rule="evenodd" d="m65.273 302.541c-1.509 1.222-2.99 2.47-4.433 3.769-1.101.99-3.049 2.175-3.444 3.675-.41 1.559.886 3.018 1.91 3.96 5.417 4.984 11.517 8.353 19.023 8.914 11.558.863 21.617-2.089 31.645-7.896 7.044-4.08 11.71-10.114 12.729-18.262 8.389 3.486 16.502 8.292 23.397 14.19 3.402 2.91 6.332 6.134 9.042 9.708 1.736 2.29 3.415 4.616 4.973 7.032.677 1.049 1.366 2.911 2.484 3.515 1.313.71 2.9-.403 2.835-1.862-.055-1.215-1.366-2.624-1.98-3.617a133.146 133.146 0 0 0 -3.141-4.891c-1.762-2.597-3.583-5.156-5.569-7.586-4.464-5.46-10.143-9.969-16.03-13.815-11.294-7.378-23.689-12.026-37.431-12.42-8.45-.242-15.558 2.645-22.784 6.956-4.5 2.684-9.143 5.324-13.226 8.63" fill="#dde3e9" fill-rule="evenodd"/><path clip-rule="evenodd" d="m174.883 266.856c-8.806-9.069-17.642-18.024-27.48-26.009-5.798-4.706-11.908-8.984-17.892-13.446a57.62 57.62 0 0 1 2.028 1.865c-1.868-1.268-4.313-1.985-6.293-3.159-2.209-1.309-4.321-2.806-6.392-4.316-4.043-2.946-8.025-5.948-12.181-8.74-4.63-3.111-9.428-5.985-14.137-8.979-3.997-2.54-8.042-5.321-12.317-7.398-2.33-1.132-4.666-2.473-7.006-3.654-.783-.395-8.729-5.412-8.709-5.427.44-.331 4.438 1.547 5.056 1.8 1.806.738 3.534 1.62 5.27 2.5-.953-1.88-1.707-3.855-2.118-5.935-.127-.641-1.143-5.314-.623-5.706.26-.195 2.795 8.164 2.924 8.968.106.652.09 1.592.304 2.211.345.998.328.696 1.088 1.259 1.393 1.031 3.242 1.675 4.75 2.537.813.453 3.33 2.253 4.846 2.766 4.587 2.228 9.237 5.656 13.596 8.502a32.052 32.052 0 0 1 -2.65-6.754c-.15-.559-1.78-5.576-1.384-5.874.445-.335 3.549 7.328 3.733 8.053.341 1.348.412 2.848.84 4.159.469 1.439 1.934 1.949 3.254 2.788 4.857 3.086 9.548 6.365 14.16 9.795 5.033-8.951-.77-19.759-5.66-27.269-3.526-5.413-8.271-10.053-13.282-14.104-6.688-5.407-14.339-9.726-21.98-13.677-8.905-4.603-18.53-7.456-28.535-8.773-5.233-.69-10.586-.67-15.872-.449-2.582.108-5.06.45-7.535 1.292-1.116.38-2.193.859-3.244 1.395-.798.407-2.729.837-3.187 1.444-3.778 4.917-5.71 9.816-5.415 15.994.279 5.848 2.126 11.699 4.633 16.916 2.791 5.809 6.381 11.081 11.077 15.505 3.582 3.376 7.587 6.314 11.566 9.214 14.151 10.313 32.092 19.283 50.42 16.978 5.933-.745 11.576-2.82 16.849-5.639 1.243-.665 2.478-1.337 3.651-2.121.791-.529 2.905-2.912 3.7-2.998 1.091-.119 3.439 2.099 4.462 2.774 7.774 5.131 15.344 10.541 22.755 16.169 7.886 5.988 15.384 12.384 22.662 19.08 3.095 2.849 6.171 5.703 9.176 8.647.7.685 2.411 3.207 3.68 3.321.802.073 1.343-.612 1.229-1.355-.199-1.291-2.915-3.222-3.817-4.15" fill="#c1dee2" fill-rule="evenodd"/><path clip-rule="evenodd" d="m680.98 231.66c-3.41-.745-7.177-.688-10.651-.627-18.634.254-36.932 9.076-48.84 23.172-10.138 12-12.926 26.92-14.929 42.002-.198 1.497-.283 2.985-.395 4.486-.024.322-.06.609-.099.88-.787.704-1.201 1.525-.734 2.427-1.735 3.797-3.203 7.69-4.463 11.706-3.707 11.82-7.477 23.865-5.155 36.294.543-6.84 1.685-13.834 3.05-20.562.078-.386.163-.769.251-1.151.01-.04.018-.081.027-.121a44.902 44.902 0 0 1 1.875-6.025l.024-.064c.101-.259.208-.517.314-.774.219-.533.444-1.065.682-1.594.081-.181.158-.363.233-.546 1.112-2.726 1.581-5.798 2.578-8.618.238-.641.487-1.28.748-1.916l.047-.111a83.211 83.211 0 0 1 2.31-5.072c.448-.336.687-1.172 1.074-1.931.079-.15.704-1.147.89-1.722.486-.939.969-1.878 1.458-2.816l-.044.017c.489-.901.98-1.797 1.467-2.69l.323-.589.524-.938a176.942 176.942 0 0 1 5.16-8.61c.642-1.009 2.174-2.456 2.468-3.588.011-.043.013-.082.02-.122 3.9-5.478 8.389-10.53 13.774-14.533-.651.704-2.035 3.091-2.4 3.564-1.12 1.447-2.335 2.794-3.554 4.158-2.185 2.443-4.317 4.963-6.212 7.628-3.466 4.874-6.455 10.003-9.282 15.236-.026.03-.056.059-.081.091-1.421 1.751-2.315 4.397-3.337 6.4 4.046-1.874 8.521-3.095 12.673-4.759 4.142-1.659 8.17-3.507 12.06-5.676 5.169-2.884 10.532-6.139 15.416-9.823 5.597-3.472 10.301-8.251 14.453-13.266 4.912-5.934 9.414-11.919 12.198-19.124 1.368-3.54 2.444-7.232 3.082-10.967.028-.162.063-.339.102-.522a35.958 35.958 0 0 0 1.726-3.958c.777-2.14 2.614-4.494-.831-5.246" fill="#69a1ac" fill-rule="evenodd"/><path clip-rule="evenodd" d="m103.008 256.729c-1.068-1.157-2.268-2.201-3.677-2.946-.357-.188-3.01-1.448-3.183-1.172-.403.644 6.539 3.748 6.86 4.118m12.582-7.729c-.009.049.911 1.61 1.162 2.09a54.392 54.392 0 0 1 1.488 3.104c-.685-1.841-1.39-3.549-2.65-5.194m-64.345 12.709c-.886.285-1.951-.84-.802-1.117.93-.222.884-.274 1.302-1.024.34-.608.548-1.35.846-1.988.63-1.354 1.347-2.646 2.226-3.856 1.883-2.594 4.178-4.829 6.752-6.713 4.492-3.286 9.529-6.291 14.872-7.8 8.495-2.4 18.164-2.548 26.672-.884 5.27 1.03 10.085 2.822 13.584 7.065 1.749 2.12 3.122 4.604 3.722 7.339.157.715.127 1.51.323 2.21.302 1.077.169.79 1.428.999 1.374.229 2.747.462 4.12.7 3.595.622 7.211 1.282 10.714 2.291a29.07 29.07 0 0 1 3.382 1.209c.833.356 4.15 1.475 4.553 2.557.671 1.801-1.577.985-2.276.592a27.375 27.375 0 0 0 -1.877-.959c-1.605-.742-3.277-1.317-4.987-1.774-1.848-.494-3.733-.863-5.612-1.233a212.147 212.147 0 0 0 -5.27-.957c-.978-.166-1.956-.328-2.935-.489-.335-.056-.924-.345-.88.09-2.058-.397-4.283-.34-6.379-.449-2.567-.134-5.144-.244-7.72-.164-1.858.058-3.717.18-5.566.43-1.08.146-2.143.359-3.202.629-.583.149-2.878.464-3.195.971.136-.218 2.67-.006 2.992-.019 1.29-.048 2.569-.176 3.854-.319a59.81 59.81 0 0 1 7.162-.386c-.009.42-1.643 1.168-2.042 1.446a23.127 23.127 0 0 0 -2.55 2.052c-1.407 1.315-3.093 2.944-4.066 4.503.287-.46 1.702-1.057 2.204-1.408a29.523 29.523 0 0 0 2.34-1.803c.688-.592 1.331-1.232 1.963-1.885s1.489-2.012 2.32-2.447c.05-.027.412.259.617.162.208-.098.466-.588.518-.608.773-.298 2.241.073 3.054.111 2.107.097 4.213.224 6.318.34.653.036 1.207-.113 1.454.368.262.514-.219 1.863-.356 2.422-.508 2.076-1.409 3.937-2.829 5.546-2.658 3.013-5.937 5.021-9.64 6.365-14.184 5.146-29.275 7.207-43.455 1.854-5.87-2.217-14.711-6.177-13.653-13.969" fill="#89c5cc" fill-rule="evenodd"/><path clip-rule="evenodd" d="m700.711 504.152c9.65 65.324-224.374 107.933-425.803 78.197-201.43-29.735-293.836-145.856-197.717-207.729 96.119-61.874 613.87 64.208 623.52 129.532z" fill="#dde3e9" fill-rule="evenodd" opacity=".6"/><rect fill="#f2f2f2" height="302" rx="8" width="159" x="138" y="76"/><path clip-rule="evenodd" d="m217 359c8.284 0 15-6.716 15-15s-6.716-15-15-15-15 6.716-15 15 6.716 15 15 15zm-13-263a2 2 0 1 0 0-4 2 2 0 0 0 0 4z" fill="#fff" fill-rule="evenodd"/><rect fill="#fff" height="4" rx="2" width="21" x="211" y="92"/><rect fill="#fff" height="54" rx="4" width="131" x="152" y="104"/><g clip-path="url(#a)" fill="#dde3e9"><rect height="8.1" rx="3" width="73" x="191" y="120.2"/><rect height="8.1" rx="3" width="49" x="191" y="133.7"/></g><path clip-rule="evenodd" d="m173 143c6.627 0 12-5.373 12-12s-5.373-12-12-12-12 5.373-12 12 5.373 12 12 12z" fill="#c5cfd6" fill-rule="evenodd"/><rect fill="#fff" height="42" rx="4" width="131" x="152" y="166"/><g clip-path="url(#b)" fill="#dde3e9"><rect height="6.3" rx="3" width="73" x="191" y="178.6"/><rect height="6.3" rx="3" width="49" x="191" y="189.1"/></g><path clip-rule="evenodd" d="m173 199c6.627 0 12-5.373 12-12s-5.373-12-12-12-12 5.373-12 12 5.373 12 12 12z" fill="#c5cfd6" fill-rule="evenodd"/><rect fill="#fff" height="42" rx="4" width="131" x="152" y="216"/><g clip-path="url(#c)" fill="#dde3e9"><rect height="6.3" rx="3" width="73" x="191" y="228.6"/><rect height="6.3" rx="3" width="49" x="191" y="239.1"/></g><path clip-rule="evenodd" d="m173 249c6.627 0 12-5.373 12-12s-5.373-12-12-12-12 5.373-12 12 5.373 12 12 12z" fill="#afb9c5" fill-rule="evenodd"/><rect fill="#fff" height="42" rx="4" width="131" x="152" y="266"/><g clip-path="url(#d)" fill="#dde3e9"><rect height="6.3" rx="3" width="73" x="191" y="278.6"/><rect height="6.3" rx="3" width="49" x="191" y="289.1"/></g><path clip-rule="evenodd" d="m173 299c6.627 0 12-5.373 12-12s-5.373-12-12-12-12 5.373-12 12 5.373 12 12 12z" fill="#c5cfd6" fill-rule="evenodd"/><path clip-rule="evenodd" d="m168.14 320c-1.325 0-2.646.027-3.969.095-1.009.053-2.55-.156-3.403.473-.887.653-.826 1.989-.687 2.933.732 4.992 2.519 9.418 6.258 12.955 5.757 5.445 12.356 8.212 20.165 9.444 5.486.866 10.55-.336 14.588-4.237 2.951 5.476 5.189 11.536 6.312 17.652.554 3.018.723 6 .626 9.073-.063 1.968-.171 3.932-.382 5.891-.092.851-.526 2.139-.193 2.944.391.944 1.71 1.036 2.302.23.493-.67.403-1.987.504-2.78.168-1.318.323-2.637.434-3.961.181-2.143.314-4.292.305-6.444-.023-4.833-1.098-9.685-2.568-14.273-2.82-8.803-7.395-16.626-14.511-22.764-4.376-3.774-9.384-5.302-15.065-6.123-3.538-.511-7.133-1.108-10.716-1.108" fill="#89c5cc" fill-rule="evenodd"/><path clip-rule="evenodd" d="m188.571 355c-14.299 0-23.929 11.524-28.482 23.502-1.717 4.514-2.119 9.472-2.781 14.212-.212 1.522-.133 3.84-.751 5.195-.224.492-.738.668-.492 1.338.149.405.44.654.879.734.899.166 2.171-.814 2.942-1.2 6.396-3.208 10.598-8.168 14.026-14.236 2.126-3.761 4.282-7.666 5.544-11.795.771-2.523 1.22-5.179 1.484-7.796.104-1.031.204-2.086.198-3.122-.006-1.029-.485-1.573-.829-2.468 4.771-1.806 10.157-2.298 14.99-.427 4.47 1.731 8.183 5.076 10.262 9.279.54 1.092.957 2.244 1.26 3.42.199.77.208 1.768.577 2.464.892 1.688 2.77.56 2.59-1.011-.503-4.381-3.009-8.78-6.213-11.826-4.041-3.842-9.517-6.263-15.204-6.263" fill="#89c5cc" fill-rule="evenodd"/><rect fill="#dde3e9" height="302" rx="8" width="159" x="204" y="102"/><path clip-rule="evenodd" d="m283 385c8.284 0 15-6.716 15-15s-6.716-15-15-15-15 6.716-15 15 6.716 15 15 15zm-13-263a2 2 0 1 0 .001-3.999 2 2 0 0 0 -.001 3.999z" fill="#fff" fill-rule="evenodd"/><rect fill="#fff" height="4" rx="2" width="21" x="277" y="118"/><rect fill="#fff" height="54" rx="4" width="131" x="218" y="130"/><g clip-path="url(#e)" fill="#dde3e9"><rect height="8.1" rx="3" width="73" x="227" y="146.2"/><rect height="8.1" rx="3" width="49" x="227" y="159.7"/></g><path clip-rule="evenodd" d="m335 164a7 7 0 1 0 0-14 7 7 0 0 0 0 14z" fill="#dde3e9" fill-rule="evenodd"/><path clip-rule="evenodd" d="m335 160a3 3 0 1 0 0-6 3 3 0 0 0 0 6z" fill="#f2f2f2" fill-rule="evenodd"/><rect fill="#fff" height="42" rx="4" width="131" x="218" y="192"/><g clip-path="url(#f)" fill="#dde3e9"><rect height="6.3" rx="3" width="73" x="257" y="204.6"/><rect height="6.3" rx="3" width="49" x="257" y="215.1"/></g><path clip-rule="evenodd" d="m239 225c6.627 0 12-5.373 12-12s-5.373-12-12-12-12 5.373-12 12 5.373 12 12 12z" fill="#c5cfd6" fill-rule="evenodd"/><rect fill="#fff" height="42" rx="4" width="131" x="218" y="242"/><g clip-path="url(#g)"><rect fill="#dde3e9" height="6.3" rx="3" width="73" x="227" y="254.6"/><rect fill="#afb9c5" height="6.3" rx="3" width="49" x="227" y="265.1"/></g><path clip-rule="evenodd" d="m335 270a7 7 0 1 0 0-14 7 7 0 0 0 0 14z" fill="#dde3e9" fill-rule="evenodd"/><path clip-rule="evenodd" d="m335 266a3 3 0 1 0 0-6 3 3 0 0 0 0 6z" fill="#f2f2f2" fill-rule="evenodd"/><rect fill="#fff" height="42" rx="4" width="131" x="218" y="292"/><g clip-path="url(#h)" fill="#dde3e9"><rect height="6.3" rx="3" width="73" x="257" y="304.6"/><rect height="6.3" rx="3" width="49" x="257" y="315.1"/></g><path clip-rule="evenodd" d="m239 325c6.627 0 12-5.373 12-12s-5.373-12-12-12-12 5.373-12 12 5.373 12 12 12z" fill="#c5cfd6" fill-rule="evenodd"/><rect fill="#f2f2f2" height="346" rx="8" width="335" x="270" y="127"/><rect fill="#fff" height="81" rx="8" width="70" x="519" y="170"/><path clip-rule="evenodd" d="m554 217c8.837 0 16-7.163 16-16s-7.163-16-16-16-16 7.163-16 16 7.163 16 16 16z" fill="#dde3e9" fill-rule="evenodd"/><rect fill="#dde3e9" height="6" rx="3" width="50" x="529" y="221"/><rect fill="#dde3e9" height="6" rx="3" width="34" x="537" y="231"/><path d="m270 135a8 8 0 0 1 8-8h319a8 8 0 0 1 8 8v19h-335z" fill="#c5cfd6"/><path clip-rule="evenodd" d="m283 145a4 4 0 1 0 0-8 4 4 0 0 0 0 8zm12 0a4 4 0 1 0 0-8 4 4 0 0 0 0 8zm12 0a4 4 0 1 0 0-8 4 4 0 0 0 0 8z" fill="#f2f2f2" fill-rule="evenodd"/><rect fill="#fff" height="194" rx="8" width="70" x="519" y="259"/><rect fill="#dde3e9" height="26" rx="4" width="34" x="537" y="277"/><rect fill="#afb9c5" height="25" rx="4" width="34" x="537" y="311"/><rect fill="#dde3e9" height="25" rx="4" width="34" x="537" y="344"/><rect fill="#dde3e9" height="25" rx="4" width="34" x="537" y="410"/><rect fill="#c5cfd6" height="25" rx="4" width="34" x="537" y="377"/><rect fill="#fff" height="47" rx="4" width="225" x="286" y="171"/><g clip-path="url(#i)" fill="#dde3e9"><rect height="7.05" rx="3" width="167" x="295" y="185.1"/><rect height="7.05" rx="3" width="112.096" x="295" y="196.85"/></g><path clip-rule="evenodd" d="m486.954 201.5a7 7 0 1 0 0-14 7 7 0 0 0 0 14z" fill="#dde3e9" fill-rule="evenodd"/><path clip-rule="evenodd" d="m486.954 197.5a3 3 0 1 0 0-6 3 3 0 0 0 0 6z" fill="#f2f2f2" fill-rule="evenodd"/><rect fill="#fff" height="39" rx="4" width="225" x="286" y="226"/><g clip-path="url(#j)" fill="#dde3e9"><rect height="5.85" rx="2.925" width="167" x="295" y="237.7"/><rect height="5.85" rx="2.925" width="112.096" x="295" y="247.45"/></g><path clip-rule="evenodd" d="m486.954 252.5a7 7 0 1 0 0-14 7 7 0 0 0 0 14z" fill="#dde3e9" fill-rule="evenodd"/><path clip-rule="evenodd" d="m486.954 248.5a3 3 0 1 0 0-6 3 3 0 0 0 0 6z" fill="#f2f2f2" fill-rule="evenodd"/><rect fill="#fff" height="39" rx="4" width="225" x="286" y="273"/><g clip-path="url(#k)" fill="#dde3e9"><rect height="5.85" rx="2.925" width="167" x="295" y="284.7"/><rect height="5.85" rx="2.925" width="112.096" x="295" y="294.45"/></g><path clip-rule="evenodd" d="m486.954 299.5a7 7 0 1 0 0-14 7 7 0 0 0 0 14z" fill="#dde3e9" fill-rule="evenodd"/><path clip-rule="evenodd" d="m486.954 295.5a3 3 0 1 0 0-6 3 3 0 0 0 0 6z" fill="#afb9c5" fill-rule="evenodd"/><rect fill="#fff" height="39" rx="4" width="225" x="286" y="414"/><g clip-path="url(#l)" fill="#dde3e9"><rect height="5.85" rx="2.925" width="167" x="295" y="425.7"/><rect height="5.85" rx="2.925" width="112.096" x="295" y="435.45"/></g><path clip-rule="evenodd" d="m486.954 440.5a7 7 0 1 0 0-14 7 7 0 0 0 0 14z" fill="#dde3e9" fill-rule="evenodd"/><path clip-rule="evenodd" d="m486.954 436.5a3 3 0 1 0 0-6 3 3 0 0 0 0 6z" fill="#f2f2f2" fill-rule="evenodd"/><rect fill="#fff" height="39" rx="4" width="225" x="286" y="367"/><g clip-path="url(#m)" fill="#dde3e9"><rect height="5.85" rx="2.925" width="167" x="295" y="378.7"/><rect height="5.85" rx="2.925" width="112.096" x="295" y="388.45"/></g><path clip-rule="evenodd" d="m486.954 393.5a7 7 0 1 0 0-14 7 7 0 0 0 0 14z" fill="#dde3e9" fill-rule="evenodd"/><path clip-rule="evenodd" d="m486.954 389.5a3 3 0 1 0 0-6 3 3 0 0 0 0 6z" fill="#f2f2f2" fill-rule="evenodd"/><rect fill="#fff" height="39" rx="4" width="225" x="286" y="320"/><g clip-path="url(#n)" fill="#dde3e9"><rect height="5.85" rx="2.925" width="167" x="295" y="331.7"/><rect height="5.85" rx="2.925" width="112.096" x="295" y="341.45"/></g><path clip-rule="evenodd" d="m486.954 346.5a7 7 0 1 0 0-14 7 7 0 0 0 0 14z" fill="#dde3e9" fill-rule="evenodd"/><path clip-rule="evenodd" d="m486.954 342.5a3 3 0 1 0 0-6 3 3 0 0 0 0 6z" fill="#f2f2f2" fill-rule="evenodd"/><path clip-rule="evenodd" d="m687.986 297.376c-3.945-2.675-9.19-3.376-13.91-3.376-18.436 0-35.765 6.84-50.735 17.032-8.203 5.584-15.541 12.696-22.019 20.1-3.74 4.275-7.074 8.898-9.435 14.041-1.593 3.471-2.686 7.088-3.427 10.818-.903 4.546-1.621 9.184-1.945 13.806-.128 1.82-1.185 11.477 1.841 11.641a4.038 4.038 0 0 0 -.003.668c-6.571 10.274-10.63 22.314-14.395 33.729-3.275 9.934-6.194 19.951-8.088 30.228a329.228 329.228 0 0 0 -4.912 40.987c-.167 2.949-.282 5.9-.381 8.853-.084 2.519-.169 5.038-.252 7.558-.092 2.823-.589 6.073-.14 8.879.391 2.444 2.506 2.074 2.6-.358.113-2.937.094-5.88.223-8.819.171-3.901.347-7.802.538-11.702 1.329-27.092 6.314-53.786 15.515-79.377 3.724-10.356 7.99-20.159 13.474-29.739 4.821-8.423 10.621-16.578 16.549-24.172 5.761-7.381 11.752-14.59 18.811-20.843 5.729-5.074 12.031-9.495 18.509-13.608 8.227-5.224 16.439-10.321 25.351-14.331 4.633-2.084 9.353-3.95 14.022-5.951.84-.359 1.74-.708 2.548-1.125 2.695-1.39 1.808-3.483-.339-4.939" fill="#c1dee2" fill-rule="evenodd"/><path clip-rule="evenodd" d="m613.818 392c7.477 0 14.131.972 21.02 3.943 5.947 2.565 11.367 5.96 16.629 9.656 7.401 5.199 13.231 11.249 17.312 19.266 2.438 4.789 4.227 11.566 2.589 16.79-1.928 6.152-7.224 11.284-14.199 10.2-4.313-.67-8.266-3.525-11.544-6.212-3.922-3.215-7.061-7.08-9.653-11.373-4.228-7.003-6.712-14.919-10.304-22.237-1.704-3.473-3.351-6.97-5.393-10.271-1.01-1.634-2.086-3.253-3.619-4.468-.82-.65-4.278-1.774-2.956-3.233-19.39.254-36.568 15.146-40.291 33.58-.346 1.718-.617 3.45-.904 5.179-.18 1.091-.107 5.117-1.083 5.814-2.152 1.538-1.248-3.135-1.155-3.808.239-1.739.493-3.476.76-5.211 1.454-9.434 5.654-18.204 12.658-24.932 8.009-7.693 18.816-12.683 30.133-12.683" fill="#89c5cc" fill-rule="evenodd"/><path clip-rule="evenodd" d="m74.938 368.736c18.666 31.316 40.407 61.638 53.463 95.877a499.394 499.394 0 0 0 -1.709-12.093c-3.312-21.341-7.43-42.526-11.756-63.685-2.203-10.773-4.534-21.508-6.924-32.241-1.285-5.765-2.555-11.533-3.867-17.292-.318-1.396-.591-3.833-.988-6.302 12.688 41.637 24.924 83.305 33.874 125.942a279.278 279.278 0 0 1 2.993 16.758c.28-1.272.556-2.544.857-3.813 3.622-15.207 9.054-30.293 15.522-44.513 3.092-6.799 6.643-13.45 10.825-19.648 2.608-3.863 8.758-8.455 11.136-12.412-13.009 23.862-17.707 53.718-25.219 79.659-1.833 6.331-3.678 12.651-5.486 18.982 11.328-22.718 28.904-41.384 53.341-49.472-29.58 19.544-47.322 53.771-59.278 88.777-.039.415-.086.83-.127 1.246 3.519-6.677 7.95-12.717 13.956-16.946 12.856-9.056 27.116-6.418 39.586 1.35-9.787-6.221-27.474-.556-35.709 5.767-5.895 4.526-10.933 10.598-15.308 16.523-1.048 1.42-2.479 3.077-3.99 4.844a218.333 218.333 0 0 1 -10.458 40.956c.807-3.889.224-10.108.448-13.007.024-.314.044-.628.068-.94a866.281 866.281 0 0 0 -2.152 8.784c1.374-5.506 2.12-11.254 2.703-17.061.15-2.495.297-4.991.451-7.486a242.558 242.558 0 0 0 -.574-14.254c-1.169-4.628-2.479-8.994-3.56-12.625-3.897-13.101-9.612-25.651-16.645-37.36-6.417-10.685-14.099-20.363-22.966-29.116-4.78-4.718-9.784-9.21-14.716-13.765-1.784-1.647-4.972-5.696-7.729-7.807 20.08 11.071 40.749 23.047 55.398 40.885a445.534 445.534 0 0 0 -5.556-19.468c-10.011-32.326-22.65-65.827-39.904-95.044z" fill="#dde3e9" fill-rule="evenodd"/><path clip-rule="evenodd" d="m95 546c0 35.899 2.843 65 41 65s41-29.101 41-65" fill="#c5cfd6" fill-rule="evenodd"/><rect fill="#dde3e9" height="25" rx="3" width="6" x="520" y="84"/><rect fill="#dde3e9" height="41" rx="3" width="6" x="534" y="68"/><rect fill="#dde3e9" height="49" rx="3" width="6" x="548" y="60"/><rect fill="#dde3e9" height="41" rx="3" width="6" x="562" y="68"/><rect fill="#c5cfd6" height="57" rx="3" width="6" x="576" y="52"/><g clip-rule="evenodd" fill-rule="evenodd"><path d="m28 358.256c0-11.139 9.002-20.256 20-20.256v20.256l-13.668 14.744c-3.888-3.605-6.332-8.893-6.332-14.744z" fill="#f2f2f2"/><path d="m47.47 358h20.198c0 5.221-2.13 10.113-5.497 13.668-3.703 3.888-8.976 6.332-14.7 6.332-5.273 0-10.099-2.109-13.803-5.443z" fill="#afb9c5"/><path d="m68 358c0-10.998-9.002-20-20-20v20zm-30-20 8 18-18-8c1.78-4.666 5.777-8.22 10-10z" fill="#c5cfd6"/><path d="m678.766 367.179a10.505 10.505 0 0 1 -7.671 3.321c-5.817 0-10.533-4.701-10.533-10.5s4.716-10.5 10.533-10.5v-19.5c-16.549 0-30.095 13.503-30.095 30s13.546 30 30.095 30c8.693 0 16.55-3.666 21.905-9.498z" fill="#f2f2f2"/><path d="m671 330v19.5c5.799 0 10.5 4.701 10.5 10.5h19.5c0-16.497-13.503-30-30-30z" fill="#afb9c5"/><path d="m681.097 360c0 3.407-1.605 6.435-4.097 8.391l12.262 15.609c7.137-5.588 11.738-14.251 11.738-24z" fill="#c5cfd6"/><path d="m488.051 91.504a8.095 8.095 0 0 1 -5.901 2.546c-4.475 0-8.102-3.604-8.102-8.05s3.627-8.05 8.102-8.05v-14.95c-12.73 0-23.15 10.352-23.15 23s10.42 23 23.15 23c6.687 0 12.73-2.811 16.85-7.282z" fill="#f2f2f2"/><path d="m482 63v14.95a8.05 8.05 0 0 1 8.05 8.05h14.95c0-12.648-10.352-23-23-23z" fill="#afb9c5"/><path d="m490.073 86a7.981 7.981 0 0 1 -3.073 6.293l9.196 11.707c5.354-4.191 8.804-10.688 8.804-18zm-366.066 22.986a.393.393 0 0 1 -.014.032c.006-.01.014-.05.014-.032" fill="#c5cfd6"/><path d="m123.998 109.001-.002.01c0-.01.018-.04.002-.01" fill="#c5cfd6"/><path d="m124.067 108.832c-.014.04-.032.078-.048.118l.024-.056c-.208.52-.076.182.024-.062" fill="#c5cfd6"/><path d="m124.022 108.953-.024.056c-.058.112.024-.056.024-.056m-.023.049.002-.004z" fill="#c5cfd6"/><path d="m123.99 109.016c-.012.024.056-.092 0 0z" fill="#c5cfd6"/><path d="m123.998 109.002.004-.004c-.002.002-.002.004-.004.004" fill="#c5cfd6"/></g><rect fill="#dde3e9" height="63" rx="4" width="95" x="76" y="57"/><path clip-rule="evenodd" d="m112 75-28 45h56z" fill="#afb9c5" fill-rule="evenodd"/><path clip-rule="evenodd" d="m139.5 87-24.5 33h49z" fill="#c5cfd6" fill-rule="evenodd"/><path clip-rule="evenodd" d="m150 87a9 9 0 1 0 0-18 9 9 0 0 0 0 18z" fill="#fff" fill-rule="evenodd"/><path clip-rule="evenodd" d="m600.993 535.986.014.032c-.006-.01-.014-.05-.014-.032" fill="#c5cfd6" fill-rule="evenodd"/><path clip-rule="evenodd" d="m601.002 536.001.002.01c0-.01-.018-.04-.002-.01" fill="#c5cfd6" fill-rule="evenodd"/><path clip-rule="evenodd" d="m600.933 535.832c.014.04.032.078.048.118l-.024-.056c.208.52.076.182-.024-.062" fill="#c5cfd6" fill-rule="evenodd"/><path clip-rule="evenodd" d="m600.978 535.953.024.056c.058.112-.024-.056-.024-.056m.023.049-.002-.004z" fill="#c5cfd6" fill-rule="evenodd"/><path clip-rule="evenodd" d="m601.01 536.016c.012.024-.056-.092 0 0z" fill="#c5cfd6" fill-rule="evenodd"/><path clip-rule="evenodd" d="m601.002 536.002-.004-.004c.002.002.002.004.004.004" fill="#c5cfd6" fill-rule="evenodd"/><rect fill="#dde3e9" height="94" rx="4" transform="matrix(-1 0 0 1 672 459)" width="142"/><g clip-rule="evenodd" fill-rule="evenodd"><path d="m619.274 486 41.055 67h-82.11z" fill="#afb9c5"/><path d="m576.944 503.946 36.295 49.054h-72.59z" fill="#c5cfd6"/><path d="m561.5 504c-7.456 0-13.5-6.044-13.5-13.5s6.044-13.5 13.5-13.5 13.5 6.044 13.5 13.5-6.044 13.5-13.5 13.5z" fill="#fff"/><path d="m645 283.707c-11.429 0-15.586-13.683-22.079-21.192-4.645-5.372-12.574-3.77-14.921-11.291-5.902-18.913 9.894-32.224 30.5-32.224s34.5 11.674 37.5 29.224c3 17.549-10.394 35.483-31 35.483z" fill="#191847"/><path d="m632.065 281.244c-6.476 3.903-12.839 5.789-15.825 5.019-7.49-1.93-8.178-29.328-2.383-40.129 5.794-10.801 35.585-15.509 37.086 5.891.521 7.428-2.597 14.056-7.205 19.465l8.262 38.51h-24z" fill="#b28b67"/><path d="m649.383 237c18.383 18-.07 37.132-5.126 37.132-.327-2.597-1.322-5.124-2.781-7.528a5.875 5.875 0 0 0 1.234-3.604c0-3.314-2.757-6-6.157-6a6.26 6.26 0 0 0 -2.933.723c-7.37-6.285-16.614-10.667-21.203-11.529-7.983-1.498 18.583-27.194 36.966-9.194z" fill="#191847"/><path d="m660 393-36.631 126.227-17.229 94.773h-17.293l17.262-221z" fill="#997659"/><path d="m676.462 393c-2.555 65.574-1.547 101.34-.975 107.298s3.819 45.858 25.95 115.702h-17.987c-29.308-67.003-39.539-106.904-42.9-115.702-3.362-8.798-13.289-44.564-27.783-107.298z" fill="#b28b67"/><path d="m660.786 393c-9.528 43.435-26.008 112.768-49.439 208h-25.293c-1.868-97.746 6.079-162.08 19.841-208z" fill="#000120"/><path d="m676.59 393c-2.503 65.574 3.984 130.177 24.079 209.021h-26.986c-29.362-66.003-50.406-130.287-64.789-209.021z" fill="#00022b"/><path d="m704 632-1-21h-21c-14.936 10.5-39 17-39 17v4h38l13-2v2zm-94 0-1-21h-21c-14.936 10.5-39 17-39 17v4h38l13-2v2z" fill="#000232"/><path d="m531.765 349.704 36.235 15.913-11.57 14.822-27.137-20.806c-13.555-2.49-19.842-4.629-18.859-6.417.828-1.507 2.369-1.592 3.788-1.671 1.106-.061 2.138-.118 2.702-.84 1.287-1.649-1.89-6.744-5.112-11.45s-.202-4.536 1.565-3.973c5.912 3.29 12.041 8.097 18.388 14.422zm162.235 24.362 20.492-4.066c13.897 36.63 22.182 56.702 24.856 60.218 1.96 2.578 14.049 9.219 22.232 12.766 3.285 1.423 2.579 4.199 1.616 5.087-6.076 5.601-11.725 3.638-17.874 1.501-1.781-.619-3.603-1.252-5.489-1.721-4.883-1.212-6.369 1.299-7.773 3.672-1.244 2.101-2.423 4.093-5.839 3.298.155-.67.346-1.421.552-2.232 1.332-5.24 3.296-12.969.382-17.459-1.495-2.304-12.547-22.659-33.155-61.064z" fill="#b28b67"/><path d="m638.305 293.332-8.647-1.483c-18.835 18.27-26.52 62.163-39.072 67.974-11.867 5.493-28.69.177-48.686-7l-6.124 13.682c18.169 19.656 56.875 36.262 72.564 26.782 25.083-15.157 30.874-69.293 29.965-99.955z" fill="#db2721"/><path d="m676 402h-76.511c-3.497 0-2.838-5.048-2.332-7.596 5.832-29.4 28.602-61.092 28.602-102.943l22.069-3.461c18.255 29.358 24.567 65.505 28.172 114z" fill="#dde3e9"/><path d="m649 288h.252c49.501 30.504 79.417 77.791 89.748 141.859l-16.037 3.141c-10.624-12.377-23.734-32.632-39.332-60.767 4.786 16.948 8.279 34.33 9.369 50.767h-68.872c-13.333-33.695 16.386-135 16.386-135h4.755z" fill="#ff4133"/><path d="m287.935 354.244c6.476 3.903 12.839 5.789 15.825 5.019 7.49-1.93 8.178-29.328 2.383-40.129-5.794-10.801-35.585-15.509-37.086 5.891-.521 7.428 2.597 14.056 7.205 19.465l-8.262 38.51h24z" fill="#feebd5"/><path d="m274.418 349.308c-3.012-13.402-11.593-22.537-10.283-28.526 1.311-5.99 6.986-7.45 6.986-7.45s2.936-11.875 18.935-10.102c15.999 1.774 25.763 8.418 21.546 23.038-3.876 0-8.556-1.402-15.026 1-3.08 1.143-4.406 7.09-4.406 7.09h-2.924s-4.257-7.057-8.395-5.187c-4.138 1.871-1.881 9.088-1.881 9.088l-1.441 11.049z" fill="#ec9e28"/><path d="m224.623 508h77.254l10.123 124h-115z" fill="#c5cfd6"/><path d="m224.623 508h23.76l14.221 124h-65.604z" fill="#000" fill-opacity=".1"/><path d="m344.323 532.567c-8.681 18.411-22.246 63.105-22.246 63.105l11.516 5.262s29.221-46.982 47.079-79.098c-.832 7.23-1.679 15.37-2.464 23.927-1.861 20.27-.001 64.064 1 76.714.629 7.951 11.432 6.285 12.44-.02.171-1.068.867-4.818 1.906-10.412 5.093-27.432 18.423-99.227 18.446-116.807.01-7.073-13.81-13.428-22.047-8.482-5.657-6.037-16.365-9.516-22.517.456-3.911 6.34-13.203 24.338-23.113 45.355z" fill="#feebd5"/><path d="m322.9 579.125 39.528-93.638c9.469-15.232 36.018 3.1 32.789 11.935-7.331 20.057-44.617 84.992-46.801 90.968z" fill="#121772"/><path d="m323.664 590.185c-.692-.944-2.034-1.168-2.93-.414-1.634 1.375-3.986 3.493-4.834 4.963-1.353 2.342-3.167 7.287-3.167 7.287l48.846 28.201s5.538-5.195 1.725-8.066a335.726 335.726 0 0 1 -6.292-4.841l-16.859-23.228a1 1 0 0 0 -1.42-.205l-3.503 2.697s-4.82-.421-7.195-1.791c-1.445-.835-3.211-3.021-4.371-4.603zm55.786 26.099c-1.072-.471-2.346.006-2.745 1.107-.728 2.007-1.705 5.018-1.705 6.715 0 2.705.901 7.894.901 7.894h56.402s2.199-7.268-2.538-7.848c-4.737-.579-7.87-1.046-7.87-1.046l-26.215-11.687a1 1 0 0 0 -1.332.532l-1.685 4.088s-4.385 2.046-7.126 2.046c-1.669 0-4.291-1.011-6.087-1.801z" fill="#e4e4e4"/><path d="m414.77 502.433c0 26.567-12.616 88.537-12.624 94.387l-27.146.021s5.96-82.943 4.227-83.837c-1.734-.893-71.051 6.921-91.841 6.921-29.978 0-42.38-18.905-43.386-53.925h59.386c12.092 1.294 75.163 14.015 98.586 18.388 10.028 1.873 12.798 10.727 12.798 18.045z" fill="#1e2fad"/><path d="m347.348 384.69-34.71 19.01 12.818 13.758 25.221-23.093c13.286-3.661 19.362-6.34 18.228-8.036-.957-1.429-2.499-1.38-3.92-1.334-1.107.036-2.14.069-2.765-.601-1.426-1.531 1.295-6.884 4.095-11.852 2.799-4.969-.194-4.537-1.906-3.822-5.602 3.792-11.289 9.116-17.061 15.97zm34.899 26.674-15.247 8.376.868 15.3s9.875-7.127 18.371-9.496c10.832-3.02 15.214-5.326 20.508-12.071 2.832-3.608 5.235-10.863 2.54-13.225-1.034-.907-4.887 1.234-8.819 3.419-2.996 1.665-6.038 3.355-7.911 3.741-2.523.519-2.228-2.751-1.992-5.363.17-1.875.308-3.412-.647-2.968-4.462.077-7.671 12.287-7.671 12.287z" fill="#feebd5"/><path d="m295.734 399.465c12.158-.128 28.37-2.696 45.668-13.676l6.794 15.15c-11.932 11.841-28.71 21.571-43.38 21.159-11.561-.325-17.469-14.309-9.082-22.633z" fill="#9b4c1f"/><path d="m262.944 503.259c-11.558-1.507-22.178-2.892-28.471-1.653-7.062-22.933-1.198-37.372 4.215-50.701 3.262-8.034 6.361-15.664 6.367-24.508.02-25.755 20.699-65.397 23.742-65.397h27.747c1.24 15.937 6.535 33.193 11.863 50.56 1.244 4.055 2.491 8.117 3.688 12.169 20.165 4.578 64.941-11.356 64.941-11.356s11.303 23.386 10.45 33.344c-26.062 13.614-48.4 19.684-66.803 20.085.585 10.919-.744 21.31-5.209 30.804-5.983 12.721-30.898 9.473-52.53 6.653z" fill="#be5e28"/></g></svg>