<svg xmlns="http://www.w3.org/2000/svg" width="143.478" height="32.005" viewBox="0 0 143.478 32.005"><defs><style>.a{fill:#1c3557;}</style></defs><path class="a" d="M167.7,229.125V216.089q0-4.85,2.577-7.146a9.746,9.746,0,0,1,6.735-2.3,10.235,10.235,0,0,1,6.8,2.144,6.747,6.747,0,0,1,2.555,5.392,2.181,2.181,0,0,1-.433,1.581,1.964,1.964,0,0,1-1.386.411q-1.733,0-1.819-1.256-.26-4.98-5.63-4.981-5.76,0-5.76,6.15v13.036q0,6.15,5.89,6.15a7.244,7.244,0,0,0,2.815-.477,3.41,3.41,0,0,0,1.667-1.386,6.457,6.457,0,0,0,.714-1.559,13.1,13.1,0,0,0,.3-1.733q.13-1.255,1.819-1.256a1.9,1.9,0,0,1,1.386.433,2.268,2.268,0,0,1,.433,1.6,6.891,6.891,0,0,1-2.577,5.478,10.184,10.184,0,0,1-6.821,2.187,9.68,9.68,0,0,1-6.691-2.3Q167.7,233.976,167.7,229.125Z" transform="translate(-167.704 -206.648)"/><path class="a" d="M248.6,263.091a4.856,4.856,0,0,1,2.6-4.737,16.95,16.95,0,0,1,7.536-1.332h2.079v-.916a6.215,6.215,0,0,0-1.191-3.794,4.155,4.155,0,0,0-3.573-1.614,7.474,7.474,0,0,0-3.2.65,10.923,10.923,0,0,1-1.516.65,1.111,1.111,0,0,1-.974-.585,2.277,2.277,0,0,1-.368-1.234q0-1,1.971-1.754a11.548,11.548,0,0,1,4.179-.758q4.244,0,6.258,2.4a9.023,9.023,0,0,1,2.014,6v11.087a1.116,1.116,0,0,1-.5.931,2.094,2.094,0,0,1-1.278.368,1.89,1.89,0,0,1-1.169-.358,1.091,1.091,0,0,1-.476-.907V265.5a8.662,8.662,0,0,1-6.54,3.3,6.077,6.077,0,0,1-4.223-1.46A5.421,5.421,0,0,1,248.6,263.091Zm3.638-.395a3.166,3.166,0,0,0,.91,2.456,3.446,3.446,0,0,0,2.425.834,5.384,5.384,0,0,0,3.53-1.47,4.079,4.079,0,0,0,1.711-3.005V259.23h-1.516q-1.257,0-2.165.066a15.027,15.027,0,0,0-1.884.263,5.153,5.153,0,0,0-1.6.571,2.825,2.825,0,0,0-1.408,2.567Z" transform="translate(-227.16 -236.797)"/><path class="a" d="M326.876,267.156V249.183a1.062,1.062,0,0,1,.5-.909,2.188,2.188,0,0,1,1.278-.346,1.916,1.916,0,0,1,1.169.351,1.092,1.092,0,0,1,.477.921v2.062a7.073,7.073,0,0,1,2.3-2.542,5.793,5.793,0,0,1,3.378-1.052h1.472a1.228,1.228,0,0,1,.975.5,1.792,1.792,0,0,1,.411,1.163,1.706,1.706,0,0,1-.411,1.141,1.245,1.245,0,0,1-.975.482h-1.472a5.105,5.105,0,0,0-3.855,1.772,6.46,6.46,0,0,0-1.646,4.579v9.85a1.137,1.137,0,0,1-.541.885,2.207,2.207,0,0,1-2.534.021A1.124,1.124,0,0,1,326.876,267.156Z" transform="translate(-284.694 -236.797)"/><path class="a" d="M377.7,260.4v-4.548a7.708,7.708,0,0,1,2.534-5.76,8.487,8.487,0,0,1,6.085-2.425,8.366,8.366,0,0,1,5.847,2.262,7.359,7.359,0,0,1,2.468,5.664,5.673,5.673,0,0,1-.3,2.038,2.01,2.01,0,0,1-.931,1.1,3.9,3.9,0,0,1-1.17.417,9.567,9.567,0,0,1-1.451.087h-9.484v1.3a4.712,4.712,0,0,0,1.711,3.811,6.69,6.69,0,0,0,4.439,1.429,6.556,6.556,0,0,0,2.49-.433,11.031,11.031,0,0,0,1.711-.845,2.149,2.149,0,0,1,1.039-.412,1.3,1.3,0,0,1,1.039.541,1.762,1.762,0,0,1,.433,1.1q0,1-1.971,2.036a10.353,10.353,0,0,1-4.872,1.04,10.228,10.228,0,0,1-6.929-2.317A7.647,7.647,0,0,1,377.7,260.4Zm3.595-3.638h8.012a2.805,2.805,0,0,0,1.516-.281,1.29,1.29,0,0,0,.39-1.1,4.763,4.763,0,0,0-1.429-3.421,4.7,4.7,0,0,0-3.508-1.472,4.984,4.984,0,0,0-3.508,1.364,4.4,4.4,0,0,0-1.472,3.357Z" transform="translate(-322.05 -236.797)"/><path class="a" d="M458.594,237.007V207.9a1.027,1.027,0,0,1,.541-.931,2.675,2.675,0,0,1,2.555,0,1.029,1.029,0,0,1,.541.931v27.111h11.823a.961.961,0,0,1,.866.5,2.324,2.324,0,0,1,0,2.3.96.96,0,0,1-.866.5H460.24a1.956,1.956,0,0,1-1.148-.346A1.1,1.1,0,0,1,458.594,237.007Z" transform="translate(-381.506 -206.648)"/><path class="a" d="M531.986,215.363a1.931,1.931,0,0,1-.671-1.451,1.894,1.894,0,0,1,.65-1.429,2.26,2.26,0,0,1,1.6-.607,2.205,2.205,0,0,1,1.559.607,1.9,1.9,0,0,1,.649,1.429,1.962,1.962,0,0,1-.649,1.451,2.163,2.163,0,0,1-1.559.628A2.238,2.238,0,0,1,531.986,215.363Zm-.195,25.487V222.877a1.052,1.052,0,0,1,.52-.909,2.211,2.211,0,0,1,1.256-.346,2.293,2.293,0,0,1,1.3.346,1.052,1.052,0,0,1,.52.909V240.85a1.14,1.14,0,0,1-.541.888,2.2,2.2,0,0,1-2.533.022A1.124,1.124,0,0,1,531.791,240.85Z" transform="translate(-434.956 -210.491)"/><path class="a" d="M565.958,267.156V249.183a1.062,1.062,0,0,1,.5-.909,2.189,2.189,0,0,1,1.278-.346,1.863,1.863,0,0,1,1.147.373,1.1,1.1,0,0,1,.5.9V251a5.879,5.879,0,0,1,2.23-2.369,6.576,6.576,0,0,1,3.573-.966,7.079,7.079,0,0,1,5.349,2.447,8.32,8.32,0,0,1,2.274,5.868v11.174a1.077,1.077,0,0,1-.541.953,2.318,2.318,0,0,1-1.278.346,2.246,2.246,0,0,1-1.234-.345,1.073,1.073,0,0,1-.542-.951V256.013a4.965,4.965,0,0,0-1.472-3.5,4.624,4.624,0,0,0-3.465-1.556,4.563,4.563,0,0,0-3.292,1.4,4.894,4.894,0,0,0-1.429,3.651v11.146a1.131,1.131,0,0,1-.563.885,2.082,2.082,0,0,1-1.256.41,2.033,2.033,0,0,1-1.256-.39A1.125,1.125,0,0,1,565.958,267.156Z" transform="translate(-460.418 -236.797)"/><path class="a" d="M645.217,260.4v-4.548a7.708,7.708,0,0,1,2.534-5.76,8.487,8.487,0,0,1,6.085-2.425,8.366,8.366,0,0,1,5.846,2.262,7.359,7.359,0,0,1,2.469,5.664,5.669,5.669,0,0,1-.3,2.038,2.01,2.01,0,0,1-.931,1.1,3.9,3.9,0,0,1-1.17.417,9.557,9.557,0,0,1-1.451.087h-9.484v1.3a4.712,4.712,0,0,0,1.711,3.811,6.69,6.69,0,0,0,4.439,1.429,6.557,6.557,0,0,0,2.49-.433,11.022,11.022,0,0,0,1.711-.845,2.153,2.153,0,0,1,1.04-.412,1.3,1.3,0,0,1,1.039.541,1.762,1.762,0,0,1,.433,1.1q0,1-1.971,2.036a10.353,10.353,0,0,1-4.872,1.04,10.227,10.227,0,0,1-6.929-2.317A7.646,7.646,0,0,1,645.217,260.4Zm3.595-3.638h8.012a2.806,2.806,0,0,0,1.516-.281,1.291,1.291,0,0,0,.389-1.1,4.762,4.762,0,0,0-1.429-3.421,4.7,4.7,0,0,0-3.508-1.472,4.984,4.984,0,0,0-3.508,1.364,4.4,4.4,0,0,0-1.472,3.357Z" transform="translate(-518.673 -236.797)"/></svg>