<svg fill="none" height="68" viewBox="0 0 77 68" width="77" xmlns="http://www.w3.org/2000/svg" xmlns:xlink="http://www.w3.org/1999/xlink"><clipPath id="a"><path d="m0 0h77v68h-77z"/></clipPath><g clip-path="url(#a)"><path d="m0 0h77v68h-77z" fill="#fff"/><path d="m34 1h-33v12h33z" fill="#fff"/><g fill="#000091"><path d="m11.6562 11.5497c.0041 0 .008-.0059.008-.0059.0318-.0236.0637-.053.0916-.0883-.004 0-.008 0-.012-.0058-.0279.0294-.0597.0647-.0876.1z"/><path d="m16.0695 10.063-.0697.06c.0399-.01.0697-.02.0697-.06z"/><path clip-rule="evenodd" d="m14.6426 11.5817c.1278-.1285.2557-.2649.3835-.4052h-.0039c.2402-.2727.4726-.5337.7515-.7714.0852-.0779.1665-.1441.244-.1987.0114-.0114.0172-.0285.0229-.0452.0059-.0174.0117-.0344.0236-.0444-.0552.0211-.0992.0544-.1435.0879-.0458.0347-.0918.0695-.1509.0913-.0232 0-.0465-.0233-.0232-.0467.0813-.0585.1626-.1208.2401-.1831h-.0155c-.0232 0-.0232-.0234-.0232-.0468-.2884-.0458-.5099.1514-.7081.3279l-.0124.0111c-.0309.0155-.06.0001-.0829-.012-.0116-.0061-.0216-.0114-.0294-.0114-.1754.0588-.3267.1672-.479.2764-.1403.1005-.2814.2016-.4429.2651v-.0467c-.0549.0189-.1091.0436-.1635.0683-.08.0364-.1602.0729-.2433.0914-.1516.0352-.2922.0307-.4285.0263-.0447-.0015-.0891-.0029-.1331-.0029-.2481.0246-.493.0777-.7377.1308l-.0796.0173c-.0039.0019-.0078.0029-.0117.0039-.0038.0009-.0077.0019-.0116.0039-.1472.0389-.2827.0935-.4183.1714l-.0155.0078c-.0053.0071-.0107.0134-.0156.0193-.0059.007-.0112.0133-.0154.0196-.0465.0546-.0891.1013-.1549.1364-.0973.0489-.1814.1243-.2641.1986-.0358.0321-.0715.0642-.1078.0936-.0077.0078-.0232.0117-.0349.0117-.12.1169-.2401.2338-.3641.3467-.0077.0078-.0426.0117-.0697.0078 0 0 .0039 0 .0039-.0039l.0116-.0233.0581-.0935c.0116-.0176.0223-.0351.0329-.0526.0107-.0176.0213-.0351.0329-.0526.031-.0468.0621-.0936.0969-.1364.0077-.0117.0077-.0234 0-.0312-.0078-.0078-.0194-.0117-.031-.0117.1123-.109.244-.2026.3796-.2844v-.0039c-.0155.0039-.0387-.0078-.0271-.0233.0114-.0143.0206-.0307.0294-.0461l.0093-.0163c.002-.0039.0029-.0068.0039-.0097s.0019-.0059.0039-.0098c-.002-.0039-.0049-.0068-.0078-.0097s-.0058-.0058-.0077-.0097l-.0235.0155c-.0281.0183-.0569.0372-.0811.0585-.0171.0147-.0331.0349-.0494.0556-.0356.045-.0731.0924-.1288.0924-.0039 0-.0232 0-.0348-.0039-.0117 0-.0194-.0039-.0233-.0078l.0005-.0034s.0014-.0005.0034-.0005c0 0 .0039-.0038.0039-.0077 0 0 0-.0039.0038-.0039.002-.0039.0039-.0069.0058-.0098.002-.0029.0039-.0058.0059-.0097.0019-.0039.0038-.0068.0058-.0098.0019-.0029.0038-.0058.0058-.0097.0019-.0019.0029-.0049.0038-.0078.001-.0029.002-.0058.0039-.0078l.0044-.008c.0038-.0069.0084-.015.0111-.0232.0019-.0038.0039-.0068.0058-.0097.002-.0029.0039-.0058.0058-.0097.0058-.0078.0107-.0166.0155-.0254.0049-.0087.0097-.0175.0155-.0253.0039-.0078.0078-.0156.0155-.0234.0039-.0078.0078-.0146.0116-.0214.0039-.0068.0078-.0136.0117-.0214.0116-.0195 0-.0351-.0155-.039.0426-.0545.0929-.1013.1549-.1363h-.0077c.0534-.0269.1084-.0584.1631-.0897.0322-.0185.0648-.0372.0964-.0545.0116-.0117.0232-.0234.0387-.0312-.1278.0429-.244.1013-.3563.1793 0 0-.031.0116-.0388.0194 0 0-.0232.0078-.0542-.0194-.0039-.0039-.0039-.0078-.0039-.0156.0135-.0271.0412-.045.0713-.0644.0218-.0141.0447-.0289.0643-.0486.0232 0 .0426 0 .0426.0234.4461-.3498.9962-.4308 1.5481-.512.3395-.0499.6797-.0999.9968-.2127.0329-.0234.0668-.0458.1007-.0682s.0678-.0448.1007-.0682c.0565-.0235.1072-.0638.1608-.1064.0529-.0421.1088-.0866.1762-.1195.1782-.1364.3138-.2922.3835-.5221 0-.0234-.0232-.0468-.0232-.0468-.2944.3156-.6314.565-.9917.7481-.3435.1812-.7115.2081-1.0759.2347-.1369.01-.2733.0199-.4076.038.0232-.0468.0697-.0467.1123-.0467 0-.0554.0265-.0792.0605-.1097.0091-.0082.0188-.0168.0286-.0267h.0659c.0116 0 .0174-.0117.0232-.0234s.0116-.0234.0232-.0234c.0465 0 .1124-.0233.0891-.0233-.0355-.0457-.0871-.0276-.1441-.0077-.0548.0192-.1145.0401-.1696.0077.0205-.0225.0266-.0495.0322-.074.0061-.0266.0115-.0503.0336-.0624h.0891c0-.0468.0465-.0896.0465-.0896.202-.1215.3971-.2275.5885-.3316.1279-.0695.2543-.1382.3799-.21-.0254 0-.048.0105-.0698.0206-.0348.0162-.068.0315-.1084.0028.0232 0 .0232-.0165.0232-.0331s0-.0331.0233-.0331c.1453-.0388.2746-.1018.4067-.166.0933-.0454.1879-.0914.2905-.1301-.0304 0-.0586.0082-.0861.0162-.0529.0153-.1031.0299-.1618-.0162.0154-.0078.0278-.0176.0401-.0274.0247-.0197.0489-.0389.0955-.0389v-.0662c0-.0234.0232-.0234.0465-.0234-.0233 0-.0465-.0233-.0465-.0233.0123-.0248.0365-.0299.0635-.0356.024-.005.0502-.0105.0721-.0307-.0233 0-.0659 0-.0659-.0234.0659-.0896.1782-.1129.2905-.1363-.0116-.0234-.0339-.0234-.0532-.0234-.0194 0-.0359 0-.0359-.0234 0-.0233.0233-.0233.0465-.0233h-.0465c-.0364-.0184-.03-.0511-.0255-.0738.0012-.0062.0023-.0117.0023-.0159.091-.1072.1209-.2337.1507-.3595.0145-.0616.0291-.1231.0507-.182-.0232 0-.0465 0-.0465-.0234-.2178.2417-.563.3333-.8909.4204l-.031.0082h-.1123c-.1123.0467-.2711.0467-.3835-.0234-.0534-.028-.0915-.0631-.1326-.1009-.0275-.0253-.0564-.0518-.092-.0783-.1821-.113-.3603-.2026-.5617-.2727-.5617-.1793-1.1466-.2728-1.7315-.2494.1634-.0898.3368-.1256.5125-.1618.091-.0187.1827-.0376.2738-.0642.0576-.0169.1146-.0344.1712-.0518.3213-.0985.633-.194.9754-.1741-.0448-.0159-.1022-.0102-.155-.0049-.0248.0025-.0486.0049-.0696.0049-.259-.0193-.5205.0383-.7934.0985-.0578.0127-.1161.0256-.175.0378-.1069.0223-.2085.0542-.3103.0862-.1122.0353-.2246.0706-.3444.093-.0519.018-.0937.0485-.1343.0782-.0654.0478-.128.0936-.2259.0816v-.0701c.2247-.2728.4958-.5416.8561-.565.3482-.0567.6765-.0163 1.019.0258.0576.0071.1155.0143.174.021.2808.0226.5435.0852.8266.1527l.0295.007c.0619 0 .0968.0546.1305.1074.0275.0429.0542.0847.0941.0952.0552.019.1103.0226.1655.0261.0804.0052.1608.0104.2412.0635 0-.0157-.0026-.031-.0052-.0461-.0051-.0299-.0102-.0592.0052-.0902.05-.0503.1073-.0368.1637-.0235.0441.0103.0877.0206.1269.0001.1228-.0762.0076-.1933-.1077-.3104-.0556-.0565-.1113-.113-.1403-.1649 0-.0234.0233-.0468.0233-.0468.0509.0456.0983.0928.1452.1396.1176.1171.2327.2316.3932.3124.1123.0467.3835.1129.337-.0234-.0796-.1766-.2155-.3298-.3527-.4844-.0565-.0637-.1132-.1276-.1663-.1935v-.0896c-.0354 0-.0438-.0135-.0544-.0303-.0033-.0053-.0068-.0109-.0115-.0165v-.0896c-.0568-.0298-.0695-.077-.0823-.1245-.0073-.027-.0146-.0541-.03-.0781-.0389-.0629-.0416-.1403-.0445-.2202-.0023-.0635-.0047-.1285-.0253-.1889-.0464-.1364-.0658-.2493-.089-.3857-.0253-.1395-.053-.2729-.0802-.4035-.0479-.2305-.0941-.4522-.1213-.6835-.0358-.3306.1311-.6101.3018-.8959.0506-.0848.1015-.17.1476-.2573.1588-.2728.337-.5416.6313-.7247.0643-.266.239-.4875.4129-.708l.0132-.0167c.1717-.2139.4583-.3447.6695-.441l.0239-.0109c.3138-.1403.5965-.2299.6004-.2299h-15.56v11.996h11.0396c.2952-.214.5887-.3491.9379-.5098.1594-.0733.3304-.152.5185-.246.0399-.0201.0872-.0434.1397-.0692.3153-.1551.8177-.4023 1.0069-.5893zm-3.503-1.6184c-.0438.0044-.0902.009-.0727-.0261.0163-.0789.097-.1025.1759-.1256.0337-.0099.0672-.0197.095-.0337l.0127-.0065.0093-.005c.0437-.0232.0972-.0516.1367-.0351.0266.0379.0596.0477.0916.0571.0239.0071.0472.014.067.0323-.0837.084-.1814.0923-.2804.1007-.0658.0055-.1322.0112-.1956.0391-.0113 0-.0253.0014-.0395.0028zm-3.427-.5479c0 .0234.0233.0468.0233.0468.5423-.6117 1.0342-1.1338 1.7314-1.5663.0187-.0078.0118.002.0025.015-.0137.0193-.0325.0458.0208.0318.2308-.0526.3345-.2504.4353-.4427.0261-.0498.052-.0992.0799-.1456.1057-.1721.256-.2823.4074-.3933.1091-.0801.2189-.1607.313-.2651 0 .0233 0 .0467-.0232.0701.0232.0234.0465.0234.0697.0234.0409-.0309.0855-.0436.1283-.0559.0545-.0156.106-.0303.1429-.0805-.1782-.0701-.4067-.0935-.5849-.0234-.4726.226-.8754.5883-1.2589.9974-.2324.2455-.4726.4753-.767.6351-.2014.4052-.4261.7675-.7205 1.1532zm1.8911-1.449c-.0121.0244-.0243.0371-.0359.0492-.0105.011-.0207.0216-.0299.0401-.0232.0466-.0464.066-.089.0893-.0232 0-.0464 0-.0464-.0233.0232-.0893.089-.1786.178-.2019.0232.0039.0232.0272.0232.0466zm.9905 3.46c.0194-.0195.0426-.0429.0542-.0663.0193-.0467-.1006-.035-.12-.0233-.0175.0141-.0287.0282-.0422.0453l-.0042.0053c-.0161.0186-.035.0358-.0542.0532-.013.0119-.0262.0238-.0387.0364-.0542.0546-.1083.1091-.1664.1598-.0387.035.0851.0506.1122.0272.031-.0233.0581-.0506.0852-.0779.0103 0 .0206-.0017.0275-.0029l.0047-.0007.0026-.0003c.0642-.0215.1119-.0662.1583-.1096l.012-.0112c.0155-.0155-.0039-.0311-.031-.035zm-.3502-.2534-.001.0004-.0004.0034c-.0238.0163-.0473.0329-.0707.0495-.0605.0428-.1207.0854-.185.122-.0614.0346-.1244.0645-.188.0946-.0366.0174-.0734.0349-.1103.0534 0 0 0-.0039-.0038-.0039-.0078-.0117-.0233-.0156-.0388-.0078-.0852.0468-.1588.1091-.2246.1753-.0117.0078-.0233.0195-.031.0312l-.0349.0351v.0039c-.0155.0156-.031.0311-.0503.0545-.0041.0041-.0072.0081-.0101.012-.0056.0073-.0108.0141-.0209.0192-.0155.0078-.0543.0078-.0504-.0156v-.0039c-.0116.0078-.0271.0156-.0387.0195-.0058.0039-.0116.0068-.0174.0097-.0059.0029-.0117.0059-.0175.0098-.0039-.0039-.0116-.0039-.0155-.0039-.0038 0-.0116 0-.0155.0039-.009.0078-.018.0151-.0271.0225-.0181.0147-.0361.0294-.0542.0476-.0465.0429-.0891.0896-.1317.1403 0 0 0 .0038-.0039.0038 0 .002-.0019.0039-.0019.0039l-.002.0039-.0077.0078c-.0015.0015-.0032.0043-.0032.0043-.0012.002-.0022.0035-.0046.0035l-.0038.0039c-.0039.0078-.0078.0156-.0155.0234-.0039.0039-.0116.0078-.0194.0078-.0039-.0039-.0077-.0078-.0077-.0117-.002-.0019-.0029-.0039-.0039-.0058-.001-.002-.0019-.0039-.0039-.0059-.0039-.0058-.0068-.0117-.0097-.0175-.0029-.0059-.0058-.0117-.0096-.0176v-.0038c0-.002-.001-.0039-.002-.0059-.001-.0019-.0019-.0058-.0019-.0058l.0697-.0819.0039-.0038c.0038-.0039.0077-.0088.0116-.0137.0039-.0048.0077-.0097.0116-.0136.0058-.0078.0126-.0156.0194-.0234s.0135-.0156.0194-.0234c.0019-.0039.0038-.0068.0058-.0097.0019-.0029.0038-.0059.0058-.0098.0232-.0311.0465-.0623.0697-.0974v-.0039c.0039-.0038.0077-.0077.0077-.0155.0117-.0156.0233-.0312.031-.0468l.0233-.0467v-.0039l.0038-.0039c0-.002.002-.0039.002-.0039l.0019-.0039c.0039-.0098.0078-.0185.0116-.0273.0039-.0087.0078-.0175.0117-.0273v-.0039l.0038-.0156c.002-.0038.0029-.0077.0039-.0116s.0019-.0078.0039-.0117v-.0039c.0019-.0059.0029-.0117.0039-.0176.0009-.0058.0019-.0116.0038-.0175 0-.0039 0-.0117-.0038-.0156.0232-.0428.0542-.0818.089-.1208 0 0-.0038.001-.0058.002l-.0033.0015-.0025.0004c-.0172.0109-.0321.0253-.0472.0401-.012.0117-.0242.0236-.038.034-.0232.0195-.0697-.0117-.0387-.0351.0193-.0156.0348-.0312.0503-.0467 0 0 0-.0039.0039-.0039.0154-.014.0303-.0299.0452-.0458.0226-.0241.0454-.0485.071-.0672.0271-.0195.0465-.0351.0697-.0546.0039-.0039.0078-.0078.0117-.0078.0154-.0194.0309-.0389.0503-.0584 0 0 .0039 0 .0039-.0039.133-.129.3199-.1745.5107-.221.1203-.0293.2422-.0589.3531-.1102.0626-.026.1324-.0158.2014-.0056.0548.008.1091.016.1588.0056.0659 0 .1356 0 .2014.0468-.1531.0815-.2993.1748-.4439.2671-.0419.0267-.0837.0534-.1255.0796zm.4841-1.5879c-.0182.0021-.0299.0034-.0199.0135.0659.0663.2015.0429.2944-.0077.0659-.0468.1356-.0468.2247-.0468.0232 0 .0232-.0429.0232-.0662.0659.0233.1124.0233.1782.0233.5384-.1129 1.0575-.2259 1.5533-.4753-.5017-.3876-1.1202-.5603-1.726-.7294-.1005-.0281-.2006-.056-.2999-.0849.0219 0 .0437.0073.0656.0146.0443.0148.0892.0297.1359-.0146-.0615-.049-.1299-.0584-.1977-.0676-.0561-.0077-.1117-.0154-.1626-.0453.0053 0 .0117.0012.0185.0025.0232.0045.0527.0102.0706-.0259-.1176-.0592-.2353-.0793-.3541-.0996-.0611-.0104-.1225-.0209-.1843-.0368.1123-.0234.1821-.113.1821-.226 0-.0233-.0465-.0233-.0698-.0233-.2672.1363-.4493.3857-.5616.6779.1012.0596.2104.0527.3174.0459.0608-.0038.1208-.0076.1784.0008-.0508.0483-.1242.0614-.1948.074-.0263.0047-.0522.0093-.0764.0156-.0697.0156-.1355.0663-.1123.113.0155.0195.031.0273.0504.0312-.0504.0156-.0969.039-.1395.0818.0638.0502.1295.0405.1944.031.0258-.0038.0514-.0076.0768-.0076 0 .0283.0185.0379.0378.0479.01.0051.0201.0104.028.0183-.1123.0429-.2014.1364-.2247.2026-.0277.0675-.079.1114-.1298.1548-.0343.0294-.0683.0585-.0948.0946v.0701c-.0749.0663-.1518.1256-.2276.184-.1558.12-.3072.2366-.427.4043.0232 0 .0232.0234.0232.0468-.0214.0323-.0519.0547-.0808.0759-.0338.0249-.0655.0481-.078.0838 0 .0234 0 .0468.0232.0468.1422-.047.2651-.1261.3857-.2037.1094-.0703.2169-.1394.3348-.1821.0964-.0231.1803-.0668.2622-.1095.0695-.0362.1375-.0716.2104-.0931.0561-.0116.1181-.0282.1801-.0448.062-.0165.1239-.0331.1801-.0448 0 .0234 0 .0468.0233.0468h.1781c-.0109.0265-.0455.0305-.0692.0332z" fill-rule="evenodd"/></g><path d="m33.9997 1h-12.9034s.0234.0039.1209.0546c.1053.0546.2419.1288.3238.1717.1677.0858.3276.195.4329.3628.0469.0663.1132.2028.0703.2926-.0468.1131-.0703.2965-.1834.3394-.1365.0702-.3159.0702-.4759.0468-.0897 0-.1794-.0234-.273-.0468.3394.1365.6592.2965.8855.6125.0234.0468.1131.0663.2028.0663.0234 0 .0234.0468.0234.0663-.0468.0468-.0897.0702-.0663.1365h.0663c.1131-.0468.0897-.2731.2496-.2028.1132.0663.16.2262.0897.3394-.0897.0897-.1794.1599-.273.2262-.0234.0469-.0234.1132 0 .16.0663.0897.0897.1794.1131.2731.0702.1599.0897.3394.1599.4993.0898.3394.1795.6788.16 1.0221 0 .1795-.0897.3394-.0234.5228.0468.1794.1599.316.2496.4759.0897.1366.1794.2263.2497.3628.1365.2263.3861.4526.273.7257-.0663.1599-.316.1365-.4759.2262-.1365.1132-.0234.2965.0468.4096.1131.2029-.1365.3394-.2964.4097.0468.0702.1365.0468.1599.0897.0234.1131.1365.1794.0663.2965-.0897.1365-.3627.2028-.2262.4096.0897.16.0312.3355-.0234.4994-.0663.2028-.2497.2925-.4096.3394-.1365.0468-.2964.0468-.4291.0234-.0468-.0234-.0897-.0469-.1365-.0469-.3862-.0468-.7723-.156-1.1546-.156-.1131.0234-.2262.0429-.3159.0897-.1015.0742-.1951.1561-.2731.2419 0 0 0 0-.0039.0039-.0156.0195-.0351.0351-.0507.0546-.0078.0117-.0195.0234-.0273.0351-.0078.0078-.0117.0156-.0195.0234-.0663.082-.1248.1717-.1794.2614-.0039.0078-.0078.0117-.0117.0156-.0039.0117-.0117.0195-.0195.0312-.0742.1366-.1288.277-.1717.4175-.156.5188-.0858.9635.0234 1.0728.0312.0312.749.2536 1.2482.4759.2341.1054.3979.1834.5344.2692h12.6694v-12z" fill="#e1000f"/><path d="m21.8636 5.3747c.0895.0234.2257.0234.2257.0701-.0467.1792-.3152.226-.4513.4091h-.0701c-.0661.0468-.0467.1598-.1128.1598-.0661-.0234-.1362 0-.2023.0233.0895.0896.2023.1598.3385.1364.0233 0 .0661.0467.0661.0896 0 0 .0234 0 .0467-.0234.0233 0 .0467 0 .0467.0234v.0896c-.0662.0896-.1829.0468-.2723.0662.1828.0468.3618.0468.5213 0 .1361-.0467 0-.2727.0895-.3857-.0467 0 0-.0701-.0467-.0701.0467-.0467.0895-.113.1361-.1364.0467 0 .1129-.0233.1362-.0701 0-.0467-.0895-.0662-.07-.113.1361-.0896.249-.2259.2023-.3623-.0234-.0701-.2023-.0701-.3151-.113-.1129-.0429-.249 0-.3852.0234-.1128 0-.2257.0701-.3385.0896-.1595.0467-.2957.1364-.4279.226.1595-.0663.3151-.0896.498-.1364.1361.0039.2489-.0273.3851.0039z" fill="#808080"/><path d="m2.23608 27h1.704v-3.396h.876l2.232 3.396h2.04l-2.64-3.72c.852-.408 1.344-1.164 1.344-2.172 0-1.56-1.14-2.508-2.988-2.508h-2.568zm2.664-6.948c.72 0 1.14.396 1.14 1.032 0 .684-.42 1.068-1.14 1.068h-.96v-2.1zm8.62732-2.172 1.56-1.62h-1.752l-1.356 1.62zm-3.204 9.12h4.896v-1.452h-3.192v-2.1h2.712v-1.452h-2.712v-1.944h3.192v-1.452h-4.896zm7.0561 0h1.704v-3.396h1.068c1.848 0 2.976-.948 2.976-2.496 0-1.56-1.128-2.508-2.976-2.508h-2.772zm2.844-6.948c.72 0 1.152.396 1.152 1.032 0 .684-.432 1.068-1.152 1.068h-1.14v-2.1zm9.4471 3.804c0 1.128-.648 1.788-1.692 1.788-1.068 0-1.704-.66-1.704-1.788v-5.256h-1.704v5.112c0 2.208 1.296 3.528 3.396 3.528 2.112 0 3.408-1.32 3.408-3.528v-5.112h-1.704zm4.0008 3.144h2.568c1.932 0 3.12-.936 3.12-2.472 0-.876-.492-1.596-1.38-1.992.576-.396.888-.984.888-1.656 0-1.416-1.056-2.28-2.808-2.28h-2.388zm2.424-6.948c.648 0 1.02.348 1.02.912 0 .6-.372.924-1.02.924h-.72v-1.836zm.24 3.3c.792 0 1.272.384 1.272 1.08s-.48 1.116-1.272 1.116h-.96v-2.196zm4.9429 3.648h4.896v-1.548h-3.192v-6.852h-1.704zm6.5756 0h1.704v-8.4h-1.704zm11.2759-.216-.504-.48c1.032-.816 1.656-2.1 1.656-3.504 0-2.4-1.812-4.44-4.452-4.44-2.652 0-4.464 2.04-4.464 4.44s1.812 4.44 4.464 4.44c.408 0 .792-.048 1.152-.144l.996.888c.828.72 1.692 1.104 2.628 1.104.372 0 .612-.048.888-.156v-1.44c-.18.072-.42.096-.6.096-.54 0-1.116-.216-1.764-.804zm-3.3-1.14c-1.584 0-2.712-1.236-2.712-2.844s1.128-2.844 2.712-2.844c1.572 0 2.7 1.236 2.7 2.844s-1.128 2.844-2.7 2.844zm11.219-1.788c0 1.128-.648 1.788-1.692 1.788-1.068 0-1.704-.66-1.704-1.788v-5.256h-1.704v5.112c0 2.208 1.296 3.528 3.396 3.528 2.112 0 3.408-1.32 3.408-3.528v-5.112h-1.704zm4.0007 3.144h4.896v-1.452h-3.192v-2.1h2.712v-1.452h-2.712v-1.944h3.192v-1.452h-4.896zm-68.81342 12h1.704v-3.552h2.712v-1.452h-2.712v-1.944h3.192v-1.452h-4.896zm6.5756 0h1.70402v-3.396h.876l2.232 3.396h2.04l-2.64-3.72c.852-.408 1.344-1.164 1.344-2.172 0-1.56-1.14-2.508-2.988-2.508h-2.56802zm2.66402-6.948c.72 0 1.14.396 1.14 1.032 0 .684-.42 1.068-1.14 1.068h-.96v-2.1zm4.7306 6.948h1.812l.8041-2.184h3.36l.804 2.184h1.8119l-3.1799-8.4h-2.2321zm3.1441-3.636 1.152-3.156 1.152 3.156zm6.9251 3.636h1.704v-6.036l3.756 6.036h2.184v-8.4h-1.704v6.012l-3.756-6.012h-2.184zm13.9173-1.356c-1.584 0-2.712-1.236-2.712-2.844s1.128-2.844 2.712-2.844c.96 0 1.716.468 2.196 1.152l1.344-1.044c-.768-1.02-2.016-1.704-3.54-1.704-2.652 0-4.464 2.04-4.464 4.44 0 2.136 1.44 3.984 3.624 4.368l-1.056 1.764h1.512l1.044-1.74c1.224-.156 2.232-.78 2.88-1.668l-1.344-1.032c-.48.684-1.236 1.152-2.196 1.152zm4.0842 1.356h1.812l.804-2.184h3.36l.804 2.184h1.812l-3.18-8.4h-2.232zm3.144-3.636 1.152-3.156 1.152 3.156zm6.9251 3.636h1.704v-8.4h-1.704zm3.4759-1.164c.744.888 1.704 1.404 3.12 1.404 1.536 0 2.76-.96 2.784-2.52 0-2.844-3.84-2.496-3.84-3.996 0-.492.384-.876.972-.876.636 0 1.188.408 1.68 1.044l1.248-1.116c-.708-.852-1.68-1.416-2.94-1.416-1.596 0-2.688 1.104-2.688 2.436 0 2.796 3.84 2.46 3.84 3.96 0 .612-.408.972-1.08.972-.684 0-1.356-.384-1.86-1.032zm7.8707 1.164h4.896v-1.452h-3.192v-2.1h2.712v-1.452h-2.712v-1.944h3.192v-1.452h-4.896z" fill="#161616"/><path clip-rule="evenodd" d="m32.18 61.614-1.1162 1.0199h-.288l.6601-1.1639h.7441zm-.8041 3.9474h-.24c-.3001.3599-.6361.6479-.9602.6479-.336 0-.504-.204-.504-.6479 0-.18.024-.372.06-.54l1.9563-.648c.384-.9119-.0721-1.3079-.6121-1.3079-.9242 0-1.9803 1.6199-1.9803 2.9158 0 .612.288.948.7441.948.5281-.012 1.0801-.528 1.5362-1.3679zm-.6713-1.9676c.264 0 .492.204.372.6719l-1.2122.324c.1921-.5759.5521-.9959.8402-.9959zm-3.816.0237h.6481l-1.0322 2.8318c-.096.24.036.48.288.48.7322 0 1.6083-.624 1.9443-1.5119h-.18c-.264.372-.8401.7799-1.2722.8519l.9482-2.6518h.9721l.12-.408h-.9481l.36-1.0199h-.372l-.6721 1.0199-.8041.108zm-.9008-.5393c.132 0 .312.144.228.408l-1.1642 2.8198c.3001-.048.6121-.336.7922-.6h.192c-.2761.708-.9002 1.224-1.4402 1.224-.132 0-.3241-.144-.2281-.408l1.0802-2.8198c-.3.048-.6121.3359-.7921.5999h-.18c.276-.7199.9481-1.2239 1.5122-1.2239zm.3368-.7203c.2401 0 .4441-.192.4441-.444 0-.2399-.204-.4439-.4441-.4439-.252 0-.444.204-.444.4439 0 .24.204.444.444.444zm-5.2449 2.3402c.264-.576.168-.84 0-.84-.144 0-.3121.156-.4801.444h-.18c.276-.6119.6361-1.2239 1.0321-1.2239.3361 0 .4561.336.4561.708v.5279c.054-.0628.1066-.1245.158-.1848l.0009-.0011.0008-.0009c.507-.5949.8942-1.0491 1.3405-1.0491.3481 0 .5281.216.5281.54 0 .192-.06.4319-.192.6839l-.9962 2.0039c.3001-.048.6121-.336.7921-.6h.1801c-.2761.72-.9482 1.224-1.5122 1.224-.2521 0-.3961-.264-.2881-.48l1.1522-2.2199c.132-.252.156-.4199-.048-.4199-.2761 0-.9242.4559-1.2722.8759l-.7561 1.9919c-.084.204-.168.252-.3601.252-.312 0-.468-.204-.324-.528zm-.781-.7687c.132-.4559.06-.8639-.2881-.8639-.434 0-.5699.2866-.9906 1.1736l-.0295.0623v-.5279c0-.372-.12-.708-.4561-.708-.396 0-.7561.612-1.0321 1.2239h.18c.192-.276.3721-.4439.5161-.4439.168 0 .264.2639 0 .8399l-.7681 1.7039c-.144.324.012.528.324.528.1921 0 .2761-.048.3601-.252l.7561-1.9919c.216-.264.408-.492.6481-.744zm-3.7923.3363c.12-.4679-.108-.6719-.372-.6719-.2881 0-.6481.42-.8402.9959zm.2993 1.2957h-.24c-.3001.3599-.6361.6479-.9602.6479-.336 0-.504-.204-.504-.6479 0-.18.024-.372.06-.54l1.9563-.648c.384-.9119-.072-1.3079-.6121-1.3079-.9242 0-1.9803 1.6199-1.9803 2.9158 0 .612.288.948.7441.948.5281-.012 1.0802-.528 1.5362-1.3679zm-3.8392-1.9439h-.6481v-.3l.8041-.108.6721-1.0199h.372l-.36 1.0199h.9481l-.12.408h-.9721l-.9482 2.6518c.4321-.072 1.0082-.4799 1.2722-.8519h.18c-.336.8879-1.2121 1.5119-1.9442 1.5119-.2521 0-.3841-.24-.2881-.48zm-4.08 2.1961c0-.8759.9721-2.0519 1.5122-2.0519.12 0 .24.012.336.048l-.564 1.512c-.3241.3959-.8282.8759-1.0682.8759-.132 0-.216-.12-.216-.384zm2.6767-2.9278.3.024-1.0441 2.3999c-.2521.5759-.1441.8399 0 .8399.144 0 .324-.168.516-.4439h.1801c-.2761.6119-.6361 1.2239-1.0322 1.2239-.336 0-.5401-.36-.4801-1.008l.024-.2279-.0653.0912c-.4299.6009-.8189 1.1447-1.2188 1.1447-.3481 0-.5281-.216-.5281-.54 0-1.3919 1.5242-3.1678 2.9524-3.1678h.06zm-2.7492 1.0436c.132-.4559.06-.8639-.288-.8639-.4341 0-.57.2866-.9906 1.1736l-.0296.0623v-.5279c0-.372-.12-.708-.456-.708-.3961 0-.7561.612-1.0322 1.2239h.18c.1921-.276.3721-.4439.5041-.4439.168 0 .2641.2639 0 .8399l-.7681 1.7159c-.144.324.012.528.324.528.1921 0 .2761-.048.3601-.252l.7561-1.9919c.216-.264.4081-.492.6481-.744h.7921zm-4.9456 2.6392-.072.216h-2.7964l.072-.228c.8641-.156 1.0082-.228 1.3682-1.2l.7801-2.0878c.3481-.972.2761-1.044-.48-1.2l.072-.216h3.6365l-.216 1.164h-.2641c0-.696-.072-.876-.7321-.876h-.168c-.6481 0-.7321.096-.9121.6l-.5161 1.4039h.7561c.5041 0 .6961-.312.9241-.72h.2641l-.6241 1.7039h-.2641c.06-.5159.06-.7199-.408-.7199h-.7561l-.3481.9599c-.3762.9992-.2687 1.0196.6272 1.1892.0186.0035.0376.0071.0569.0108z" fill="#000" fill-rule="evenodd"/><path clip-rule="evenodd" d="m6.2448 52.4341-1.1162.8044v.012h-.2881l.6601-.9605h.7442zm7.8024 5.6307 1.7883-4.7543-.06-.0721-1.2362.1441v.1441l.24.18c.205.1595.1507.3081-.0193.7739l-.0287.0786-1.3682 3.6498c-.108.2161.036.4802.288.4802.5641 0 1.1642-.5163 1.4403-1.2246h-.18c-.1921.2641-.5761.5523-.8642.6003zm8.1966-3.6618 1.1162-1.0205v-.1441h-.7441l-.6601 1.1646zm.0712 2.9174h.2401c-.4441.8524-.9962 1.3687-1.5243 1.3687-.4561 0-.7441-.3362-.7441-.9485 0-1.2966 1.0562-2.9174 1.9803-2.9174.5281 0 .9962.3962.6121 1.3086l-1.9683.6483c-.036.1681-.06.3602-.06.5403 0 .4442.168.6483.5041.6483.324 0 .6601-.2881.9601-.6483zm-.0606-1.2966c.1201-.4562-.108-.6603-.372-.6603-.2761 0-.6361.4202-.8402.9845zm-3.5286-.6366h-.6481v-.3001l.8041-.1081.6722-1.0205h.372l-.36 1.0205h.9481l-.12.4082h-.9722l-.9481 2.6533c.432-.072 1.0081-.4802 1.2722-.8524h.18c-.336.8884-1.2122 1.5127-1.9443 1.5127-.2521 0-.3841-.2401-.2881-.4802zm-1.3203-.1441c.072-.2641-.096-.4082-.24-.4082-.5641 0-1.2363.5163-1.5123 1.2246h.18c.1801-.2641.4921-.5523.7922-.6003l-1.0802 2.8214c-.096.2641.096.4082.228.4082.5401 0 1.1642-.5162 1.4403-1.2246h-.1801c-.18.2641-.4921.5523-.7921.6003zm.553-1.5605c0 .2402-.2041.4443-.4441.4443s-.4441-.2041-.4441-.4443c0-.2401.1921-.4442.4441-.4442.24 0 .4441.2041.4441.4442zm-6.0598 1.8489c-.5401 0-1.5123 1.1766-1.5123 2.0531 0 .2641.084.3841.2281.3841.228 0 .7321-.4802 1.0561-.8764l.5641-1.5127c-.108-.0361-.216-.0481-.336-.0481zm1.4645-.8524-.3-.024-.3361.3362h-.06c-1.4282 0-2.9525 1.7769-2.9525 3.1696 0 .3241.18.5402.5281.5402.3999 0 .7889-.544 1.2189-1.1453l.0653-.0913-.024.2281c-.06.6483.144 1.0085.4801 1.0085.3961 0 .7561-.6123 1.0322-1.2246h-.1801c-.192.2762-.372.4442-.516.4442-.1441 0-.2521-.2641 0-.8404zm-6.0497 3.8901c-.5161.2041-.8762.4442-.8762.8164 0 .3481.3241.4922.9962.4922.9002 0 1.3923-.2641 1.3923-.6123 0-.1561-.2041-.2281-.7442-.4082-.348-.108-.6001-.2041-.7681-.2881zm.5993-1.4768c-.24 0-.324-.2041-.324-.4202 0-.6964.336-1.5608.8761-1.5608.2401 0 .3241.2041.3241.4202-.012.7084-.3481 1.5608-.8762 1.5608zm.4573 1.1285c.6601.2041 1.0682.3601 1.0682.8164 0 .5882-1.0802 1.2846-2.3884 1.2726-.7562 0-1.4043-.2041-1.4043-.6964 0-.4682.4321-.8524 1.4883-1.1645-.144-.0961-.204-.2161-.204-.3842 0-.2882.264-.5163.7201-.7324-.4441-.06-.7322-.3962-.7322-.8884 0-.7564.6242-1.6208 1.6083-1.6208.2041 0 .3841.048.5281.1441h1.0802l-.12.4082h-.6361c.036.108.06.2281.06.3601 0 .7324-.5881 1.5728-1.5243 1.6208-.24.1321-.36.3122-.36.4563 0 .1695.1963.2268.6302.3535.0577.0168.1197.0349.1859.0547zm-3.8055-2.053c.4681 0 .4801.2041.4081.7204h.264l.6242-1.7049h-.2641c-.228.4082-.4201.7204-.9242.7204h-1.0321l.5041-1.4047c.18-.5042.264-.6003.9121-.6003h.4561c.6601 0 .7321.1801.7321.8764h.2641l.216-1.1645h-3.9127l-.072.2161c.7561.1561.8281.2281.4801 1.2006l-.7801 2.101c-.3601.9725-.5041 1.0445-1.3803 1.2006l-.06.2281h4.3448l.7801-1.2366h-.3001c-.504.4922-1.0081.9485-1.9923.9485-1.0825 0-1.0632-.053-.7384-.9456.0209-.0574.0431-.1184.0663-.183l.36-.9605h1.0442z" fill="#000" fill-rule="evenodd"/><path clip-rule="evenodd" d="m8.1496 45.8876c.24 0 .444-.2039.444-.4438s-.204-.4438-.444-.4438c-.2519 0-.4439.2039-.4439.4438 0 .2519.192.4438.4439.4438zm3.5526 1.511c0-.5757-.1439-.7916-.5519-.7916-.5039 0-.9718.5397-1.4397 1.1874l1.0078-2.6988-.06-.0839-1.2357.1439v.144l.2399.1799c.209.1624.1484.3249-.0296.8023l-.0184.0493-1.0917 2.8547c-.096.2399-.204.5278-.204.5998 0 .3358.4559.6597.8758.6597.9358.012 2.5075-1.7153 2.5075-3.0467zm10.402-1.2234 1.1158-1.0196v-.1439h-.7439l-.6598 1.1635zm.0723 2.9147h.2399c-.4559.8516-1.0078 1.3674-1.5357 1.3554-.4559 0-.7438-.3239-.7438-.9356 0-1.2954 1.0558-2.9147 1.9796-2.9147.5279 0 .9958.3958.6119 1.3074l-1.9557.6477c-.0359.168-.0599.3599-.0599.5398 0 .4438.1679.6477.5039.6477.3239 0 .6598-.2879.9598-.6477zm-.0612-1.2954c.12-.4558-.108-.6597-.3719-.6597-.2879 0-.6479.4198-.8398.9836zm-3.5406-.635h-.6479v-.2999l.8038-.108.6719-1.0195h.3719l-.3599 1.0195h.9478l-.12.4079h-.9718l-.9478 2.6508c.4319-.072 1.0078-.4798 1.2718-.8516h.1799c-.3359.8876-1.2117 1.5113-1.9436 1.5113-.2519 0-.3839-.2399-.2879-.4798zm-.9816.3118c.132-.4558.06-.8636-.2879-.8636-.4339 0-.5698.2865-.9903 1.1732l-.0295.0622v-.5277c0-.3719-.12-.7077-.4559-.7077-.3959 0-.7559.6117-1.0318 1.2234h.1799c.192-.2758.372-.4438.5039-.4438.168 0 .264.2639 0 .8397l-.7678 1.7032c-.144.3239.012.5278.3239.5278.192 0 .276-.048.36-.2519l.7558-1.9911c.216-.2639.4079-.4918.6479-.7437zm-3.8029.3232c.1199-.4558-.108-.6597-.372-.6597-.2879 0-.6359.4198-.8398.9836zm.2991 1.2954h-.2399c-.2999.3598-.6359.6477-.9598.6477-.336 0-.5039-.2039-.5039-.6477 0-.1799.024-.3718.06-.5398l1.9556-.6477c.3839-.9116-.072-1.3074-.6119-1.3074-.9238 0-1.9796 1.6193-1.9796 2.9147 0 .6117.2879.9356.7438.9356.5279.012 1.0798-.5038 1.5357-1.3554zm-5.0381.4562c0 .1559.276.3359.4679.3359.7799 0 1.5117-1.4034 1.4997-2.1831 0-.2639-.1319-.3718-.3119-.3718-.2879 0-.8158.4318-1.1518.8396l-.3119.8397c-.108.2758-.192.4917-.192.5397zm-1.2595-2.9384c.144 0 .3119.1439.2399.4078l-1.1517 2.8188c.2999-.048.6118-.3359.7918-.5998h.18c-.276.7077-.8999 1.2235-1.4398 1.2235-.1439 0-.3359-.144-.2399-.4078l1.0798-2.8188c-.3.048-.6119.3359-.7919.5997h-.1799c.2759-.7076.9478-1.2234 1.5117-1.2234zm-4.9801-1.2475h2.5795l-.0719.2279c-.8759.1559-1.0198.2279-1.3798 1.1995l-.7678 2.111c-.3719 1.0076-.276 1.1275.3839 1.1275.8153 0 1.3498-.5924 1.8166-1.1097.0347-.0384.069-.0764.103-.1137h.3l-.8519 1.5113h-3.9232l.072-.2159c.8638-.1559 1.0078-.2279 1.3677-1.1995l.7799-2.123c.3479-.9716.2759-1.0436-.4799-1.1995z" fill="#000" fill-rule="evenodd"/></g></svg>