<svg fill="none" height="42" viewBox="0 0 203 42" width="203" xmlns="http://www.w3.org/2000/svg"><path clip-rule="evenodd" d="m32.3267.197626v9.423164h-11.8592v32.37921h-10.3588v-32.37921h-10.1087v-9.423164zm88.5293-.197626c11.916 0 21.608 9.41476 21.608 20.9882 0 .5901-.026 1.1735-.076 1.7501-.918 10.7572-10.225 19.2381-21.532 19.2381-5.965 0-11.372-2.3604-15.287-6.1684l.14-.1521c2.494-2.8093 4.213-6.1482 5.048-9.7039 1.867 3.5776 5.685 6.0288 10.099 6.0288 5.639 0 10.313-4.003 11.174-9.2425.093-.5707.146-1.1533.146-1.7501 0-6.0709-5.068-10.9909-11.32-10.9909-6.251 0-11.318 5.1932-11.318 10.9934-.002 5.3538-1.96 9.8813-5.191 13.5245-3.968 4.4661-9.8565 7.2981-16.4214 7.2981-11.9148 0-21.6084-9.3408-21.6084-20.8251 0-.5876.0286-1.1718.0783-1.7485.9236-10.66807 10.2283-19.079145 21.5301-19.079145 5.9132 0 11.2749 2.302415 15.1814 6.021245l-.136.15383c-2.45 2.81518-4.1376 6.15487-4.9569 9.70727-1.87-3.5381-5.6833-5.9641-10.0885-5.9641-5.632 0-10.3024 3.9685-11.1721 9.1609-.0952.5683-.1457 1.1542-.1457 1.7485 0 6.028 5.067 10.9119 11.3178 10.9119 6.2525 0 11.3203-5.1075 11.3203-10.9094.0017-5.3546 1.9201-9.8687 5.1011-13.52614 3.966-4.55943 9.895-7.46456 16.509-7.46456zm70.095.0836401c2.909 0 6.084.5194929 8.711 1.4239799l1.852.63718-1.488 9.4929-2.77-1.0574c-2.548-.96926-3.735-1.3366-6.092-1.3366-2.723 0-4.104.8372-4.104 2.4899 0 1.3895 1.61 2.2957 5.031 3.8962 4.602 2.1544 10.909 5.1066 10.909 13.2899 0 8.1673-5.955 13.0436-15.928 13.0436-3 0-5.875-.8321-8.334-1.6114l-1.834-.58 1.075-9.7233 2.931 1.171c.93.3724 4.16 1.582 6.799 1.582 1.363 0 4.899-.643 4.899-3.5734 0-2.0183-1.711-3.0094-5.619-4.794-4.356-1.9871-10.319-4.709-10.319-12.2358 0-7.24598 5.74-12.1147599 14.281-12.1147599zm-144.2581.1130759.3095.000694c5.0885.01902 16.6154.494525 16.6154 12.38209 0 3.9694-2.1108 7.341-5.5452 9.2627.3957.559.7611 1.1844 1.1333 1.8922l.0337.063 8.8516 18.1108h-11.6663l-6.4773-14.2289c-1.0019-2.1321-1.421-2.1882-3.9388-2.1897l-1.0407-.0001v16.4187h-10.3335v-41.711583h11.7666c.0941 0 .1915 0 .2917.000099zm111.3371.00049c14.553 0 16.727 8.421164 16.727 13.440394 0 8.3228-6.096 13.4925-15.909 13.4925h-2.904v14.7762h-10.334v-41.709094zm.109 9.402154h-2.195v8.12864h2.958c1.219 0 5.194-.2984 5.194-4.1433 0-3.2692-4.3-3.98534-5.957-3.98534zm-110.6795.02126h-2.7297v6.33728h2.1437c5.1083 0 5.6598-2.3251 5.6598-3.3229 0-1.9998-1.7076-3.01438-5.0738-3.01438z" fill="#635d98" fill-rule="evenodd"/></svg>