<svg width="1439" height="280" viewBox="0 0 1439 280" fill="none" xmlns="http://www.w3.org/2000/svg">
<path d="M0 131H1440V-6.10352e-05H0V131Z" fill="#4F448F"/>
<path d="M0 279.196C0 279.196 23 281.501 48 275.936C73 270.371 153.5 235.533 206.5 223.5C352.241 190.412 398.747 227.69 472 233.5C576 241.749 571 209 653.5 209C751.682 209 799 232.923 895 245.064C1080 268.46 1102 242.923 1198 233.5C1329 220.641 1366 233.904 1392 238.936C1418 243.968 1440 245.5 1440 245.5V131H1392C1344 131 1248 131 1152 131C1056 131 960 131 864 131C768 131 672 131 576 131C480 131 384 131 288 131C192 131 96 131 48 131H0V279.196Z" fill="#4F448F"/>
</svg>
