<svg width="453" height="401" fill="none" xmlns="http://www.w3.org/2000/svg"><path fill-rule="evenodd" clip-rule="evenodd" d="M376.255 119.982c-.255-.185-.859-.251-1.14-.306a18.42 18.42 0 00-3.562-.331c-3.673.006-7.405.366-11.016.99-2.293.396-5.065 1.729-7.346 1.005-3.973-1.261-7.989-1.199-11.759.602-3.447 1.646-6.063 4.773-7.59 8.152-.231.511-1.165 2.388-1.43 3.654a15.12 15.12 0 00-.32.783 40.62 40.62 0 00-.759 2.281c-.099.326-.348 1.047-.052 1.186a21.852 21.852 0 00-1.24 2.699c-1.014 2.698-2.123 5.657-2.48 8.517a13.308 13.308 0 00-.014 3.185c.06.524.035 1.578.391 1.977.754.846 1.141-.338 1.056-.902-.649-4.3.605-8.337 2.091-12.379.962-2.613 2.541-5.004 4.31-7.169 1.431-1.753 2.967-3.133 4.929-4.295 2.4-1.421 4.966-2.57 7.508-3.722 1.672-.758 3.346-1.496 5.065-2.149.382-.146.983-.519 1.407-.52.896-.003 2.166.658 3.031.904 2.847.809 5.73 1.846 8.673 2.259 1.887.266 3.655-.033 5.42-.662.18-.064.483-.229.853-.465 1.311-.504 2.55-1.138 3.63-2.054.621-.527 1.186-1.209 1.701-1.833a.967.967 0 00.224-.603c.116-.061.194-.132.211-.215.129-.614-1.042-.625-1.792-.589z" fill="#89C5CC"/><path fill-rule="evenodd" clip-rule="evenodd" d="M77.937 171.161a53.28 53.28 0 00-2.116 1.799c-.525.472-1.455 1.038-1.644 1.754-.196.744.423 1.441.912 1.891 2.586 2.379 5.498 3.987 9.08 4.255 5.518.412 10.32-.997 15.106-3.769 3.363-1.948 5.59-4.829 6.076-8.718 4.005 1.664 7.877 3.958 11.169 6.774 1.624 1.389 3.022 2.928 4.316 4.634a54.18 54.18 0 012.374 3.357c.323.501.652 1.39 1.185 1.678.627.339 1.385-.192 1.354-.889-.027-.58-.652-1.252-.945-1.726a62.57 62.57 0 00-1.5-2.335c-.841-1.24-1.71-2.462-2.658-3.622-2.131-2.606-4.842-4.759-7.652-6.595-5.391-3.522-11.308-5.741-17.867-5.929-4.034-.115-7.427 1.263-10.876 3.321-2.148 1.281-4.365 2.541-6.314 4.12z" fill="#DDE3E9"/><path fill-rule="evenodd" clip-rule="evenodd" d="M130.259 154.125c-4.203-4.329-8.421-8.604-13.117-12.416-2.768-2.246-5.684-4.289-8.541-6.419.33.289.653.586.968.891-.891-.606-2.059-.948-3.004-1.508-1.054-.625-2.062-1.34-3.051-2.061-1.93-1.406-3.83-2.839-5.814-4.172-2.21-1.485-4.5-2.857-6.749-4.287-1.907-1.212-3.838-2.54-5.88-3.531-1.112-.541-2.226-1.181-3.343-1.745-.374-.188-4.167-2.583-4.157-2.591.209-.157 2.118.739 2.413.86.862.352 1.687.773 2.516 1.193-.455-.897-.815-1.84-1.011-2.833-.061-.306-.546-2.537-.298-2.724.124-.093 1.334 3.898 1.396 4.281.05.312.043.76.145 1.055.165.477.157.333.52.602.664.492 1.547.8 2.266 1.211.389.216 1.59 1.076 2.314 1.32 2.19 1.064 4.41 2.701 6.49 4.059a15.265 15.265 0 01-1.265-3.224c-.072-.267-.85-2.662-.66-2.804.212-.161 1.693 3.498 1.781 3.844.163.644.197 1.359.401 1.986.224.687.923.93 1.553 1.331a111.97 111.97 0 016.76 4.675c2.402-4.273-.368-9.432-2.702-13.017-1.683-2.584-3.948-4.799-6.34-6.733-3.193-2.581-6.845-4.643-10.493-6.529-4.25-2.198-8.844-3.56-13.62-4.188-2.498-.33-5.053-.32-7.577-.215-1.232.051-2.415.215-3.596.617-.533.181-1.048.41-1.549.666-.38.194-1.303.4-1.521.689-1.804 2.348-2.726 4.686-2.585 7.636.133 2.791 1.015 5.584 2.211 8.075 1.333 2.773 3.046 5.289 5.288 7.402 1.71 1.611 3.622 3.014 5.521 4.398 6.755 4.924 15.319 9.206 24.068 8.105 2.832-.355 5.525-1.346 8.043-2.692.593-.317 1.182-.638 1.742-1.012.378-.253 1.387-1.39 1.766-1.432.521-.056 1.642 1.002 2.13 1.324a201.408 201.408 0 0110.862 7.72c3.765 2.858 7.344 5.912 10.818 9.108a194.018 194.018 0 014.38 4.128c.334.327 1.151 1.531 1.757 1.585.383.035.641-.292.586-.646-.095-.617-1.391-1.539-1.822-1.982z" fill="#C1DEE2"/><path fill-rule="evenodd" clip-rule="evenodd" d="M371.842 137.323c-1.628-.355-3.426-.328-5.084-.299-8.895.121-17.63 4.333-23.314 11.062-4.839 5.728-6.17 12.851-7.126 20.051-.095.714-.135 1.425-.189 2.141a5.54 5.54 0 01-.047.42c-.376.337-.573.728-.35 1.159a48.077 48.077 0 00-2.131 5.588c-1.769 5.643-3.569 11.393-2.46 17.326.259-3.265.804-6.604 1.456-9.816.037-.184.077-.367.119-.549l.013-.058a21.617 21.617 0 011.057-3.276c.104-.255.212-.508.325-.761.039-.086.076-.173.111-.261.531-1.301.755-2.768 1.231-4.114.114-.306.232-.611.357-.914l.023-.053c.337-.817.708-1.623 1.102-2.422.214-.16.328-.559.513-.921.038-.072.336-.548.425-.823.232-.448.462-.896.696-1.344l-.021.008c.233-.43.467-.858.7-1.284l.154-.281.25-.448a85.013 85.013 0 012.463-4.11c.307-.482 1.038-1.173 1.178-1.713.006-.02.007-.039.01-.058 1.862-2.615 4.004-5.027 6.575-6.938-.311.336-.972 1.476-1.146 1.701-.534.691-1.114 1.334-1.696 1.985-1.043 1.167-2.061 2.37-2.965 3.642-1.655 2.327-3.082 4.775-4.431 7.273-.013.015-.027.028-.039.044-.678.836-1.105 2.099-1.593 3.055 1.932-.895 4.068-1.478 6.05-2.272 1.977-.792 3.9-1.674 5.756-2.71 2.468-1.376 5.028-2.93 7.359-4.689 2.672-1.657 4.917-3.939 6.899-6.333 2.345-2.833 4.494-5.69 5.823-9.129.653-1.69 1.166-3.453 1.471-5.236.013-.077.03-.162.049-.249.311-.616.59-1.245.824-1.889.37-1.022 1.247-2.146-.397-2.505z" fill="#69A1AC"/><path fill-rule="evenodd" clip-rule="evenodd" d="M62.194 142.743c-.645-.643-1.37-1.223-2.22-1.637-.216-.105-1.818-.806-1.922-.652-.243.358 3.948 2.084 4.142 2.289zm7.596-4.297c-.005.027.55.895.702 1.162.322.568.619 1.146.899 1.726-.414-1.024-.84-1.974-1.6-2.888zm-38.85 7.066c-.535.159-1.178-.466-.484-.621.562-.123.534-.152.786-.569.205-.338.331-.751.511-1.105.381-.754.813-1.472 1.344-2.144 1.137-1.442 2.523-2.685 4.077-3.732 2.712-1.828 5.753-3.498 8.98-4.337 5.128-1.335 10.966-1.417 16.103-.492 3.182.573 6.09 1.569 8.202 3.928 1.056 1.178 1.885 2.56 2.247 4.081.095.397.077.839.195 1.229.182.598.102.438.862.555.83.127 1.66.257 2.488.389 2.17.346 4.354.713 6.469 1.274.696.184 1.377.41 2.042.672.502.198 2.505.82 2.749 1.422.405 1.001-.953.547-1.374.329-.37-.191-.75-.369-1.134-.533a19.73 19.73 0 00-3.01-.987c-1.117-.275-2.255-.479-3.39-.685a130.43 130.43 0 00-3.181-.532c-.59-.093-1.181-.182-1.772-.273-.202-.03-.558-.191-.531.051-1.243-.221-2.587-.189-3.852-.25-1.55-.074-3.106-.135-4.661-.091-1.122.033-2.245.1-3.36.239-.653.081-1.294.2-1.934.35-.352.083-1.737.258-1.929.54.082-.122 1.612-.004 1.806-.011a34.878 34.878 0 002.327-.177c1.44-.148 2.88-.226 4.325-.215-.006.234-.992.649-1.233.804-.54.347-1.057.726-1.54 1.141-.85.731-1.867 1.637-2.455 2.503.173-.255 1.028-.587 1.331-.782.486-.313.962-.646 1.412-1.003.416-.329.804-.684 1.186-1.048.381-.363.9-1.118 1.4-1.36.03-.015.25.144.374.09.125-.055.28-.327.312-.338.467-.166 1.353.041 1.844.062 1.272.053 2.544.124 3.815.189.393.019.729-.063.877.204.159.286-.132 1.036-.214 1.347-.307 1.154-.851 2.189-1.709 3.083-1.605 1.676-3.584 2.792-5.82 3.539-8.564 2.862-17.676 4.007-26.237 1.031-3.544-1.232-8.883-3.434-8.243-7.767z" fill="#89C5CC"/><path opacity=".6" fill-rule="evenodd" clip-rule="evenodd" d="M422.911 280.313c5.823 36.32-135.417 60.011-256.986 43.478-121.57-16.533-177.34-81.097-119.329-115.499 58.011-34.402 370.491 35.7 376.315 72.021z" fill="#DDE3E9"/><path d="M112.653 66.834a3.82 3.82 0 013.819-3.82h68.26a3.82 3.82 0 013.819 3.82v136.53a3.82 3.82 0 01-3.819 3.819h-68.26a3.82 3.82 0 01-3.819-3.819V66.834z" fill="#F2F2F2"/><path fill-rule="evenodd" clip-rule="evenodd" d="M150.364 198.113a7.16 7.16 0 10-.001-14.321 7.16 7.16 0 00.001 14.321zM144.158 72.562a.954.954 0 10.001-1.909.954.954 0 00-.001 1.909z" fill="#fff"/><path d="M147.5 71.607c0-.527.427-.955.954-.955h8.115a.954.954 0 110 1.91h-8.115a.954.954 0 01-.954-.955zM119.336 78.29a1.91 1.91 0 011.91-1.91h58.713a1.91 1.91 0 011.909 1.91v21.96a1.91 1.91 0 01-1.909 1.909h-58.713a1.91 1.91 0 01-1.91-1.909V78.29z" fill="#fff"/><path d="M137.953 85.547c0-.791.641-1.432 1.432-1.432h31.982c.791 0 1.432.64 1.432 1.432v1.002c0 .791-.641 1.432-1.432 1.432h-31.982a1.432 1.432 0 01-1.432-1.432v-1.002zM137.953 91.991c0-.79.641-1.432 1.432-1.432h20.525c.791 0 1.433.641 1.433 1.432v1.003c0 .79-.642 1.432-1.433 1.432h-20.525a1.432 1.432 0 01-1.432-1.432V91.99z" fill="#DDE3E9"/><path fill-rule="evenodd" clip-rule="evenodd" d="M129.36 94.999a5.728 5.728 0 100-11.456 5.728 5.728 0 000 11.456z" fill="#C5CFD6"/><path d="M119.336 107.888a1.91 1.91 0 011.91-1.909h58.713a1.91 1.91 0 011.909 1.909v16.231a1.91 1.91 0 01-1.909 1.91h-58.713a1.91 1.91 0 01-1.91-1.91v-16.231z" fill="#fff"/><path d="M137.953 113.426c0-.791.641-1.432 1.432-1.432h31.982c.791 0 1.432.641 1.432 1.432v.143c0 .791-.641 1.432-1.432 1.432h-31.982a1.432 1.432 0 01-1.432-1.432v-.143zM137.953 118.438c0-.791.641-1.432 1.432-1.432h20.525c.791 0 1.433.641 1.433 1.432v.143c0 .791-.642 1.433-1.433 1.433h-20.525a1.433 1.433 0 01-1.432-1.433v-.143z" fill="#DDE3E9"/><path fill-rule="evenodd" clip-rule="evenodd" d="M129.36 121.732a5.728 5.728 0 100-11.456 5.728 5.728 0 000 11.456z" fill="#C5CFD6"/><path d="M119.336 131.757a1.91 1.91 0 011.91-1.909h58.713a1.91 1.91 0 011.909 1.909v16.231a1.91 1.91 0 01-1.909 1.91h-58.713a1.91 1.91 0 01-1.91-1.91v-16.231z" fill="#fff"/><path d="M137.953 137.295c0-.791.641-1.432 1.432-1.432h31.982c.791 0 1.432.641 1.432 1.432v.143c0 .791-.641 1.432-1.432 1.432h-31.982a1.432 1.432 0 01-1.432-1.432v-.143zM137.953 142.307c0-.791.641-1.432 1.432-1.432h20.525c.791 0 1.433.641 1.433 1.432v.143c0 .791-.642 1.432-1.433 1.432h-20.525a1.432 1.432 0 01-1.432-1.432v-.143z" fill="#DDE3E9"/><path fill-rule="evenodd" clip-rule="evenodd" d="M129.36 145.601a5.728 5.728 0 100-11.456 5.728 5.728 0 000 11.456z" fill="#AFB9C5"/><path d="M119.336 155.626a1.91 1.91 0 011.91-1.909h58.713a1.91 1.91 0 011.909 1.909v16.231a1.91 1.91 0 01-1.909 1.91h-58.713a1.91 1.91 0 01-1.91-1.91v-16.231z" fill="#fff"/><path d="M137.953 161.164c0-.791.641-1.432 1.432-1.432h31.982c.791 0 1.432.641 1.432 1.432v.143c0 .791-.641 1.432-1.432 1.432h-31.982a1.432 1.432 0 01-1.432-1.432v-.143zM137.953 166.176c0-.791.641-1.432 1.432-1.432h20.525c.791 0 1.433.641 1.433 1.432v.143c0 .792-.642 1.433-1.433 1.433h-20.525a1.432 1.432 0 01-1.432-1.433v-.143z" fill="#DDE3E9"/><path fill-rule="evenodd" clip-rule="evenodd" d="M129.36 169.47a5.728 5.728 0 100-11.456 5.728 5.728 0 000 11.456z" fill="#C5CFD6"/><path fill-rule="evenodd" clip-rule="evenodd" d="M127.04 179.495c-.632 0-1.263.013-1.894.045-.482.026-1.217-.074-1.625.226-.423.312-.394.95-.327 1.4.349 2.384 1.202 4.496 2.987 6.185 2.748 2.599 5.898 3.92 9.625 4.508 2.619.414 5.036-.16 6.964-2.022 1.409 2.614 2.477 5.507 3.013 8.426.264 1.441.345 2.865.299 4.332-.03.939-.082 1.877-.183 2.812-.044.406-.251 1.021-.092 1.405.187.451.817.495 1.099.11.235-.32.192-.948.241-1.327.08-.629.154-1.259.207-1.891a34.72 34.72 0 00.145-3.076c-.011-2.307-.524-4.624-1.225-6.814-1.346-4.202-3.53-7.937-6.927-10.867-2.089-1.802-4.48-2.531-7.191-2.923-1.689-.244-3.405-.529-5.116-.529z" fill="#89C5CC"/><path fill-rule="evenodd" clip-rule="evenodd" d="M136.793 196.204c-6.825 0-11.422 5.501-13.596 11.219-.819 2.155-1.011 4.522-1.327 6.785-.101.726-.064 1.833-.359 2.48-.106.234-.352.318-.234.638.071.194.21.313.419.351.429.079 1.036-.389 1.405-.573 3.053-1.532 5.058-3.899 6.695-6.796 1.015-1.796 2.044-3.66 2.646-5.631.368-1.204.583-2.472.709-3.722.049-.492.097-.995.094-1.49-.003-.491-.231-.751-.396-1.178 2.278-.862 4.849-1.097 7.156-.204 2.133.826 3.906 2.423 4.898 4.43.258.521.457 1.071.602 1.632.095.368.099.844.275 1.177.426.805 1.322.267 1.236-.483-.24-2.091-1.436-4.191-2.965-5.646-1.929-1.834-4.543-2.989-7.258-2.989z" fill="#89C5CC"/><path d="M144.158 79.245a3.82 3.82 0 013.819-3.819h68.26a3.82 3.82 0 013.819 3.82v136.53a3.82 3.82 0 01-3.819 3.819h-68.26a3.82 3.82 0 01-3.819-3.819V79.246z" fill="#DDE3E9"/><path fill-rule="evenodd" clip-rule="evenodd" d="M181.868 210.525a7.16 7.16 0 007.16-7.161 7.16 7.16 0 10-14.32 0 7.16 7.16 0 007.16 7.161zM175.663 84.974a.955.955 0 100-1.91.955.955 0 000 1.91z" fill="#fff"/><path d="M179.004 84.019c0-.528.427-.955.955-.955h8.115a.955.955 0 010 1.91h-8.115a.954.954 0 01-.955-.955zM150.841 90.703a1.91 1.91 0 011.909-1.91h58.714a1.91 1.91 0 011.909 1.91v21.959a1.91 1.91 0 01-1.909 1.91H152.75a1.91 1.91 0 01-1.909-1.91v-21.96z" fill="#fff"/><path d="M155.137 97.959c0-.791.641-1.433 1.432-1.433h31.982c.791 0 1.432.642 1.432 1.433v1.002c0 .791-.641 1.432-1.432 1.432h-31.982a1.432 1.432 0 01-1.432-1.432v-1.002zM155.137 104.403c0-.791.641-1.432 1.432-1.432h20.526c.791 0 1.432.641 1.432 1.432v1.003c0 .791-.641 1.432-1.432 1.432h-20.526a1.432 1.432 0 01-1.432-1.432v-1.003z" fill="#DDE3E9"/><path fill-rule="evenodd" clip-rule="evenodd" d="M206.69 105.024a3.342 3.342 0 100-6.683 3.342 3.342 0 000 6.683z" fill="#DDE3E9"/><path fill-rule="evenodd" clip-rule="evenodd" d="M206.69 103.114a1.432 1.432 0 100-2.864 1.432 1.432 0 000 2.864z" fill="#F2F2F2"/><path d="M150.841 120.3a1.91 1.91 0 011.909-1.91h58.714a1.91 1.91 0 011.909 1.91v16.231a1.91 1.91 0 01-1.909 1.909H152.75a1.91 1.91 0 01-1.909-1.909V120.3z" fill="#fff"/><path d="M169.457 125.838c0-.791.641-1.432 1.432-1.432h31.982c.791 0 1.432.641 1.432 1.432v.143c0 .791-.641 1.432-1.432 1.432h-31.982a1.432 1.432 0 01-1.432-1.432v-.143zM169.457 130.85c0-.791.641-1.432 1.432-1.432h20.526c.791 0 1.432.641 1.432 1.432v.143c0 .791-.641 1.432-1.432 1.432h-20.526a1.432 1.432 0 01-1.432-1.432v-.143z" fill="#DDE3E9"/><path fill-rule="evenodd" clip-rule="evenodd" d="M160.865 134.144a5.729 5.729 0 10-.001-11.457 5.729 5.729 0 00.001 11.457z" fill="#C5CFD6"/><path d="M150.841 144.169a1.91 1.91 0 011.909-1.909h58.714a1.91 1.91 0 011.909 1.909V160.4a1.91 1.91 0 01-1.909 1.91H152.75a1.91 1.91 0 01-1.909-1.91v-16.231z" fill="#fff"/><path d="M155.137 149.707c0-.791.641-1.432 1.432-1.432h31.982c.791 0 1.432.641 1.432 1.432v.143c0 .791-.641 1.432-1.432 1.432h-31.982a1.432 1.432 0 01-1.432-1.432v-.143z" fill="#DDE3E9"/><path d="M155.137 154.719c0-.791.641-1.432 1.432-1.432h20.526c.791 0 1.432.641 1.432 1.432v.143c0 .791-.641 1.433-1.432 1.433h-20.526a1.433 1.433 0 01-1.432-1.433v-.143z" fill="#AFB9C5"/><path fill-rule="evenodd" clip-rule="evenodd" d="M206.69 155.626a3.341 3.341 0 10.001-6.683 3.341 3.341 0 00-.001 6.683z" fill="#DDE3E9"/><path fill-rule="evenodd" clip-rule="evenodd" d="M206.69 153.717a1.433 1.433 0 10-.001-2.865 1.433 1.433 0 00.001 2.865z" fill="#F2F2F2"/><path d="M150.841 168.038a1.91 1.91 0 011.909-1.909h58.714a1.91 1.91 0 011.909 1.909v16.231a1.91 1.91 0 01-1.909 1.91H152.75a1.91 1.91 0 01-1.909-1.91v-16.231z" fill="#fff"/><path d="M169.457 173.576c0-.791.641-1.432 1.432-1.432h31.982c.791 0 1.432.641 1.432 1.432v.143c0 .791-.641 1.432-1.432 1.432h-31.982a1.432 1.432 0 01-1.432-1.432v-.143zM169.457 178.588c0-.791.641-1.432 1.432-1.432h20.526c.791 0 1.432.641 1.432 1.432v.143c0 .791-.641 1.432-1.432 1.432h-20.526a1.432 1.432 0 01-1.432-1.432v-.143z" fill="#DDE3E9"/><path fill-rule="evenodd" clip-rule="evenodd" d="M160.865 181.882a5.729 5.729 0 10-.001-11.457 5.729 5.729 0 00.001 11.457z" fill="#C5CFD6"/><path d="M175.663 91.18a3.82 3.82 0 013.819-3.82h152.273a3.819 3.819 0 013.818 3.82v157.535a3.819 3.819 0 01-3.818 3.819H179.482a3.82 3.82 0 01-3.819-3.819V91.18z" fill="#F2F2F2"/><path d="M294.522 111.707a3.818 3.818 0 013.818-3.819h25.777a3.82 3.82 0 013.819 3.819v31.03a3.82 3.82 0 01-3.819 3.819H298.34a3.818 3.818 0 01-3.818-3.819v-31.03z" fill="#fff"/><path fill-rule="evenodd" clip-rule="evenodd" d="M311.229 130.325a7.637 7.637 0 007.637-7.638 7.637 7.637 0 00-7.637-7.638 7.637 7.637 0 00-7.638 7.638 7.637 7.637 0 007.638 7.638z" fill="#DDE3E9"/><path d="M299.295 133.667c0-.791.641-1.432 1.432-1.432h21.003a1.432 1.432 0 110 2.864h-21.003a1.432 1.432 0 01-1.432-1.432zM303.114 138.44c0-.791.641-1.432 1.432-1.432h13.365a1.433 1.433 0 110 2.865h-13.365a1.433 1.433 0 01-1.432-1.433z" fill="#DDE3E9"/><path d="M175.663 91.18a3.82 3.82 0 013.819-3.82h152.273a3.819 3.819 0 013.818 3.82v9.07h-159.91v-9.07z" fill="#C5CFD6"/><path fill-rule="evenodd" clip-rule="evenodd" d="M181.868 95.954a1.91 1.91 0 100-3.82 1.91 1.91 0 000 3.82zM187.596 95.954a1.91 1.91 0 100-3.82 1.91 1.91 0 000 3.82zM193.325 95.954a1.91 1.91 0 10-.001-3.82 1.91 1.91 0 00.001 3.82z" fill="#F2F2F2"/><path d="M294.522 154.194a3.818 3.818 0 013.818-3.819h25.777a3.82 3.82 0 013.819 3.819v84.974a3.82 3.82 0 01-3.819 3.819H298.34a3.818 3.818 0 01-3.818-3.819v-84.974z" fill="#fff"/><path d="M303.114 160.877a1.91 1.91 0 011.909-1.909h12.411a1.91 1.91 0 011.91 1.909v8.593a1.91 1.91 0 01-1.91 1.91h-12.411a1.91 1.91 0 01-1.909-1.91v-8.593z" fill="#DDE3E9"/><path d="M303.114 177.108a1.91 1.91 0 011.909-1.909h12.411a1.91 1.91 0 011.91 1.909v8.116a1.91 1.91 0 01-1.91 1.909h-12.411a1.91 1.91 0 01-1.909-1.909v-8.116z" fill="#AFB9C5"/><path d="M303.114 192.862a1.91 1.91 0 011.909-1.91h12.411a1.91 1.91 0 011.91 1.91v8.115a1.91 1.91 0 01-1.91 1.91h-12.411a1.91 1.91 0 01-1.909-1.91v-8.115zM303.114 224.369a1.91 1.91 0 011.909-1.91h12.411a1.91 1.91 0 011.91 1.91v8.115a1.91 1.91 0 01-1.91 1.91h-12.411a1.91 1.91 0 01-1.909-1.91v-8.115z" fill="#DDE3E9"/><path d="M303.114 208.616a1.91 1.91 0 011.909-1.91h12.411a1.91 1.91 0 011.91 1.91v8.115a1.91 1.91 0 01-1.91 1.91h-12.411a1.91 1.91 0 01-1.909-1.91v-8.115z" fill="#C5CFD6"/><path d="M183.3 110.275a1.91 1.91 0 011.91-1.91h103.583a1.91 1.91 0 011.91 1.91v18.618a1.91 1.91 0 01-1.91 1.909H185.21a1.91 1.91 0 01-1.91-1.909v-18.618z" fill="#fff"/><path d="M187.596 116.529c0-.791.642-1.432 1.432-1.432h76.853c.791 0 1.432.641 1.432 1.432v.501c0 .791-.641 1.432-1.432 1.432h-76.853c-.79 0-1.432-.641-1.432-1.432v-.501zM187.596 122.138c0-.791.642-1.432 1.432-1.432h50.645c.791 0 1.432.641 1.432 1.432v.501c0 .791-.641 1.432-1.432 1.432h-50.645c-.79 0-1.432-.641-1.432-1.432v-.501z" fill="#DDE3E9"/><path fill-rule="evenodd" clip-rule="evenodd" d="M279.225 122.926a3.342 3.342 0 10-.002-6.684 3.342 3.342 0 00.002 6.684z" fill="#DDE3E9"/><path fill-rule="evenodd" clip-rule="evenodd" d="M279.225 121.016a1.432 1.432 0 10-.001-2.865 1.432 1.432 0 00.001 2.865z" fill="#F2F2F2"/><path d="M183.3 136.531a1.91 1.91 0 011.91-1.91h103.583a1.91 1.91 0 011.91 1.91v14.799a1.91 1.91 0 01-1.91 1.909H185.21a1.91 1.91 0 01-1.91-1.909v-14.799z" fill="#fff"/><path d="M187.596 141.603c0-.771.626-1.396 1.397-1.396h76.924a1.396 1.396 0 110 2.792h-76.924a1.397 1.397 0 01-1.397-1.396zM187.596 146.258c0-.771.626-1.397 1.397-1.397h50.716a1.397 1.397 0 010 2.793h-50.716a1.397 1.397 0 01-1.397-1.396z" fill="#DDE3E9"/><path fill-rule="evenodd" clip-rule="evenodd" d="M279.225 147.272a3.341 3.341 0 100-6.683 3.341 3.341 0 000 6.683z" fill="#DDE3E9"/><path fill-rule="evenodd" clip-rule="evenodd" d="M279.225 145.363a1.433 1.433 0 10-.003-2.867 1.433 1.433 0 00.003 2.867z" fill="#F2F2F2"/><path d="M183.3 158.968a1.91 1.91 0 011.91-1.91h103.583a1.91 1.91 0 011.91 1.91v14.799a1.91 1.91 0 01-1.91 1.909H185.21a1.91 1.91 0 01-1.91-1.909v-14.799z" fill="#fff"/><path d="M187.596 164.04c0-.771.626-1.396 1.397-1.396h76.924a1.396 1.396 0 110 2.792h-76.924a1.397 1.397 0 01-1.397-1.396zM187.596 168.695c0-.771.626-1.397 1.397-1.397h50.716a1.397 1.397 0 010 2.793h-50.716a1.397 1.397 0 01-1.397-1.396z" fill="#DDE3E9"/><path fill-rule="evenodd" clip-rule="evenodd" d="M279.225 169.709a3.341 3.341 0 100-6.683 3.341 3.341 0 000 6.683z" fill="#DDE3E9"/><path fill-rule="evenodd" clip-rule="evenodd" d="M279.225 167.799a1.432 1.432 0 10-.001-2.865 1.432 1.432 0 00.001 2.865z" fill="#AFB9C5"/><path d="M183.3 226.279a1.91 1.91 0 011.91-1.91h103.583a1.91 1.91 0 011.91 1.91v14.798a1.91 1.91 0 01-1.91 1.91H185.21a1.91 1.91 0 01-1.91-1.91v-14.798z" fill="#fff"/><path d="M187.596 231.351c0-.771.626-1.397 1.397-1.397h76.924a1.397 1.397 0 010 2.793h-76.924a1.397 1.397 0 01-1.397-1.396zM187.596 236.005c0-.771.626-1.396 1.397-1.396h50.716a1.396 1.396 0 110 2.793h-50.716a1.398 1.398 0 01-1.397-1.397z" fill="#DDE3E9"/><path fill-rule="evenodd" clip-rule="evenodd" d="M279.225 237.02a3.341 3.341 0 100-6.683 3.341 3.341 0 000 6.683z" fill="#DDE3E9"/><path fill-rule="evenodd" clip-rule="evenodd" d="M279.225 235.11a1.432 1.432 0 10-.001-2.865 1.432 1.432 0 00.001 2.865z" fill="#F2F2F2"/><path d="M183.3 203.842a1.91 1.91 0 011.91-1.91h103.583a1.91 1.91 0 011.91 1.91v14.798a1.91 1.91 0 01-1.91 1.91H185.21a1.91 1.91 0 01-1.91-1.91v-14.798z" fill="#fff"/><path d="M187.596 208.914c0-.771.626-1.396 1.397-1.396h76.924a1.396 1.396 0 110 2.792h-76.924a1.397 1.397 0 01-1.397-1.396zM187.596 213.568c0-.771.626-1.396 1.397-1.396h50.716a1.396 1.396 0 110 2.793h-50.716a1.398 1.398 0 01-1.397-1.397z" fill="#DDE3E9"/><path fill-rule="evenodd" clip-rule="evenodd" d="M279.225 214.583a3.341 3.341 0 100-6.683 3.341 3.341 0 000 6.683z" fill="#DDE3E9"/><path fill-rule="evenodd" clip-rule="evenodd" d="M279.225 212.673a1.432 1.432 0 10-.001-2.865 1.432 1.432 0 00.001 2.865z" fill="#F2F2F2"/><path d="M183.3 181.405a1.91 1.91 0 011.91-1.91h103.583a1.91 1.91 0 011.91 1.91v14.798a1.91 1.91 0 01-1.91 1.91H185.21a1.91 1.91 0 01-1.91-1.91v-14.798z" fill="#fff"/><path d="M187.596 186.477c0-.771.626-1.396 1.397-1.396h76.924a1.396 1.396 0 110 2.792h-76.924a1.397 1.397 0 01-1.397-1.396zM187.596 191.131c0-.771.626-1.396 1.397-1.396h50.716a1.396 1.396 0 110 2.793h-50.716a1.398 1.398 0 01-1.397-1.397z" fill="#DDE3E9"/><path fill-rule="evenodd" clip-rule="evenodd" d="M279.225 192.146a3.341 3.341 0 100-6.683 3.341 3.341 0 000 6.683z" fill="#DDE3E9"/><path fill-rule="evenodd" clip-rule="evenodd" d="M279.225 190.236a1.432 1.432 0 10-.001-2.865 1.432 1.432 0 00.001 2.865z" fill="#F2F2F2"/><path fill-rule="evenodd" clip-rule="evenodd" d="M375.186 168.695c-1.883-1.277-4.387-1.612-6.64-1.612-8.8 0-17.072 3.266-24.218 8.131-3.916 2.666-7.418 6.061-10.511 9.595-1.785 2.041-3.376 4.248-4.503 6.703-.761 1.657-1.282 3.384-1.636 5.165-.431 2.17-.774 4.384-.929 6.59-.061.869-.565 5.479.879 5.557-.008.114-.01.222-.001.319-3.137 4.905-5.074 10.653-6.872 16.102-1.563 4.742-2.956 9.524-3.86 14.43a157.214 157.214 0 00-2.527 23.793c-.04 1.202-.081 2.405-.12 3.608-.044 1.348-.281 2.899-.067 4.239.187 1.166 1.196.99 1.241-.171.054-1.402.045-2.807.106-4.21.082-1.863.166-3.725.257-5.587.635-12.933 3.014-25.676 7.406-37.893 1.778-4.943 3.814-9.623 6.432-14.197 2.301-4.021 5.07-7.914 7.9-11.539 2.75-3.523 5.609-6.965 8.979-9.95 2.735-2.422 5.743-4.533 8.835-6.496 3.927-2.494 7.847-4.927 12.101-6.841 2.212-.995 4.465-1.886 6.694-2.841.401-.172.83-.338 1.216-.537 1.286-.664.863-1.663-.162-2.358z" fill="#C1DEE2"/><path fill-rule="evenodd" clip-rule="evenodd" d="M339.783 213.867c3.569 0 6.745.464 10.033 1.882 2.839 1.224 5.426 2.845 7.938 4.61 3.533 2.482 6.316 5.37 8.264 9.197 1.164 2.286 2.018 5.521 1.236 8.015-.921 2.937-3.449 5.387-6.778 4.869-2.059-.32-3.946-1.682-5.511-2.965-1.872-1.535-3.37-3.38-4.607-5.429-2.019-3.344-3.204-7.122-4.919-10.616-.813-1.658-1.6-3.327-2.574-4.903-.482-.78-.996-1.553-1.728-2.133-.391-.31-2.042-.847-1.411-1.543-9.255.121-17.455 7.23-19.232 16.03-.166.82-.295 1.647-.432 2.472-.086.521-.051 2.443-.517 2.776-1.027.734-.596-1.497-.551-1.818.114-.83.235-1.659.362-2.488.695-4.503 2.699-8.69 6.043-11.902 3.823-3.672 8.981-6.054 14.384-6.054z" fill="#89C5CC"/><path fill-rule="evenodd" clip-rule="evenodd" d="M35.771 229.494c8.91 14.95 19.288 29.425 25.52 45.77a238.882 238.882 0 00-.815-5.773c-1.581-10.188-3.547-20.301-5.612-30.402a903.795 903.795 0 00-3.305-15.391c-.613-2.752-1.22-5.506-1.846-8.255-.152-.666-.282-1.83-.471-3.008 6.056 19.876 11.897 39.768 16.17 60.122.56 2.671 1.037 5.338 1.428 8 .133-.607.265-1.215.409-1.82 1.729-7.26 4.322-14.462 7.41-21.25 1.475-3.246 3.17-6.421 5.166-9.38 1.245-1.844 4.181-4.036 5.316-5.925-6.21 11.391-8.452 25.644-12.038 38.028-.875 3.022-1.756 6.039-2.619 9.061 5.408-10.845 13.797-19.756 25.462-23.617-14.12 9.33-22.589 25.67-28.296 42.381-.018.198-.04.396-.06.595 1.68-3.188 3.795-6.071 6.661-8.09 6.137-4.323 12.944-3.064 18.897.644-4.672-2.969-13.115-.265-17.046 2.754-2.814 2.16-5.219 5.059-7.307 7.887-.5.678-1.183 1.469-1.905 2.313a104.23 104.23 0 01-4.992 19.551c.385-1.856.107-4.825.214-6.209.012-.15.021-.3.033-.449a410.332 410.332 0 00-1.028 4.194c.656-2.629 1.012-5.373 1.29-8.145.072-1.191.142-2.383.216-3.574-.023-2.261-.117-4.53-.274-6.804-.558-2.21-1.183-4.294-1.7-6.027-1.86-6.254-4.588-12.245-7.945-17.835-3.063-5.101-6.73-9.721-10.963-13.9-2.282-2.252-4.67-4.396-7.024-6.571-.852-.786-2.373-2.719-3.69-3.727 9.586 5.285 19.452 11.003 26.444 19.518-.82-3.148-1.71-6.252-2.652-9.294-4.778-15.431-10.812-31.424-19.048-45.372z" fill="#DDE3E9"/><path fill-rule="evenodd" clip-rule="evenodd" d="M45.348 314.117c0 17.137 1.357 31.029 19.57 31.029 18.215 0 19.572-13.892 19.572-31.029" fill="#C5CFD6"/><path d="M294.999 68.265a1.432 1.432 0 112.864 0v9.07a1.432 1.432 0 11-2.864 0v-9.07zM301.682 60.627a1.432 1.432 0 112.864 0v16.709a1.432 1.432 0 11-2.864 0V60.627zM308.365 56.808a1.432 1.432 0 112.864 0v20.528a1.432 1.432 0 11-2.864 0V56.808zM315.047 60.627a1.432 1.432 0 112.864 0v16.709a1.432 1.432 0 11-2.864 0V60.627z" fill="#DDE3E9"/><path d="M321.73 52.99a1.432 1.432 0 112.864 0v24.346a1.432 1.432 0 11-2.864 0V52.989z" fill="#C5CFD6"/><path fill-rule="evenodd" clip-rule="evenodd" d="M60.145 197.758c0-5.318 4.297-9.67 9.547-9.67v9.67l-6.524 7.038c-1.856-1.72-3.023-4.245-3.023-7.038z" fill="#F2F2F2"/><path fill-rule="evenodd" clip-rule="evenodd" d="M69.44 197.636h9.64c0 2.492-1.016 4.827-2.623 6.525a9.715 9.715 0 01-7.017 3.022c-2.517 0-4.82-1.006-6.589-2.598l6.589-6.949z" fill="#AFB9C5"/><path fill-rule="evenodd" clip-rule="evenodd" d="M79.24 197.636c0-5.25-4.298-9.548-9.548-9.548v9.548h9.547zm-14.321-9.548l3.819 8.593-8.593-3.819c.85-2.228 2.758-3.924 4.774-4.774z" fill="#C5CFD6"/><path fill-rule="evenodd" clip-rule="evenodd" d="M370.785 202.018a5.017 5.017 0 01-3.662 1.585c-2.776 0-5.028-2.244-5.028-5.013 0-2.768 2.252-5.012 5.028-5.012v-9.309c-7.899 0-14.365 6.446-14.365 14.321 0 7.876 6.466 14.322 14.365 14.322 4.15 0 7.9-1.75 10.456-4.534l-6.794-6.36z" fill="#F2F2F2"/><path fill-rule="evenodd" clip-rule="evenodd" d="M367.078 184.269v9.309a5.012 5.012 0 015.012 5.012h9.308c0-7.875-6.445-14.321-14.32-14.321z" fill="#AFB9C5"/><path fill-rule="evenodd" clip-rule="evenodd" d="M371.898 198.591a5.078 5.078 0 01-1.956 4.005l5.853 7.452c3.407-2.668 5.603-6.803 5.603-11.457h-9.5z" fill="#C5CFD6"/><path fill-rule="evenodd" clip-rule="evenodd" d="M279.748 70.416a3.863 3.863 0 01-2.817 1.215c-2.136 0-3.867-1.72-3.867-3.843 0-2.122 1.731-3.843 3.867-3.843v-7.137c-6.076 0-11.05 4.942-11.05 10.98s4.974 10.98 11.05 10.98c3.192 0 6.077-1.342 8.044-3.476l-5.227-4.876z" fill="#F2F2F2"/><path fill-rule="evenodd" clip-rule="evenodd" d="M276.86 56.808v7.137a3.842 3.842 0 013.842 3.843h7.137c0-6.038-4.942-10.98-10.979-10.98z" fill="#AFB9C5"/><path fill-rule="evenodd" clip-rule="evenodd" d="M280.713 67.788a3.81 3.81 0 01-1.466 3.004l4.389 5.589c2.556-2 4.203-5.102 4.203-8.593h-7.126zM105.974 78.761l-.007.016c.003-.005.007-.025.007-.016z" fill="#C5CFD6"/><path fill-rule="evenodd" clip-rule="evenodd" d="M105.97 78.77l-.001.005c0-.005.009-.022.001-.005z" fill="#C5CFD6"/><path fill-rule="evenodd" clip-rule="evenodd" d="M106.002 78.688c-.006.019-.015.037-.022.056l.011-.027c-.099.249-.036.087.011-.03z" fill="#C5CFD6"/><path fill-rule="evenodd" clip-rule="evenodd" d="M105.981 78.745a.294.294 0 00-.011.027c-.028.054.011-.027.011-.027zM105.97 78.77l.001-.003-.001.003z" fill="#C5CFD6"/><path fill-rule="evenodd" clip-rule="evenodd" d="M105.965 78.776c-.006.012.028-.045 0 0z" fill="#C5CFD6"/><path fill-rule="evenodd" clip-rule="evenodd" d="M105.969 78.77l.003-.003c-.001.001-.001.003-.003.003z" fill="#C5CFD6"/><path d="M83.058 55.854a1.91 1.91 0 011.91-1.91h41.528a1.91 1.91 0 011.91 1.91V82.11a1.91 1.91 0 01-1.91 1.91H84.967a1.91 1.91 0 01-1.909-1.91V55.854z" fill="#DDE3E9"/><path fill-rule="evenodd" clip-rule="evenodd" d="M100.242 62.537L86.877 84.019h26.731l-13.366-21.482z" fill="#AFB9C5"/><path fill-rule="evenodd" clip-rule="evenodd" d="M113.369 68.265L101.674 84.02h23.39l-11.695-15.754z" fill="#C5CFD6"/><path fill-rule="evenodd" clip-rule="evenodd" d="M118.381 68.266a4.297 4.297 0 100-8.594 4.297 4.297 0 000 8.594z" fill="#fff"/><path fill-rule="evenodd" clip-rule="evenodd" d="M333.661 282.603l.007.016c-.003-.005-.007-.025-.007-.016z" fill="#C5CFD6"/><path fill-rule="evenodd" clip-rule="evenodd" d="M333.665 282.611l.001.006c0-.006-.009-.022-.001-.006z" fill="#C5CFD6"/><path fill-rule="evenodd" clip-rule="evenodd" d="M333.632 282.529l.023.057-.012-.027c.1.248.037.087-.011-.03z" fill="#C5CFD6"/><path fill-rule="evenodd" clip-rule="evenodd" d="M333.653 282.587l.012.027c.028.054-.012-.027-.012-.027z" fill="#C5CFD6"/><path fill-rule="evenodd" clip-rule="evenodd" d="M333.665 282.612c0-.002 0-.002-.002-.003.002.001.002.001.002.003z" fill="#C5CFD6"/><path fill-rule="evenodd" clip-rule="evenodd" d="M333.67 282.618c.005.011-.028-.046 0 0z" fill="#C5CFD6"/><path fill-rule="evenodd" clip-rule="evenodd" d="M333.666 282.612l-.003-.003c.001.001.001.003.003.003z" fill="#C5CFD6"/><path d="M367.555 247.761a1.91 1.91 0 00-1.909-1.91h-63.964a1.91 1.91 0 00-1.91 1.91v41.054a1.91 1.91 0 001.91 1.91h63.964a1.91 1.91 0 001.909-1.91v-41.054z" fill="#DDE3E9"/><path fill-rule="evenodd" clip-rule="evenodd" d="M342.387 258.74l19.597 31.985H322.79l19.597-31.985z" fill="#AFB9C5"/><path fill-rule="evenodd" clip-rule="evenodd" d="M322.181 267.308l17.325 23.417h-34.65l17.325-23.417z" fill="#C5CFD6"/><path fill-rule="evenodd" clip-rule="evenodd" d="M314.809 267.333a6.444 6.444 0 110-12.89 6.444 6.444 0 010 12.89z" fill="#fff"/><path fill-rule="evenodd" clip-rule="evenodd" d="M132.788 212.236c3.472 2.094 6.884 3.106 8.485 2.693 4.016-1.036 4.386-15.739 1.278-21.535-3.107-5.796-19.081-8.323-19.886 3.162-.28 3.985 1.393 7.543 3.864 10.445l-4.43 20.666h12.869l-2.18-15.431z" fill="#FEEBD5"/><path fill-rule="evenodd" clip-rule="evenodd" d="M125.54 209.586c-1.615-7.191-6.217-12.093-5.514-15.307.703-3.214 3.746-3.998 3.746-3.998s1.574-6.372 10.153-5.421c8.579.951 13.815 4.517 11.554 12.363-2.079 0-4.588-.753-8.058.536-1.651.614-2.362 3.805-2.362 3.805h-1.568s-2.283-3.787-4.502-2.783c-2.219 1.003-1.009 4.876-1.009 4.876l-.772 5.929h-1.668z" fill="#EC9E28"/><path fill-rule="evenodd" clip-rule="evenodd" d="M103.128 295.283h41.426l5.428 66.543H88.317l14.811-66.543z" fill="#C5CFD6"/><path fill-rule="evenodd" clip-rule="evenodd" d="M103.128 295.283h12.741l7.626 66.543H88.317l14.811-66.543z" fill="#000" fill-opacity=".1"/><path fill-rule="evenodd" clip-rule="evenodd" d="M167.314 308.466c-4.655 9.881-11.929 33.865-11.929 33.865l6.175 2.824s15.669-25.212 25.245-42.447c-.446 3.88-.901 8.248-1.322 12.84-.997 10.877 0 34.379.536 41.167.338 4.267 6.131 3.373 6.671-.011.092-.573.465-2.585 1.022-5.587 2.731-14.721 9.879-53.248 9.891-62.682.005-3.796-7.405-7.207-11.822-4.552-3.033-3.24-8.775-5.107-12.074.245-2.097 3.401-7.079 13.06-12.393 24.338z" fill="#FEEBD5"/><path fill-rule="evenodd" clip-rule="evenodd" d="M155.826 333.452l21.196-50.25c5.077-8.174 19.314 1.664 17.582 6.405-3.931 10.763-23.925 45.61-25.096 48.816l-13.682-4.971z" fill="#121772"/><path fill-rule="evenodd" clip-rule="evenodd" d="M156.16 339.283c-.328-.453-.968-.56-1.397-.202-.877.734-2.218 1.928-2.691 2.746-.725 1.258-1.697 3.911-1.697 3.911l26.191 15.133s2.97-2.787.925-4.328c-2.043-1.54-3.373-2.597-3.373-2.597l-9.076-12.515a.478.478 0 00-.678-.098l-1.926 1.485s-2.585-.226-3.858-.962c-.807-.466-1.8-1.719-2.42-2.573zM186.033 353.34c-.511-.227-1.119 0-1.311.525-.394 1.075-.959 2.779-.959 3.724 0 1.452.483 4.237.483 4.237h30.244s1.179-3.9-1.361-4.212c-2.54-.31-4.22-.561-4.22-.561l-14.112-6.296a.477.477 0 00-.636.254l-.926 2.25s-2.352 1.098-3.822 1.098c-.932 0-2.417-.588-3.38-1.019z" fill="#E4E4E4"/><path fill-rule="evenodd" clip-rule="evenodd" d="M205.089 292.296c0 14.257-6.765 47.512-6.769 50.651l-14.557.011s3.196-44.51 2.267-44.99c-.93-.479-38.099 3.714-49.246 3.714-16.075 0-22.725-10.145-23.265-28.938h31.844c6.484.694 40.304 7.522 52.863 9.868 5.377 1.005 6.863 5.756 6.863 9.684z" fill="#1E2FAD"/><path fill-rule="evenodd" clip-rule="evenodd" d="M167.863 228.574l-18.612 10.202 6.874 7.382 13.523-12.392c7.125-1.964 10.383-3.402 9.774-4.312-.512-.767-1.34-.741-2.101-.716-.594.019-1.148.037-1.483-.323-.765-.821.695-3.694 2.196-6.36 1.501-2.666-.104-2.434-1.022-2.051-3.004 2.035-6.053 4.892-9.149 8.57zm18.714 14.315l-8.176 4.494.466 8.211s5.295-3.825 9.85-5.096c5.809-1.621 8.159-2.858 10.997-6.478 1.518-1.936 2.808-5.829 1.362-7.097-.555-.487-2.62.662-4.729 1.835-1.606.893-3.237 1.8-4.242 2.007-1.353.279-1.194-1.476-1.068-2.878.091-1.006.165-1.831-.346-1.592-2.394.041-4.114 6.594-4.114 6.594z" fill="#FEEBD5"/><path fill-rule="evenodd" clip-rule="evenodd" d="M140.187 236.503c6.519-.069 15.212-1.447 24.488-7.339l3.643 8.13c-6.398 6.354-15.395 11.575-23.261 11.354-6.199-.174-9.367-7.678-4.87-12.145z" fill="#9B4C1F"/><path fill-rule="evenodd" clip-rule="evenodd" d="M122.605 292.202c-6.198-.809-11.893-1.552-15.267-.887-3.787-12.306-.642-20.055 2.26-27.208 1.749-4.311 3.411-8.406 3.414-13.152.011-13.82 11.099-35.094 12.731-35.094h14.878c.665 8.553 3.505 17.813 6.362 27.132a656.609 656.609 0 011.977 6.531c10.813 2.456 34.822-6.094 34.822-6.094s6.062 12.549 5.604 17.893c-13.975 7.306-25.952 10.563-35.82 10.778.313 5.86-.4 11.436-2.794 16.531-3.208 6.827-16.568 5.083-28.167 3.57z" fill="#BE5E28"/><path fill-rule="evenodd" clip-rule="evenodd" d="M365.084 178.373c-3.477 2.097-6.894 3.109-8.498 2.696-4.022-1.037-4.392-15.751-1.28-21.552s19.11-8.329 19.916 3.165c.28 3.988-1.395 7.548-3.869 10.453l4.437 20.682h-12.889l2.183-15.444z" fill="#FAD1AB"/><path fill-rule="evenodd" clip-rule="evenodd" d="M364.44 163.951c-1.115-1.66-2.185-2.926-3.577-3.662-5.667.09-6.33-.926-6.33-4.35.915-.655 4.144-1.758 7.76-2.068 1.845-.528 4.03-.429 6.135.452 2.599.738 4.8 2.325 5.772 5.298 3.516 6.07.847 12.388-2.749 14.546a48.756 48.756 0 01-2.539-3.286 3.222 3.222 0 00-2.638-5.505c-.08 2.225-.41 9.753-1.275 12.367-1.021 3.083-6.976 3.84-9.053 3.84-1.793 0-1.732-1.699-1.688-2.916.006-.176.011-.341.011-.49 0-.31.405-.31.862-.309.594.001 1.276.003 1.276-.678 0-.743-1.026-1.312-1.944-1.822-.573-.318-1.103-.612-1.317-.91-.673-.943-.899-2.214.116-2.214.555 0 1.317.32 2.233.705 1.384.581 3.12 1.311 5.03 1.311 3.155 0 3.905-10.182 3.915-10.309z" fill="#191847"/><path fill-rule="evenodd" clip-rule="evenodd" d="M384.364 239.168l-19.44 68.36-14.184 50.384h-10.346l15.073-118.744h28.897z" fill="#00382F"/><path fill-rule="evenodd" clip-rule="evenodd" d="M389.563 239.168c.45 35.233 1.983 54.451 2.455 57.651.472 3.202 7.611 23.566 21.416 61.093h-10.717c-17.575-36.001-27.386-56.365-29.433-61.093-2.046-4.727-8.362-23.944-17.876-57.651h34.155z" fill="#006755"/><path fill-rule="evenodd" clip-rule="evenodd" d="M414.392 365.971l-.495-8a.502.502 0 00-.615-.448c-4.653 1.027-11.129-1.223-11.129-1.223-6.544 4.645-16.019 6.74-19.164 7.336a.98.98 0 00-.764 1.226l.771 2.721h30.332l1.064-1.612zM352.191 365.971l-.495-8a.502.502 0 00-.615-.448c-4.653 1.027-11.129-1.223-11.129-1.223-6.544 4.645-16.02 6.74-19.164 7.336a.98.98 0 00-.764 1.226l.77 2.721H351.127l1.064-1.612z" fill="#191847"/><path fill-rule="evenodd" clip-rule="evenodd" d="M310.3 185.625l21.005 3.208-3.943 9.282-16.966-7.005c-7.377.593-10.935.359-10.674-.703.22-.896 1.008-1.154 1.733-1.392.565-.185 1.093-.357 1.285-.81.439-1.032-1.917-3.229-4.242-5.219-2.324-1.989-.734-2.321.261-2.275 3.523.883 7.37 2.521 11.541 4.914zm12.557 53.254l15.215-14.819 5.05 8.727-15.82 9.314c-3.968 6.239-6.298 8.935-6.991 8.088-.584-.714-.316-1.498-.069-2.219.192-.562.372-1.087.125-1.512-.561-.971-3.737-.414-6.729.243-2.991.658-2.299-.81-1.663-1.575 2.828-2.278 6.455-4.361 10.882-6.247z" fill="#FAD1AB"/><path fill-rule="evenodd" clip-rule="evenodd" d="M359.714 186.868c-6.821 18.493-18.327 33.552-35.766 49.976l8.492 7.223c20.495-11.061 31.226-17.505 34.547-34.538.834-4.275-.01-17.411-.128-24.368l-7.145 1.707z" fill="#000"/><path fill-rule="evenodd" clip-rule="evenodd" d="M393.589 240.528l-40.948 5.755s7.96-44.316 6.043-60.144c-.065-.538.795-1.624 1.251-1.561 5.009.681 10.167-2.465 10.167-2.465 11.898 14.221 17.952 32.939 23.487 58.415z" fill="#F2F2F2"/><path fill-rule="evenodd" clip-rule="evenodd" d="M363.173 207.335c-2.547 28.285.898 50.662 15.018 48.677l21.833-3.068c.198-23.752-13.448-54.727-24.184-69.81-.41-.576-1.261-1.65-2.879-1.423l-6.345.892a.234.234 0 01-.004.026c-1.907.284-4 .649-6.266 1.045-11.666 2.035-27.934 4.874-47.152 1.565l-.648 11.121c18.096 8.324 36.064 14.217 50.627 10.975z" fill="#000232"/></svg>